<svg id="Base_Body_V3" data-name="Base Body V3" xmlns="http://www.w3.org/2000/svg" viewBox="0 0 3000 3000"><defs><style>.cls-1,.cls-2{fill:none;stroke:#000;stroke-linecap:round;stroke-miterlimit:10;}.cls-1{stroke-width:13px;}.cls-2{stroke-width:14px;}</style></defs><path class="cls-1" d="M1124.34,2330.45s65.27,121.25,0,185.71c-26,25.66-63.7,40.75-100.54,44.76-169.74,18.5-211.9-213.21-212.25-327.21-1.19-384.43,268.87-552.24,268.87-552.24"/><path class="cls-1" d="M1188.61,1822.33c-25.84,55.2-43,113.78-52.34,173.17-9.26,58.83-13.91,121.32.77,179.71,4.69,18.63,10.62,36.6,19.91,53.7,18.31,33.72,51.4,65.64,48.8,105.78-2.14,33.08-31.85,46-64.61,36.29"/><path class="cls-1" d="M1875.87,1822.33s102.57,98.45,91,287.14c0,0-3.62,117-95.28,193.58a25.6,25.6,0,0,0-9.21,18.23c-1.49,27.45-5.31,101.95-8.34,196,0,0,145.74-10.32,150.89,129,.65,17.51-12.29,33-30.87,37.34-61.79,14.38-217.56,40-453.39,7.15,0,0-171.42,71-375.08,8-21.91-6.79-35.72-26.6-33-47.6,3.64-28.11,11-75.14,26-147.9"/><path class="cls-1" d="M1142.45,2598.2s115.4-73.83,237.21-58.6,165.4,61,141,151.19"/><path class="cls-1" d="M1854.07,2517.33s-133.35-.74-200.62,45.13"/><line class="cls-1" x1="1511.37" y1="2594.76" x2="1564.29" y2="2347.39"/><path class="cls-1" d="M1962.82,2162.51c234.13,119.66,454.59-224.88,374-427.73-28.07-70.68-107.32-90.8-182.53-84.12,0,0-145.76,11-120.63,133.23"/><path class="cls-1" d="M2078,1825.24c-8.17-25.5-34.33-44.87-63.48-32.33-21.57,9.27-24.07,30.78-17,49.43a121.09,121.09,0,0,0,13,24.25c40.21,59.72,25.13,80.86,13.07,95.56"/><path class="cls-1" d="M1994,1809.24s-53-83.28-120-110.78"/><path class="cls-1" d="M910.12,1403.57c-18.06,15.13-39.93,24-63.49,24-62,0-112.3-61.34-112.3-137s50.28-137,112.3-137c23.56,0,45.43,8.85,63.49,24"/><path class="cls-2" d="M847.68,1226.92c24.22,0,43.86,28.83,43.86,64.39s-19.64,64.39-43.86,64.39"/><path d="M2129.2,1143.53a144,144,0,0,0-31.17-30.72,536.58,536.58,0,0,0-23-56.35c-32.82-68.83-79.79-130.63-139.61-183.69s-129.34-94.63-206.81-123.7c-80.17-30.08-165.32-45.33-253.08-45.33a723.09,723.09,0,0,0-219.4,33.67,674.64,674.64,0,0,0-187.55,93.24c-56,39.93-104,87.44-142.51,141.21-39.24,54.78-67.57,114.53-84.18,177.58a5.75,5.75,0,0,0,11.12,2.93c16.26-61.69,44-120.17,82.41-173.82,37.78-52.73,84.83-99.34,139.84-138.54a663,663,0,0,1,184.36-91.64,711.53,711.53,0,0,1,215.91-33.13c86.38,0,170.17,15,249,44.6,76.14,28.57,144.52,69.46,203.22,121.54s104.7,112.6,136.85,180a522.14,522.14,0,0,1,24.57,61.08c1.7,1.17,3.39,2.41,5.06,3.7.85.67,1.71,1.35,2.55,2l.54.43c.91.76,1.82,1.54,2.72,2.34l.82.73c.88.79,1.76,1.59,2.63,2.42.22.2.43.42.65.63a141.8,141.8,0,0,1,14.69,16.6c21.6,28.51,34,65.55,34,101.63,0,40.38-11.31,77.31-31.91,104.43h0c-.65.86-1.31,1.7-2,2.53-.89,1.11-1.79,2.18-2.69,3.24l-1,1.09c-.6.69-1.2,1.36-1.81,2-.38.42-.77.83-1.16,1.25-.57.6-1.14,1.19-1.72,1.78-.39.4-.78.81-1.18,1.2-.91.9-1.83,1.8-2.76,2.66-20,109.66-76.83,202.64-167.34,272.26-54.72,42.09-120.47,74.65-195.41,96.79s-157.82,33.42-245.91,33.42c-73.58,0-145.3-7.85-213.16-23.33S1154,1714,1098,1684.31c-117.39-62.14-199.49-151.36-237.44-258a5.75,5.75,0,0,0-10.83,3.85c38.92,109.43,122.91,200.84,242.89,264.35,56.87,30.1,120.69,53.35,189.67,69.09,68.7,15.67,141.28,23.62,215.72,23.62,89.2,0,173-11.4,249.17-33.89,76.31-22.54,143.31-55.75,199.16-98.7,91.16-70.12,149-163.31,170.49-273.08a136.34,136.34,0,0,0,12.27-13.43c23.68-29.62,36.73-70.49,36.73-115.08C2165.83,1214.15,2152.48,1174.25,2129.2,1143.53Z"/></svg>