<svg width="91" height="112" viewBox="0 0 91 112" fill="none" xmlns="http://www.w3.org/2000/svg">
<path d="M19.4579 54.3407L14.6755 58.5273L10.1859 64.485L6.93253 71.2157L5.14319 78.6871L4.78532 83.9686L5.20825 88.9602L6.15173 93.2756L7.876 97.4621L9.99069 100.2L12.6259 101.906L16.9854 102.454L19.9785 101.455L22.1908 99.9419L22.939 99.2656L22.4185 102.003L21.5726 106.995V108.605L22.3534 109.539L25.1838 110.505L29.5108 111.407H33.7076L37.3839 111.117L40.1167 110.666L42.9797 109.893L44.3786 109.539L46.6885 109.893L53.6832 110.376H59.2139L63.5083 110.054L67.2172 109.539L69.1367 109.152L70.6332 108.057L70.8609 107.091L70.6332 105.352L69.2017 102.486L66.7617 100.779L62.4998 100.038L63.0854 88.7348C63.0854 88.7348 63.7361 88.0263 63.9638 87.8331C64.1916 87.6399 66.5665 84.6127 66.5665 84.6127L67.9329 81.5855L68.5185 80.5227L70.2428 81.2312L73.6914 81.8753L77.6279 81.4889L80.0679 80.2007L82.8008 78.2362L85.1106 75.8209L87.6157 72.6005L88.9821 69.0902L89.9256 65.5156L90.2184 61.9087L89.8605 58.9781L88.8845 56.3052L87.0626 54.4051L84.7528 52.9559L81.9549 52.5695H79.5474L76.8796 53.117L74.2444 54.6306L72.7479 56.3052L72.4876 58.4629L72.7479 60.2985L71.2839 60.5883L70.6657 61.1036L70.4055 61.4256L68.2908 58.2052L66.0134 56.4662L63.7686 55.017L65.5254 54.0509L69.0391 51.3457L71.5441 48.6406L74.1794 45.0659L75.6108 42.1675L76.6844 38.9471L77.4327 34.9216C77.4327 34.9216 77.4327 31.1859 77.4327 31.0893C77.4327 30.9927 76.4242 24.6484 76.4242 24.6484L75.5458 22.4586L74.0492 19.3992L72.8455 16.7262L70.6657 13.8278L68.486 11.4125L66.534 9.64129L61.7841 6.19544L58.0427 4.3276L54.1387 2.814L50.0395 1.65465L44.8666 0.946155L40.6373 0.75293L34.5535 1.33261L28.9577 2.78179L24.4356 4.61743L20.7268 6.6785L16.4323 9.86672L13.179 13.0871L9.92562 17.5957L8.20134 21.3314L6.9 24.7773L6.54213 25.0993L3.90691 25.9366L2.0525 27.7723L0.783691 30.6384V34.2131L1.62956 36.9827L3.15864 39.0437L6.05413 40.2997H7.4856L8.94961 43.8744L11.3896 47.288L13.5694 49.5745L16.9854 52.3441L19.6531 53.9221L19.4579 54.3407Z" fill="#FFB8FA"/>
<g opacity="0.13">
<path opacity="0.13" d="M20.5311 59.9764C20.5311 59.9764 9.37213 68.6393 12.3652 87.9296C12.3652 87.9296 15.6186 102.099 20.7914 101.069L18.2863 102.132L14.61 102.518L12.105 101.842L9.17693 99.4909L7.09479 96.0129C7.09479 96.0129 6.02118 92.7925 5.98865 92.7925L5.14277 88.7991L4.91504 85.1601V80.0396L5.72838 75.209L7.06225 70.797L8.72146 67.0291L10.706 63.8087L12.4303 61.1679L14.1546 59.1391L16.562 56.9492L18.4815 55.1458L19.5877 54.3728L18.0911 53.3423L14.545 50.7338L11.2916 47.5134L9.9252 45.1946L7.55026 41.6844V40.3318L9.9252 39.3013L11.8772 37.208C11.8772 37.208 16.8223 62.9714 57.8471 57.3678C58.5954 57.3678 51.3404 58.7526 52.2188 58.6238L57.229 57.5933L60.4823 56.4339L63.7357 54.9203L64.6791 55.5322C64.6791 55.5322 57.0012 62.1663 37.9366 60.8781C18.8719 59.5899 24.0122 57.1746 20.5311 59.9764Z" fill="black"/>
<path opacity="0.13" d="M9.04751 32.7319C9.14067 33.5621 8.90433 34.3956 8.38837 35.0566C7.87242 35.7175 7.11721 36.1542 6.28216 36.2744C4.78562 36.2744 4.16748 34.6964 4.16748 32.7319C4.16748 30.7675 4.78562 29.1895 6.28216 29.1895C7.11721 29.3096 7.87242 29.7463 8.38837 30.4072C8.90433 31.0682 9.14067 31.9017 9.04751 32.7319Z" fill="black"/>
<path opacity="0.13" d="M47.0787 104.257C47.3715 103.033 47.6969 101.81 47.9571 100.65C48.4777 98.1062 49.0958 95.5299 49.4537 92.9536C49.4537 92.4061 50.0718 90.6993 49.2259 90.6671C48.3482 90.6188 47.4684 90.6188 46.5907 90.6671L44.0856 102.035C43.9135 102.73 43.8369 103.445 43.8579 104.161C43.8579 105.095 44.411 105.964 44.5086 106.898C44.6062 107.832 43.988 108.637 44.5086 109.217C44.7711 109.47 45.1184 109.619 45.4846 109.635C48.5427 110.022 51.6009 110.183 54.659 110.312H60.9055L66.729 109.571L68.9738 109.217C69.1139 109.191 69.247 109.136 69.3642 109.056L70.1125 108.508C71.2186 107.671 70.5354 106.383 70.5029 105.288L70.0148 104L69.4943 103.452C69.8196 103.806 68.7786 104.805 68.5834 104.966C67.8117 105.522 66.9392 105.927 66.0132 106.157C63.2735 106.881 60.4547 107.27 57.6196 107.317C55.331 107.495 53.0297 107.43 50.755 107.123C49.9405 107.019 49.1425 106.814 48.3801 106.512C47.9349 106.34 47.5626 106.023 47.3257 105.613C47.0888 105.202 47.0016 104.724 47.0787 104.257Z" fill="black"/>
<path opacity="0.13" d="M68.7466 72.8583C68.7466 72.8583 82.0528 86.9637 89.9259 65.6768L88.8198 69.8955L86.1195 74.8227L82.8661 78.333L78.832 80.9415L74.3098 81.9721L71.7397 81.6178L68.7466 80.5551V78.8161L69.0719 75.9177L68.7466 72.8583Z" fill="black"/>
<path opacity="0.13" d="M73.3993 60.202C73.3993 60.202 70.7641 60.6207 72.8787 64.1309C72.8787 64.1309 75.026 68.9616 72.1955 69.7023C72.3317 69.274 72.4947 68.8545 72.6835 68.4463C72.7342 67.8892 72.7342 67.3288 72.6835 66.7717L71.7401 64.9361C71.7401 64.9361 70.699 63.2292 70.5688 62.9716C70.5919 62.2249 70.679 61.4816 70.8291 60.7495L72.0979 60.202L73.2041 60.041L73.3993 60.202Z" fill="black"/>
<path opacity="0.13" d="M79.5484 52.4082C79.5484 52.4082 71.7403 54.7591 74.9937 61.4898L74.0502 60.6847C73.5792 60.5007 73.1316 60.2629 72.7163 59.9762C72.5891 59.414 72.5021 58.8437 72.4561 58.2694C72.4561 58.2694 72.7489 56.3371 72.7489 56.3371L73.8225 54.8235L75.4491 53.5998L79.5484 52.4082Z" fill="black"/>
<path opacity="0.13" d="M10.3166 26.4843C10.3166 26.4843 14.6761 6.80755 30.8127 2.49219L24.306 4.61766L19.8164 7.2262L15.3268 10.9941L11.2926 15.6959L8.33206 20.0113L6.67285 25.1639L8.91766 25.647L10.3166 26.4843Z" fill="black"/>
<path opacity="0.13" d="M66.2092 85.2891C64.1654 87.9444 61.2175 89.7753 57.9131 90.4417C57.9131 90.4417 59.1819 91.279 62.9558 90.2807L63.2161 89.1858L63.7041 88.2518L64.2897 87.7044" fill="black"/>
</g>
<mask id="path-10-inside-1_402:2785" fill="white">
<path d="M15.5871 102.841C13.4942 102.88 11.4666 102.118 9.9263 100.715C5.89215 97.1406 4.42814 89.7336 4.42814 84.6132C4.25076 78.6401 5.54769 72.7144 8.2065 67.3496C10.8653 61.9847 14.8058 57.3428 19.6864 53.8259C19.7579 53.7626 19.8506 53.7275 19.9466 53.7275C20.0427 53.7275 20.1353 53.7626 20.2069 53.8259C20.2686 53.8915 20.303 53.9778 20.303 54.0675C20.303 54.1571 20.2686 54.2434 20.2069 54.309C15.4194 57.7475 11.5512 62.2899 8.93779 67.5425C6.32433 72.7951 5.0444 78.5993 5.20894 84.4521C5.20894 88.5743 6.34762 96.5287 10.4794 100.168C11.2943 100.911 12.2652 101.467 13.3226 101.796C14.38 102.124 15.4977 102.217 16.5957 102.068C18.5854 101.88 20.4588 101.055 21.9312 99.7169C25.1845 96.4965 21.9312 90.0557 21.9312 90.0557C21.9098 90.0134 21.8971 89.9673 21.8937 89.9202C21.8903 89.873 21.8963 89.8257 21.9114 89.7808C21.9265 89.7359 21.9504 89.6945 21.9817 89.6587C22.013 89.623 22.0511 89.5938 22.0938 89.5726C22.1366 89.5515 22.1831 89.5389 22.2307 89.5355C22.2784 89.5322 22.3262 89.5381 22.3715 89.5531C22.4168 89.568 22.4587 89.5917 22.4948 89.6227C22.5309 89.6536 22.5605 89.6913 22.5818 89.7336C22.7445 89.9913 26.2907 96.6575 22.5818 100.329C20.9955 101.802 18.9573 102.709 16.7909 102.905L15.5871 102.841Z"/>
</mask>
<path d="M15.5871 102.841C13.4942 102.88 11.4666 102.118 9.9263 100.715C5.89215 97.1406 4.42814 89.7336 4.42814 84.6132C4.25076 78.6401 5.54769 72.7144 8.2065 67.3496C10.8653 61.9847 14.8058 57.3428 19.6864 53.8259C19.7579 53.7626 19.8506 53.7275 19.9466 53.7275C20.0427 53.7275 20.1353 53.7626 20.2069 53.8259C20.2686 53.8915 20.303 53.9778 20.303 54.0675C20.303 54.1571 20.2686 54.2434 20.2069 54.309C15.4194 57.7475 11.5512 62.2899 8.93779 67.5425C6.32433 72.7951 5.0444 78.5993 5.20894 84.4521C5.20894 88.5743 6.34762 96.5287 10.4794 100.168C11.2943 100.911 12.2652 101.467 13.3226 101.796C14.38 102.124 15.4977 102.217 16.5957 102.068C18.5854 101.88 20.4588 101.055 21.9312 99.7169C25.1845 96.4965 21.9312 90.0557 21.9312 90.0557C21.9098 90.0134 21.8971 89.9673 21.8937 89.9202C21.8903 89.873 21.8963 89.8257 21.9114 89.7808C21.9265 89.7359 21.9504 89.6945 21.9817 89.6587C22.013 89.623 22.0511 89.5938 22.0938 89.5726C22.1366 89.5515 22.1831 89.5389 22.2307 89.5355C22.2784 89.5322 22.3262 89.5381 22.3715 89.5531C22.4168 89.568 22.4587 89.5917 22.4948 89.6227C22.5309 89.6536 22.5605 89.6913 22.5818 89.7336C22.7445 89.9913 26.2907 96.6575 22.5818 100.329C20.9955 101.802 18.9573 102.709 16.7909 102.905L15.5871 102.841Z" fill="black"/>
<path d="M15.5871 102.841L15.6406 101.842L15.6046 101.84L15.5685 101.841L15.5871 102.841ZM9.9263 100.715L10.5998 99.976L10.5895 99.9668L9.9263 100.715ZM4.42814 84.6132H5.42814V84.5983L5.4277 84.5835L4.42814 84.6132ZM19.6864 53.8259L20.271 54.6373L20.3117 54.6079L20.3493 54.5747L19.6864 53.8259ZM20.2069 53.8259L20.9349 53.1404L20.9038 53.1073L20.8698 53.0772L20.2069 53.8259ZM20.303 54.0675H21.303H20.303ZM20.2069 54.309L20.7903 55.1212L20.8687 55.0649L20.9349 54.9945L20.2069 54.309ZM5.20894 84.4521H6.20894V84.4381L6.20855 84.424L5.20894 84.4521ZM10.4794 100.168L11.1534 99.4291L11.1469 99.4232L11.1403 99.4174L10.4794 100.168ZM16.5957 102.068L16.5019 101.072L16.4814 101.074L16.4609 101.077L16.5957 102.068ZM21.9312 99.7169L22.6037 100.457L22.6195 100.443L22.6347 100.428L21.9312 99.7169ZM21.9312 90.0557L21.0386 90.5065L21.9312 90.0557ZM22.5818 89.7336L21.6892 90.1845L21.7108 90.2271L21.7363 90.2675L22.5818 89.7336ZM22.5818 100.329L23.2625 101.061L23.2741 101.051L23.2853 101.04L22.5818 100.329ZM16.7909 102.905L16.7374 103.904L16.8093 103.908L16.8809 103.901L16.7909 102.905ZM15.5685 101.841C13.7297 101.875 11.9502 101.206 10.5997 99.976L9.25287 101.455C10.9831 103.031 13.2586 103.884 15.6058 103.841L15.5685 101.841ZM10.5895 99.9668C8.77039 98.3549 7.46775 95.8116 6.62325 92.9599C5.78346 90.1242 5.42814 87.0892 5.42814 84.6132H3.42814C3.42814 87.2576 3.80482 90.4863 4.70558 93.5279C5.60162 96.5535 7.04805 99.501 9.26311 101.464L10.5895 99.9668ZM5.4277 84.5835C5.2552 78.7748 6.5164 73.0117 9.1025 67.7936L7.31051 66.9055C4.57898 72.417 3.24632 78.5054 3.42858 84.6428L5.4277 84.5835ZM9.1025 67.7936C11.6886 62.5755 15.5219 58.0593 20.271 54.6373L19.1017 53.0146C14.0897 56.6262 10.042 61.394 7.31051 66.9055L9.1025 67.7936ZM20.3493 54.5747C20.2371 54.674 20.0936 54.7275 19.9466 54.7275V52.7275C19.6076 52.7275 19.2788 52.8512 19.0235 53.0772L20.3493 54.5747ZM19.9466 54.7275C19.7996 54.7275 19.6562 54.674 19.544 54.5747L20.8698 53.0772C20.6144 52.8512 20.2857 52.7275 19.9466 52.7275V54.7275ZM19.4788 54.5115C19.3668 54.3925 19.303 54.234 19.303 54.0675H21.303C21.303 53.7217 21.1705 53.3905 20.9349 53.1404L19.4788 54.5115ZM19.303 54.0675C19.303 53.901 19.3668 53.7424 19.4788 53.6235L20.9349 54.9945C21.1704 54.7444 21.303 54.4133 21.303 54.0675H19.303ZM19.6235 53.4968C14.7044 57.0299 10.7289 61.6979 8.04249 67.097L9.83309 67.988C12.3736 62.8819 16.1344 58.4652 20.7903 55.1212L19.6235 53.4968ZM8.04249 67.097C5.35609 72.4962 4.04018 78.4631 4.20934 84.4802L6.20855 84.424C6.04863 78.7356 7.29257 73.0939 9.83309 67.988L8.04249 67.097ZM4.20894 84.4521C4.20894 86.5891 4.50227 89.6973 5.32951 92.7525C6.15042 95.7843 7.53541 98.9074 9.81843 100.918L11.1403 99.4174C9.29158 97.7891 8.04135 95.1155 7.25999 92.2298C6.48495 89.3674 6.20894 86.4373 6.20894 84.4521H4.20894ZM9.80535 100.907C10.7291 101.749 11.8289 102.379 13.0259 102.751L13.6193 100.841C12.7014 100.556 11.8595 100.073 11.1534 99.4291L9.80535 100.907ZM13.0259 102.751C14.2229 103.123 15.4879 103.228 16.7304 103.059L16.4609 101.077C15.5076 101.207 14.5371 101.126 13.6193 100.841L13.0259 102.751ZM16.6895 103.063C18.8936 102.856 20.9704 101.941 22.6037 100.457L21.2586 98.9769C19.9473 100.169 18.2772 100.905 16.5019 101.072L16.6895 103.063ZM22.6347 100.428C24.641 98.4416 24.5528 95.5665 24.1314 93.4806C23.9135 92.4021 23.5887 91.4397 23.3208 90.7502C23.1863 90.404 23.0646 90.1229 22.9756 89.9262C22.931 89.8277 22.8944 89.7502 22.8683 89.6959C22.8553 89.6687 22.8449 89.6473 22.8373 89.6321C22.8336 89.6244 22.8305 89.6183 22.8283 89.6138C22.8271 89.6115 22.8262 89.6096 22.8254 89.6081C22.8251 89.6074 22.8247 89.6067 22.8244 89.6062C22.8243 89.6059 22.8241 89.6056 22.8241 89.6054C22.8239 89.6051 22.8238 89.6048 21.9312 90.0557C21.0386 90.5065 21.0385 90.5063 21.0383 90.5061C21.0383 90.506 21.0382 90.5059 21.0382 90.5058C21.0381 90.5056 21.0381 90.5056 21.0381 90.5056C21.0381 90.5057 21.0384 90.5061 21.0388 90.5069C21.0396 90.5086 21.0412 90.5118 21.0435 90.5164C21.0481 90.5257 21.0555 90.5409 21.0655 90.5617C21.0855 90.6033 21.1156 90.6673 21.1537 90.7513C21.2298 90.9193 21.3369 91.1666 21.4566 91.4745C21.697 92.0933 21.9822 92.9424 22.171 93.8767C22.5629 95.8163 22.4747 97.7718 21.2277 99.0062L22.6347 100.428ZM22.8238 89.6048C22.862 89.6805 22.885 89.7634 22.8911 89.8486L20.8963 89.9918C20.9091 90.1713 20.9576 90.3462 21.0386 90.5065L22.8238 89.6048ZM22.8911 89.8486C22.8972 89.9338 22.8863 90.0192 22.8591 90.0999L20.9637 89.4617C20.9063 89.6321 20.8834 89.8122 20.8963 89.9918L22.8911 89.8486ZM22.8591 90.0999C22.832 90.1806 22.7893 90.2545 22.7339 90.3177L21.2296 88.9997C21.1116 89.1344 21.0211 89.2913 20.9637 89.4617L22.8591 90.0999ZM22.7339 90.3177C22.6785 90.381 22.6116 90.4321 22.5374 90.4688L21.6503 88.6764C21.4906 88.7554 21.3476 88.8651 21.2296 88.9997L22.7339 90.3177ZM22.5374 90.4688C22.4632 90.5056 22.3829 90.5273 22.3009 90.533L22.1605 88.538C21.9833 88.5504 21.8099 88.5974 21.6503 88.6764L22.5374 90.4688ZM22.3009 90.533C22.219 90.5388 22.1366 90.5286 22.0582 90.5027L22.6849 88.6034C22.5159 88.5477 22.3377 88.5255 22.1605 88.538L22.3009 90.533ZM22.0582 90.5027C21.9798 90.4769 21.9068 90.4358 21.8434 90.3814L23.1462 88.8639C23.0107 88.7476 22.8539 88.6592 22.6849 88.6034L22.0582 90.5027ZM21.8434 90.3814C21.7801 90.327 21.7275 90.2602 21.6892 90.1845L23.4744 89.2828C23.3935 89.1225 23.2818 88.9803 23.1462 88.8639L21.8434 90.3814ZM21.7363 90.2675C21.7335 90.2631 21.9605 90.6693 22.248 91.3639C22.5288 92.0424 22.8487 92.9524 23.0541 93.9523C23.4746 95.9991 23.3676 98.1439 21.8783 99.6181L23.2853 101.04C25.5049 98.8424 25.4792 95.8185 25.0132 93.5499C24.5432 91.2619 23.566 89.4193 23.4274 89.1998L21.7363 90.2675ZM21.9012 99.5962C20.478 100.918 18.6478 101.733 16.7008 101.909L16.8809 103.901C19.2668 103.685 21.5131 102.687 23.2625 101.061L21.9012 99.5962ZM16.8443 101.907L15.6406 101.842L15.5337 103.839L16.7374 103.904L16.8443 101.907Z" fill="black" mask="url(#path-10-inside-1_402:2785)"/>
<path d="M23.1345 91.9939L23.1355 91.9958L23.1345 91.9939ZM23.1345 91.9939L23.13 91.9859L23.1345 91.9939Z" fill="black" stroke="black"/>
<mask id="path-13-inside-2_402:2785" fill="white">
<path d="M32.9924 111.761C29.6841 111.765 26.394 111.276 23.2324 110.312C22.5857 110.134 22.0228 109.736 21.6422 109.189C21.2616 108.641 21.0875 107.979 21.1502 107.317C21.443 105.159 21.931 102.422 22.6142 99.1695C22.6214 99.1232 22.6386 99.0791 22.6647 99.0401C22.6908 99.0011 22.7251 98.9682 22.7654 98.9436C22.8056 98.9191 22.8508 98.9036 22.8977 98.8981C22.9447 98.8926 22.9923 98.8973 23.0372 98.9119C23.1269 98.9348 23.2041 98.9912 23.2526 99.0692C23.3012 99.1473 23.3172 99.241 23.2975 99.3305C22.6468 102.551 22.1588 105.288 21.866 107.414C21.8265 107.91 21.9645 108.405 22.2559 108.811C22.5473 109.217 22.9735 109.509 23.4601 109.636C30.1756 111.648 37.3627 111.502 43.9888 109.217H44.184C52.4796 110.572 60.9534 110.441 69.2023 108.831C69.5989 108.757 69.9577 108.55 70.2184 108.245C70.4791 107.94 70.6258 107.556 70.6337 107.156C70.6403 106.232 70.4527 105.317 70.0831 104.469C69.7135 103.621 69.1698 102.858 68.4865 102.229C66.7924 100.943 64.6985 100.283 62.5654 100.361H62.1425V99.9746C62.1425 94.8541 62.5004 90.732 62.598 89.2184C62.6097 88.9752 62.6738 88.7374 62.786 88.5207C62.8982 88.3041 63.056 88.1137 63.2486 87.9624C66.2746 85.3131 68.1509 81.61 68.4865 77.6249C68.775 74.8455 68.4851 72.037 67.6346 69.3729C66.784 66.7087 65.391 64.2453 63.5414 62.1347C63.4724 62.0663 63.4336 61.9737 63.4336 61.877C63.4336 61.7804 63.4724 61.6877 63.5414 61.6194C63.6105 61.5511 63.7041 61.5127 63.8017 61.5127C63.8993 61.5127 63.9929 61.5511 64.062 61.6194C66.0032 63.8018 67.463 66.3611 68.3481 69.1337C69.2332 71.9063 69.5241 74.8313 69.2023 77.7215C68.928 81.9143 66.986 85.8285 63.8017 88.6065C63.6895 88.6975 63.597 88.81 63.5299 88.9373C63.4628 89.0646 63.4225 89.2041 63.4113 89.3472C63.4113 90.8286 63.1185 94.7575 62.9558 99.717C65.145 99.679 67.2771 100.409 68.9745 101.778C69.7238 102.46 70.3174 103.293 70.7158 104.22C71.1141 105.148 71.3079 106.149 71.2844 107.156C71.2882 107.724 71.0922 108.276 70.7301 108.716C70.368 109.157 69.8624 109.459 69.2999 109.571C60.9961 111.18 52.4691 111.311 44.1189 109.958C40.5464 111.203 36.7796 111.814 32.9924 111.761Z"/>
</mask>
<path d="M32.9924 111.761C29.6841 111.765 26.394 111.276 23.2324 110.312C22.5857 110.134 22.0228 109.736 21.6422 109.189C21.2616 108.641 21.0875 107.979 21.1502 107.317C21.443 105.159 21.931 102.422 22.6142 99.1695C22.6214 99.1232 22.6386 99.0791 22.6647 99.0401C22.6908 99.0011 22.7251 98.9682 22.7654 98.9436C22.8056 98.9191 22.8508 98.9036 22.8977 98.8981C22.9447 98.8926 22.9923 98.8973 23.0372 98.9119C23.1269 98.9348 23.2041 98.9912 23.2526 99.0692C23.3012 99.1473 23.3172 99.241 23.2975 99.3305C22.6468 102.551 22.1588 105.288 21.866 107.414C21.8265 107.91 21.9645 108.405 22.2559 108.811C22.5473 109.217 22.9735 109.509 23.4601 109.636C30.1756 111.648 37.3627 111.502 43.9888 109.217H44.184C52.4796 110.572 60.9534 110.441 69.2023 108.831C69.5989 108.757 69.9577 108.55 70.2184 108.245C70.4791 107.94 70.6258 107.556 70.6337 107.156C70.6403 106.232 70.4527 105.317 70.0831 104.469C69.7135 103.621 69.1698 102.858 68.4865 102.229C66.7924 100.943 64.6985 100.283 62.5654 100.361H62.1425V99.9746C62.1425 94.8541 62.5004 90.732 62.598 89.2184C62.6097 88.9752 62.6738 88.7374 62.786 88.5207C62.8982 88.3041 63.056 88.1137 63.2486 87.9624C66.2746 85.3131 68.1509 81.61 68.4865 77.6249C68.775 74.8455 68.4851 72.037 67.6346 69.3729C66.784 66.7087 65.391 64.2453 63.5414 62.1347C63.4724 62.0663 63.4336 61.9737 63.4336 61.877C63.4336 61.7804 63.4724 61.6877 63.5414 61.6194C63.6105 61.5511 63.7041 61.5127 63.8017 61.5127C63.8993 61.5127 63.9929 61.5511 64.062 61.6194C66.0032 63.8018 67.463 66.3611 68.3481 69.1337C69.2332 71.9063 69.5241 74.8313 69.2023 77.7215C68.928 81.9143 66.986 85.8285 63.8017 88.6065C63.6895 88.6975 63.597 88.81 63.5299 88.9373C63.4628 89.0646 63.4225 89.2041 63.4113 89.3472C63.4113 90.8286 63.1185 94.7575 62.9558 99.717C65.145 99.679 67.2771 100.409 68.9745 101.778C69.7238 102.46 70.3174 103.293 70.7158 104.22C71.1141 105.148 71.3079 106.149 71.2844 107.156C71.2882 107.724 71.0922 108.276 70.7301 108.716C70.368 109.157 69.8624 109.459 69.2999 109.571C60.9961 111.18 52.4691 111.311 44.1189 109.958C40.5464 111.203 36.7796 111.814 32.9924 111.761Z" fill="black"/>
<path d="M23.2324 110.312L23.5241 109.356L23.5112 109.352L23.4982 109.348L23.2324 110.312ZM21.1502 107.317L20.1593 107.183L20.1566 107.203L20.1547 107.223L21.1502 107.317ZM22.6142 99.1695L23.5929 99.3751L23.5985 99.3483L23.6027 99.3213L22.6142 99.1695ZM23.0372 98.9119L22.7287 99.8631L22.759 99.8729L22.7899 99.8808L23.0372 98.9119ZM23.2975 99.3305L22.321 99.115L22.319 99.1237L22.3173 99.1325L23.2975 99.3305ZM21.866 107.414L20.8753 107.277L20.8714 107.306L20.8691 107.335L21.866 107.414ZM23.4601 109.636L23.7472 108.678L23.7298 108.673L23.7122 108.668L23.4601 109.636ZM43.9888 109.217V108.217H43.8212L43.6629 108.272L43.9888 109.217ZM44.184 109.217L44.3451 108.23L44.2651 108.217H44.184V109.217ZM69.2023 108.831L69.0191 107.848L69.0107 107.849L69.2023 108.831ZM70.6337 107.156L71.6336 107.176L71.6337 107.163L70.6337 107.156ZM68.4865 102.229L69.1639 101.493L69.1289 101.461L69.091 101.432L68.4865 102.229ZM62.5654 100.361V101.361H62.5838L62.6021 101.36L62.5654 100.361ZM62.1425 100.361H61.1425V101.361H62.1425V100.361ZM62.598 89.2184L63.5959 89.2828L63.5964 89.2746L63.5968 89.2664L62.598 89.2184ZM63.2486 87.9624L63.8663 88.7489L63.8873 88.7324L63.9074 88.7148L63.2486 87.9624ZM68.4865 77.6249L67.4919 77.5217L67.4909 77.5313L67.4901 77.541L68.4865 77.6249ZM63.5414 62.1347L64.2935 61.4756L64.2701 61.4489L64.2449 61.424L63.5414 62.1347ZM63.4336 61.877L64.4336 61.877L63.4336 61.877ZM63.8017 61.5127V60.5127V61.5127ZM64.062 61.6194L64.8092 60.9548L64.788 60.9311L64.7655 60.9087L64.062 61.6194ZM69.2023 77.7215L68.2084 77.6108L68.2059 77.6335L68.2044 77.6562L69.2023 77.7215ZM63.8017 88.6065L64.4312 89.3835L64.4454 89.372L64.4591 89.3601L63.8017 88.6065ZM63.4113 89.3472L62.4143 89.2696L62.4113 89.3084V89.3472H63.4113ZM62.9558 99.717L61.9564 99.6842L61.9219 100.735L62.9732 100.717L62.9558 99.717ZM68.9745 101.778L69.6478 101.039L69.6256 101.018L69.6023 101L68.9745 101.778ZM71.2844 107.156L70.2847 107.133L70.2843 107.148L70.2844 107.163L71.2844 107.156ZM69.2999 109.571L69.4901 110.553L69.4953 110.552L69.2999 109.571ZM44.1189 109.958L44.2789 108.971L44.0289 108.93L43.7898 109.014L44.1189 109.958ZM32.9914 110.761C29.7822 110.765 26.5908 110.291 23.5241 109.356L22.9407 111.269C26.1973 112.262 29.5861 112.765 32.9935 112.761L32.9914 110.761ZM23.4982 109.348C23.0753 109.232 22.7095 108.972 22.4633 108.618L20.8211 109.76C21.3361 110.5 22.096 111.036 22.9666 111.276L23.4982 109.348ZM22.4633 108.618C22.2172 108.264 22.1054 107.837 22.1458 107.412L20.1547 107.223C20.0695 108.121 20.306 109.019 20.8211 109.76L22.4633 108.618ZM22.1412 107.452C22.4297 105.326 22.9127 102.613 23.5929 99.3751L21.6356 98.9639C20.9494 102.231 20.4564 104.993 20.1593 107.183L22.1412 107.452ZM23.6027 99.3213C23.5875 99.4202 23.5508 99.514 23.4958 99.5962L21.8335 98.484C21.7263 98.6442 21.6552 98.8263 21.6258 99.0177L23.6027 99.3213ZM23.4958 99.5962C23.4407 99.6784 23.3688 99.747 23.2856 99.7977L22.2451 98.0896C22.0814 98.1894 21.9408 98.3237 21.8335 98.484L23.4958 99.5962ZM23.2856 99.7977C23.2024 99.8483 23.1097 99.8801 23.0138 99.8913L22.7817 97.9048C22.5919 97.927 22.4088 97.9899 22.2451 98.0896L23.2856 99.7977ZM23.0138 99.8913C22.918 99.9025 22.8208 99.893 22.7287 99.8631L23.3457 97.9606C23.1638 97.9016 22.9713 97.8827 22.7817 97.9048L23.0138 99.8913ZM22.7899 99.8808C22.6314 99.8404 22.4921 99.7399 22.4034 99.5972L24.1019 98.5413C23.9161 98.2424 23.6223 98.0292 23.2845 97.9429L22.7899 99.8808ZM22.4034 99.5972C22.3144 99.4541 22.2843 99.281 22.321 99.115L24.2739 99.5461C24.3501 99.2009 24.2879 98.8405 24.1019 98.5413L22.4034 99.5972ZM22.3173 99.1325C21.6647 102.362 21.1722 105.123 20.8753 107.277L22.8566 107.55C23.1454 105.454 23.6289 102.739 24.2776 99.5286L22.3173 99.1325ZM20.8691 107.335C20.8109 108.068 21.0148 108.797 21.4434 109.394L23.0684 108.228C22.9143 108.013 22.8422 107.753 22.8628 107.493L20.8691 107.335ZM21.4434 109.394C21.8718 109.991 22.4969 110.418 23.208 110.604L23.7122 108.668C23.4501 108.6 23.2227 108.443 23.0684 108.228L21.4434 109.394ZM23.1731 110.594C30.0891 112.666 37.4906 112.515 44.3147 110.163L43.6629 108.272C37.2348 110.488 30.2621 110.63 23.7472 108.678L23.1731 110.594ZM43.9888 110.217H44.184V108.217H43.9888V110.217ZM44.0229 110.204C52.4354 111.578 61.0286 111.445 69.3938 109.812L69.0107 107.849C60.8782 109.437 52.5238 109.566 44.3451 108.23L44.0229 110.204ZM69.3854 109.814C70.0055 109.698 70.5684 109.375 70.9785 108.895L69.4583 107.595C69.347 107.725 69.1923 107.815 69.0191 107.848L69.3854 109.814ZM70.9785 108.895C71.3889 108.415 71.6209 107.808 71.6335 107.176L69.6339 107.136C69.6306 107.303 69.5693 107.465 69.4583 107.595L70.9785 108.895ZM71.6337 107.163C71.6412 106.099 71.4253 105.046 70.9998 104.07L69.1664 104.869C69.4802 105.589 69.6393 106.365 69.6338 107.149L71.6337 107.163ZM70.9998 104.07C70.5744 103.094 69.9491 102.216 69.1639 101.493L67.8091 102.965C68.3905 103.5 68.8525 104.148 69.1664 104.869L70.9998 104.07ZM69.091 101.432C67.2123 100.007 64.8917 99.2751 62.5288 99.3617L62.6021 101.36C64.5054 101.291 66.3726 101.88 67.882 103.026L69.091 101.432ZM62.5654 99.3611H62.1425V101.361H62.5654V99.3611ZM63.1425 100.361V99.9746H61.1425V100.361H63.1425ZM63.1425 99.9746C63.1425 94.8951 63.4971 90.8152 63.5959 89.2828L61.6 89.1541C61.5036 90.6489 61.1425 94.8132 61.1425 99.9746H63.1425ZM63.5968 89.2664C63.6016 89.1673 63.6277 89.0699 63.6739 88.9807L61.8981 88.0607C61.7198 88.4048 61.6177 88.7832 61.5991 89.1704L63.5968 89.2664ZM63.6739 88.9807C63.7201 88.8915 63.7855 88.8123 63.8663 88.7489L62.631 87.176C62.3264 87.4152 62.0763 87.7167 61.8981 88.0607L63.6739 88.9807ZM63.9074 88.7148C67.127 85.8959 69.1255 81.9537 69.483 77.7088L67.4901 77.541C67.1763 81.2663 65.4222 84.7303 62.5899 87.2101L63.9074 88.7148ZM69.4812 77.7281C69.7839 74.8114 69.4796 71.8642 68.5872 69.0687L66.6819 69.677C67.4905 72.2098 67.7661 74.8796 67.4919 77.5217L69.4812 77.7281ZM68.5872 69.0687C67.6948 66.2733 66.2333 63.6891 64.2935 61.4756L62.7894 62.7937C64.5487 64.8014 65.8733 67.1441 66.6819 69.677L68.5872 69.0687ZM64.2449 61.424C64.3646 61.5424 64.4336 61.7052 64.4336 61.877L62.4336 61.877C62.4336 62.2422 62.5802 62.5903 62.8379 62.8454L64.2449 61.424ZM64.4336 61.877C64.4336 62.0489 64.3646 62.2117 64.2449 62.3301L62.8379 60.9087C62.5802 61.1638 62.4336 61.5119 62.4336 61.877L64.4336 61.877ZM64.2449 62.3301C64.1256 62.4482 63.966 62.5127 63.8017 62.5127V60.5127C63.4421 60.5127 63.0953 60.654 62.8379 60.9087L64.2449 62.3301ZM63.8017 62.5127C63.6374 62.5127 63.4778 62.4482 63.3585 62.3301L64.7655 60.9087C64.5081 60.654 64.1613 60.5127 63.8017 60.5127V62.5127ZM63.3148 62.284C65.1634 64.3623 66.5531 66.7989 67.3955 69.4378L69.3008 68.8296C68.373 65.9233 66.843 63.2412 64.8092 60.9548L63.3148 62.284ZM67.3955 69.4378C68.2379 72.0767 68.5147 74.8603 68.2084 77.6108L70.1961 77.8322C70.5336 74.8022 70.2286 71.7359 69.3008 68.8296L67.3955 69.4378ZM68.2044 77.6562C67.9476 81.5817 66.1293 85.2488 63.1443 87.853L64.4591 89.3601C67.8427 86.4082 69.9084 82.2468 70.2001 77.7868L68.2044 77.6562ZM63.1722 87.8296C62.9551 88.0054 62.7757 88.2235 62.6452 88.471L64.4145 89.4036C64.4183 89.3965 64.4238 89.3895 64.4312 89.3835L63.1722 87.8296ZM62.6452 88.471C62.5148 88.7186 62.4361 88.9903 62.4143 89.2696L64.4083 89.4249C64.4088 89.4178 64.4108 89.4106 64.4145 89.4036L62.6452 88.471ZM62.4113 89.3472C62.4113 90.0541 62.3404 91.3696 62.2459 93.1756C62.1524 94.9636 62.038 97.194 61.9564 99.6842L63.9553 99.7498C64.0363 97.2805 64.1497 95.0667 64.2432 93.2801C64.3358 91.5114 64.4113 90.1217 64.4113 89.3472H62.4113ZM62.9732 100.717C64.929 100.683 66.8326 101.335 68.3468 102.556L69.6023 101C67.7216 99.4829 65.3609 98.6751 62.9385 98.7171L62.9732 100.717ZM68.3013 102.517C68.9455 103.104 69.4551 103.819 69.7969 104.615L71.6346 103.826C71.1797 102.767 70.5022 101.817 69.6478 101.039L68.3013 102.517ZM69.7969 104.615C70.1387 105.411 70.3049 106.269 70.2847 107.133L72.2841 107.18C72.311 106.028 72.0895 104.885 71.6346 103.826L69.7969 104.615ZM70.2844 107.163C70.2866 107.496 70.1718 107.821 69.9575 108.082L71.5028 109.351C72.0126 108.731 72.2897 107.952 72.2844 107.15L70.2844 107.163ZM69.9575 108.082C69.743 108.343 69.4418 108.524 69.1044 108.591L69.4953 110.552C70.283 110.395 70.9931 109.972 71.5028 109.351L69.9575 108.082ZM69.1097 108.59C60.9214 110.176 52.513 110.305 44.2789 108.971L43.959 110.945C52.4253 112.317 61.0707 112.184 69.49 110.553L69.1097 108.59ZM43.7898 109.014C40.3276 110.221 36.6769 110.812 33.0063 110.761L32.9786 112.761C36.8824 112.815 40.7652 112.186 44.4481 110.902L43.7898 109.014Z" fill="black" mask="url(#path-13-inside-2_402:2785)"/>
<mask id="path-15-inside-3_402:2785" fill="white">
<path d="M44.1835 109.892C44.1355 109.881 44.0904 109.86 44.0509 109.831C44.0114 109.802 43.9784 109.765 43.954 109.723C43.9296 109.681 43.9142 109.634 43.9089 109.585C43.9036 109.537 43.9085 109.488 43.9232 109.441C44.2233 108.659 44.3468 107.821 44.285 106.987C44.2232 106.152 43.9775 105.341 43.5653 104.611C42.6389 103.656 41.5276 102.896 40.2979 102.376C39.0682 101.856 37.7452 101.586 36.4079 101.583C31.838 101.298 27.2911 102.423 23.3945 104.804C23.3283 104.865 23.2411 104.899 23.1505 104.899C23.06 104.899 22.9728 104.865 22.9065 104.804C22.8719 104.774 22.8442 104.737 22.8252 104.695C22.8062 104.653 22.7964 104.608 22.7964 104.562C22.7964 104.517 22.8062 104.472 22.8252 104.43C22.8442 104.388 22.8719 104.351 22.9065 104.321C26.9308 101.902 31.6135 100.777 36.3103 101.1C37.7409 101.081 39.1599 101.357 40.4763 101.912C41.7928 102.467 42.9779 103.287 43.9557 104.321C44.4249 105.135 44.7088 106.042 44.7875 106.976C44.8661 107.911 44.7377 108.851 44.4112 109.731C44.3877 109.773 44.3551 109.809 44.3157 109.837C44.2763 109.865 44.2311 109.884 44.1835 109.892Z"/>
</mask>
<path d="M44.1835 109.892C44.1355 109.881 44.0904 109.86 44.0509 109.831C44.0114 109.802 43.9784 109.765 43.954 109.723C43.9296 109.681 43.9142 109.634 43.9089 109.585C43.9036 109.537 43.9085 109.488 43.9232 109.441C44.2233 108.659 44.3468 107.821 44.285 106.987C44.2232 106.152 43.9775 105.341 43.5653 104.611C42.6389 103.656 41.5276 102.896 40.2979 102.376C39.0682 101.856 37.7452 101.586 36.4079 101.583C31.838 101.298 27.2911 102.423 23.3945 104.804C23.3283 104.865 23.2411 104.899 23.1505 104.899C23.06 104.899 22.9728 104.865 22.9065 104.804C22.8719 104.774 22.8442 104.737 22.8252 104.695C22.8062 104.653 22.7964 104.608 22.7964 104.562C22.7964 104.517 22.8062 104.472 22.8252 104.43C22.8442 104.388 22.8719 104.351 22.9065 104.321C26.9308 101.902 31.6135 100.777 36.3103 101.1C37.7409 101.081 39.1599 101.357 40.4763 101.912C41.7928 102.467 42.9779 103.287 43.9557 104.321C44.4249 105.135 44.7088 106.042 44.7875 106.976C44.8661 107.911 44.7377 108.851 44.4112 109.731C44.3877 109.773 44.3551 109.809 44.3157 109.837C44.2763 109.865 44.2311 109.884 44.1835 109.892Z" fill="black"/>
<path d="M43.9232 109.441L42.9896 109.083L42.9788 109.111L42.9698 109.14L43.9232 109.441ZM43.5653 104.611L44.4362 104.119L44.3728 104.007L44.2829 103.914L43.5653 104.611ZM36.4079 101.583L36.3456 102.582L36.3757 102.583L36.4058 102.583L36.4079 101.583ZM23.3945 104.804L22.8732 103.951L22.789 104.002L22.7164 104.069L23.3945 104.804ZM22.9065 104.804L23.5846 104.069L23.5745 104.06L23.5642 104.051L22.9065 104.804ZM22.9065 104.321L22.3913 103.464L22.3155 103.509L22.2489 103.568L22.9065 104.321ZM36.3103 101.1L36.2416 102.098L36.2827 102.101L36.3239 102.1L36.3103 101.1ZM43.9557 104.321L44.8223 103.822L44.7633 103.719L44.6822 103.634L43.9557 104.321ZM44.4112 109.731L45.2838 110.22L45.3218 110.152L45.3488 110.079L44.4112 109.731ZM44.4083 108.918C44.4932 108.937 44.5736 108.974 44.6444 109.026L43.4573 110.636C43.6071 110.747 43.7778 110.825 43.9586 110.867L44.4083 108.918ZM44.6444 109.026C44.7153 109.079 44.7753 109.145 44.82 109.223L43.0879 110.223C43.1816 110.385 43.3075 110.526 43.4573 110.636L44.6444 109.026ZM44.82 109.223C44.8648 109.3 44.8932 109.387 44.903 109.477L42.9148 109.694C42.9353 109.881 42.9944 110.061 43.0879 110.223L44.82 109.223ZM44.903 109.477C44.9128 109.566 44.9038 109.657 44.8766 109.743L42.9698 109.14C42.9132 109.319 42.8944 109.507 42.9148 109.694L44.903 109.477ZM44.8568 109.8C45.2097 108.88 45.355 107.895 45.2823 106.913L43.2877 107.061C43.3387 107.748 43.237 108.438 42.9896 109.083L44.8568 109.8ZM45.2823 106.913C45.2095 105.931 44.9206 104.978 44.4362 104.119L42.6944 105.102C43.0345 105.705 43.2368 106.373 43.2877 107.061L45.2823 106.913ZM44.2829 103.914C43.2629 102.863 42.0399 102.027 40.6874 101.455L39.9084 103.297C41.0153 103.765 42.0148 104.449 42.8477 105.307L44.2829 103.914ZM40.6874 101.455C39.3349 100.883 37.8802 100.587 36.4101 100.583L36.4058 102.583C37.6102 102.586 38.8014 102.829 39.9084 103.297L40.6874 101.455ZM36.4703 100.585C31.6961 100.287 26.9454 101.462 22.8732 103.951L23.9159 105.657C27.6368 103.384 31.9798 102.309 36.3456 102.582L36.4703 100.585ZM22.7164 104.069C22.8359 103.959 22.9911 103.899 23.1505 103.899V105.899C23.4911 105.899 23.8207 105.771 24.0726 105.539L22.7164 104.069ZM23.1505 103.899C23.31 103.899 23.4652 103.959 23.5846 104.069L22.2284 105.539C22.4803 105.771 22.81 105.899 23.1505 105.899V103.899ZM23.5642 104.051C23.6363 104.114 23.6948 104.192 23.7351 104.28L21.9153 105.11C21.9936 105.281 22.1075 105.434 22.2489 105.557L23.5642 104.051ZM23.7351 104.28C23.7753 104.368 23.7964 104.465 23.7964 104.562H21.7964C21.7964 104.752 21.8371 104.938 21.9153 105.11L23.7351 104.28ZM23.7964 104.562C23.7964 104.66 23.7754 104.756 23.7351 104.845L21.9153 104.015C21.8371 104.187 21.7964 104.373 21.7964 104.562H23.7964ZM23.7351 104.845C23.6948 104.933 23.6363 105.011 23.5642 105.074L22.2489 103.568C22.1075 103.691 21.9936 103.843 21.9153 104.015L23.7351 104.845ZM23.4218 105.178C27.2698 102.865 31.7486 101.788 36.2416 102.098L36.3791 100.103C31.4784 99.7649 26.5917 100.939 22.3913 103.464L23.4218 105.178ZM36.3239 102.1C37.6168 102.083 38.899 102.333 40.0882 102.834L40.8645 100.99C39.4208 100.382 37.8651 100.079 36.2968 100.101L36.3239 102.1ZM40.0882 102.834C41.2773 103.334 42.347 104.075 43.2292 105.008L44.6822 103.634C43.6087 102.499 42.3083 101.599 40.8645 100.99L40.0882 102.834ZM43.0892 104.82C43.4853 105.508 43.7247 106.272 43.791 107.06L45.7839 106.892C45.6929 105.811 45.3645 104.763 44.8223 103.822L43.0892 104.82ZM43.791 107.06C43.8573 107.848 43.7491 108.641 43.4736 109.383L45.3488 110.079C45.7264 109.061 45.875 107.973 45.7839 106.892L43.791 107.06ZM43.5386 109.243C43.5882 109.154 43.6567 109.078 43.7384 109.021L44.893 110.654C45.0535 110.54 45.1872 110.392 45.2838 110.22L43.5386 109.243ZM43.7384 109.021C43.82 108.963 43.913 108.924 44.0105 108.907L44.3565 110.877C44.5493 110.843 44.7326 110.767 44.893 110.654L43.7384 109.021Z" fill="black" mask="url(#path-15-inside-3_402:2785)"/>
<path d="M62.5276 100.157L62.5327 100.145V100.145L62.5276 100.157ZM62.5276 100.157L62.5327 100.162M62.5276 100.157L62.5327 100.162M62.5276 100.157L62.5327 100.162M62.5276 100.157L62.5327 100.162" fill="black" stroke="black"/>
<path d="M46.6994 90.7276L46.6983 90.7294L46.6994 90.7276ZM46.6994 90.7276L46.6994 90.7276L46.6994 90.7276Z" fill="black" stroke="black"/>
<mask id="path-19-inside-4_402:2785" fill="white">
<path d="M74.1143 82.2289C72.157 82.2219 70.2288 81.7586 68.486 80.8764C68.4091 80.8247 68.3514 80.7495 68.322 80.6621C68.2926 80.5748 68.2931 80.4803 68.3234 80.3933C68.3441 80.3505 68.3734 80.3122 68.4094 80.2808C68.4454 80.2494 68.4874 80.2254 68.5329 80.2104C68.5784 80.1954 68.6266 80.1896 68.6744 80.1933C68.7222 80.1971 68.7688 80.2103 68.8114 80.2323C71.1143 81.3627 73.7209 81.738 76.2537 81.3037C78.7865 80.8695 81.1138 79.6482 82.8984 77.817C88.7544 72.5355 91.5198 63.2929 89.0798 57.2063C87.7784 53.9858 84.1672 52.3756 79.3197 52.7943C77.1815 52.9674 75.1805 53.9063 73.6914 55.435C73.2596 56.046 72.9688 56.7435 72.8395 57.4781C72.7102 58.2127 72.7456 58.9664 72.9431 59.686C72.9525 59.7326 72.9523 59.7806 72.9426 59.8271C72.9328 59.8736 72.9137 59.9177 72.8864 59.9568C72.8591 59.9958 72.8241 60.029 72.7835 60.0544C72.743 60.0799 72.6977 60.0969 72.6503 60.1047C72.5599 60.1242 72.4653 60.1083 72.3864 60.0603C72.3075 60.0122 72.2505 59.9358 72.2274 59.847C72.0057 59.0255 71.9724 58.1654 72.13 57.3295C72.2876 56.4937 72.6321 55.7033 73.1383 55.0164C74.7405 53.324 76.9198 52.2798 79.2546 52.0858C84.46 51.6349 88.3315 53.4384 89.7304 56.9164C92.3331 63.3573 89.5352 72.7931 83.3864 78.3322C80.8989 80.7363 77.5894 82.1272 74.1143 82.2289Z"/>
</mask>
<path d="M74.1143 82.2289C72.157 82.2219 70.2288 81.7586 68.486 80.8764C68.4091 80.8247 68.3514 80.7495 68.322 80.6621C68.2926 80.5748 68.2931 80.4803 68.3234 80.3933C68.3441 80.3505 68.3734 80.3122 68.4094 80.2808C68.4454 80.2494 68.4874 80.2254 68.5329 80.2104C68.5784 80.1954 68.6266 80.1896 68.6744 80.1933C68.7222 80.1971 68.7688 80.2103 68.8114 80.2323C71.1143 81.3627 73.7209 81.738 76.2537 81.3037C78.7865 80.8695 81.1138 79.6482 82.8984 77.817C88.7544 72.5355 91.5198 63.2929 89.0798 57.2063C87.7784 53.9858 84.1672 52.3756 79.3197 52.7943C77.1815 52.9674 75.1805 53.9063 73.6914 55.435C73.2596 56.046 72.9688 56.7435 72.8395 57.4781C72.7102 58.2127 72.7456 58.9664 72.9431 59.686C72.9525 59.7326 72.9523 59.7806 72.9426 59.8271C72.9328 59.8736 72.9137 59.9177 72.8864 59.9568C72.8591 59.9958 72.8241 60.029 72.7835 60.0544C72.743 60.0799 72.6977 60.0969 72.6503 60.1047C72.5599 60.1242 72.4653 60.1083 72.3864 60.0603C72.3075 60.0122 72.2505 59.9358 72.2274 59.847C72.0057 59.0255 71.9724 58.1654 72.13 57.3295C72.2876 56.4937 72.6321 55.7033 73.1383 55.0164C74.7405 53.324 76.9198 52.2798 79.2546 52.0858C84.46 51.6349 88.3315 53.4384 89.7304 56.9164C92.3331 63.3573 89.5352 72.7931 83.3864 78.3322C80.8989 80.7363 77.5894 82.1272 74.1143 82.2289Z" fill="black"/>
<path d="M68.486 80.8764L67.9292 81.707L67.9799 81.741L68.0344 81.7686L68.486 80.8764ZM68.3234 80.3933L67.4234 79.9574L67.3981 80.0096L67.379 80.0644L68.3234 80.3933ZM68.8114 80.2323L68.3531 81.1211L68.3619 81.1256L68.3707 81.13L68.8114 80.2323ZM82.8984 77.817L82.2287 77.0744L82.2047 77.096L82.1822 77.119L82.8984 77.817ZM89.0798 57.2063L90.008 56.8342L90.0069 56.8316L89.0798 57.2063ZM79.3197 52.7943L79.4004 53.791L79.4058 53.7906L79.3197 52.7943ZM73.6914 55.435L72.9751 54.7373L72.9202 54.7937L72.8747 54.8579L73.6914 55.435ZM72.9431 59.686L73.9235 59.4889L73.9167 59.4548L73.9075 59.4212L72.9431 59.686ZM72.6503 60.1047L72.4893 59.1177L72.464 59.1218L72.4389 59.1273L72.6503 60.1047ZM72.2274 59.847L73.1952 59.5949L73.1928 59.5864L72.2274 59.847ZM73.1383 55.0164L72.4121 54.3289L72.3698 54.3736L72.3333 54.4232L73.1383 55.0164ZM79.2546 52.0858L79.3374 53.0824L79.3409 53.0821L79.2546 52.0858ZM89.7304 56.9164L88.8027 57.2896L88.8033 57.2911L89.7304 56.9164ZM83.3864 78.3322L82.7171 77.5893L82.7041 77.601L82.6915 77.6132L83.3864 78.3322ZM74.1179 81.2289C72.3159 81.2225 70.5412 80.7959 68.9377 79.9842L68.0344 81.7686C69.9164 82.7212 71.998 83.2214 74.1108 83.2289L74.1179 81.2289ZM69.0429 80.0458C69.1478 80.1161 69.2283 80.22 69.2697 80.343L67.3743 80.9813C67.4745 81.2789 67.6703 81.5334 67.9292 81.707L69.0429 80.0458ZM69.2697 80.343C69.3112 80.4661 69.3104 80.5996 69.2678 80.7222L67.379 80.0644C67.2757 80.3611 67.274 80.6835 67.3743 80.9813L69.2697 80.343ZM69.2234 80.8293C69.1853 80.9079 69.1319 80.9775 69.067 81.0341L67.7517 79.5274C67.6149 79.6469 67.503 79.793 67.4234 79.9574L69.2234 80.8293ZM69.067 81.0341C69.0021 81.0907 68.927 81.1334 68.8462 81.16L68.2196 79.2608C68.0477 79.3175 67.8886 79.408 67.7517 79.5274L69.067 81.0341ZM68.8462 81.16C68.7656 81.1867 68.6805 81.1969 68.5961 81.1903L68.7527 79.1964C68.5726 79.1822 68.3913 79.2041 68.2196 79.2608L68.8462 81.16ZM68.5961 81.1903C68.5115 81.1836 68.429 81.1602 68.3531 81.1211L69.2696 79.3435C69.1087 79.2605 68.9329 79.2106 68.7527 79.1964L68.5961 81.1903ZM68.3707 81.13C70.8629 82.3533 73.6829 82.7591 76.4227 82.2893L76.0847 80.3181C73.759 80.7169 71.3657 80.3721 69.252 79.3346L68.3707 81.13ZM76.4227 82.2893C79.1625 81.8196 81.6817 80.4983 83.6146 78.5149L82.1822 77.119C80.5458 78.7982 78.4104 79.9194 76.0847 80.3181L76.4227 82.2893ZM83.5681 78.5596C86.6463 75.7834 88.8929 71.9883 90.058 68.1006C91.2199 64.2235 91.3362 60.1475 90.008 56.8342L88.1516 57.5784C89.2633 60.3516 89.217 63.9402 88.1422 67.5265C87.0706 71.102 85.0065 74.569 82.2287 77.0744L83.5681 78.5596ZM90.0069 56.8316C88.4691 53.0258 84.2913 51.3612 79.2337 51.798L79.4058 53.7906C84.0431 53.3901 87.0878 54.9459 88.1526 57.5809L90.0069 56.8316ZM79.239 51.7976C76.8611 51.9901 74.6338 53.0343 72.9751 54.7373L74.4078 56.1328C75.7271 54.7783 77.5019 53.9447 79.4004 53.791L79.239 51.7976ZM72.8747 54.8579C72.3581 55.5891 72.0096 56.4244 71.8547 57.3048L73.8244 57.6515C73.928 57.0627 74.1612 56.503 74.5081 56.0121L72.8747 54.8579ZM71.8547 57.3048C71.6997 58.1852 71.7421 59.0885 71.9788 59.9507L73.9075 59.4212C73.7491 58.8443 73.7207 58.2402 73.8244 57.6515L71.8547 57.3048ZM71.9627 59.883C71.9454 59.7968 71.9458 59.7079 71.9638 59.6219L73.9213 60.0322C73.9588 59.8532 73.9596 59.6684 73.9235 59.4889L71.9627 59.883ZM71.9638 59.6219C71.9818 59.536 72.017 59.4549 72.0669 59.3836L73.7059 60.5299C73.8104 60.3805 73.8838 60.2112 73.9213 60.0322L71.9638 59.6219ZM72.0669 59.3836C72.1168 59.3124 72.1801 59.2525 72.2526 59.207L73.3145 60.9019C73.4681 60.8056 73.6014 60.6793 73.7059 60.5299L72.0669 59.3836ZM72.2526 59.207C72.3251 59.1616 72.4056 59.1314 72.4893 59.1177L72.8113 61.0916C72.9898 61.0625 73.1609 60.9981 73.3145 60.9019L72.2526 59.207ZM72.4389 59.1273C72.5985 59.0927 72.7659 59.1205 72.9066 59.2062L71.8661 60.9143C72.1646 61.0961 72.5212 61.1557 72.8618 61.082L72.4389 59.1273ZM72.9066 59.2062C73.0477 59.2922 73.1523 59.4307 73.1951 59.5949L71.2597 60.0991C71.3487 60.4409 71.5673 60.7323 71.8661 60.9143L72.9066 59.2062ZM73.1928 59.5864C73.0103 58.9103 72.983 58.2026 73.1127 57.5149L71.1473 57.1442C70.9618 58.1282 71.001 59.1408 71.262 60.1076L73.1928 59.5864ZM73.1127 57.5149C73.2424 56.8271 73.526 56.176 73.9434 55.6096L72.3333 54.4232C71.7383 55.2306 71.3329 56.1603 71.1473 57.1442L73.1127 57.5149ZM73.8645 55.7039C75.2966 54.1912 77.2463 53.2561 79.3374 53.0824L79.1719 51.0892C76.5932 51.3035 74.1844 52.4568 72.4121 54.3289L73.8645 55.7039ZM79.3409 53.0821C84.3179 52.651 87.6349 54.3863 88.8027 57.2896L90.6582 56.5433C89.0281 52.4905 84.6021 50.6189 79.1684 51.0895L79.3409 53.0821ZM88.8033 57.2911C89.9981 60.2479 89.9787 63.9756 88.8814 67.6784C87.7867 71.3728 85.6436 74.9529 82.7171 77.5893L84.0557 79.0752C87.278 76.1724 89.6083 72.265 90.799 68.2466C91.9873 64.2365 92.0654 60.0258 90.6576 56.5418L88.8033 57.2911ZM82.6915 77.6132C80.3841 79.8431 77.3124 81.1349 74.0851 81.2294L74.1436 83.2285C77.8664 83.1195 81.4136 81.6295 84.0813 79.0513L82.6915 77.6132Z" fill="black" mask="url(#path-19-inside-4_402:2785)"/>
<path d="M72.0655 69.6424L72.0767 69.6375L72.0655 69.6424ZM72.0655 69.6424L71.8377 69.7416L72.0655 69.6424ZM75.1386 62.0495L75.1374 62.0519L75.1386 62.0495Z" fill="black" stroke="black"/>
<mask id="path-22-inside-5_402:2785" fill="white">
<path d="M70.4054 61.5219C70.3439 61.5174 70.2847 61.4972 70.2334 61.4633C70.1821 61.4295 70.1405 61.3831 70.1126 61.3287C68.4765 58.8476 66.2398 56.8106 63.6059 55.4031C63.5598 55.3856 63.5179 55.3589 63.4827 55.3246C63.4475 55.2903 63.4199 55.2492 63.4016 55.2038C63.3832 55.1584 63.3746 55.1098 63.3762 55.061C63.3777 55.0121 63.3895 54.9641 63.4107 54.92C63.4468 54.8359 63.5143 54.7688 63.5992 54.7327C63.6841 54.6967 63.7797 54.6946 63.8662 54.7268C66.6495 56.1915 69.003 58.3437 70.6982 60.9744C70.7328 61.0046 70.7606 61.0418 70.7796 61.0834C70.7985 61.1251 70.8084 61.1702 70.8084 61.2159C70.8084 61.2616 70.7985 61.3068 70.7796 61.3484C70.7606 61.3901 70.7328 61.4272 70.6982 61.4575C70.6621 61.4968 70.6146 61.5241 70.5621 61.5356C70.5097 61.5472 70.455 61.5423 70.4054 61.5219Z"/>
</mask>
<path d="M70.4054 61.5219C70.3439 61.5174 70.2847 61.4972 70.2334 61.4633C70.1821 61.4295 70.1405 61.3831 70.1126 61.3287C68.4765 58.8476 66.2398 56.8106 63.6059 55.4031C63.5598 55.3856 63.5179 55.3589 63.4827 55.3246C63.4475 55.2903 63.4199 55.2492 63.4016 55.2038C63.3832 55.1584 63.3746 55.1098 63.3762 55.061C63.3777 55.0121 63.3895 54.9641 63.4107 54.92C63.4468 54.8359 63.5143 54.7688 63.5992 54.7327C63.6841 54.6967 63.7797 54.6946 63.8662 54.7268C66.6495 56.1915 69.003 58.3437 70.6982 60.9744C70.7328 61.0046 70.7606 61.0418 70.7796 61.0834C70.7985 61.1251 70.8084 61.1702 70.8084 61.2159C70.8084 61.2616 70.7985 61.3068 70.7796 61.3484C70.7606 61.3901 70.7328 61.4272 70.6982 61.4575C70.6621 61.4968 70.6146 61.5241 70.5621 61.5356C70.5097 61.5472 70.455 61.5423 70.4054 61.5219Z" fill="black"/>
<path d="M70.4054 61.5219L70.7873 60.5977L70.6388 60.5363L70.4786 60.5246L70.4054 61.5219ZM70.1126 61.3287L71.0029 60.8732L70.9778 60.8241L70.9474 60.7781L70.1126 61.3287ZM63.6059 55.4031L64.0772 54.5211L64.0205 54.4908L63.9603 54.468L63.6059 55.4031ZM63.4107 54.92L64.312 55.3533L64.3213 55.3338L64.3299 55.3139L63.4107 54.92ZM63.8662 54.7268L64.3319 53.8418L64.2752 53.812L64.2152 53.7897L63.8662 54.7268ZM70.6982 60.9744L69.8576 61.5161L69.9342 61.6348L70.0406 61.7277L70.6982 60.9744ZM70.8084 61.2159H69.8084H70.8084ZM70.6982 61.4575L70.0406 60.7041L69.9991 60.7403L69.9618 60.7809L70.6982 61.4575ZM70.4786 60.5246C70.587 60.5325 70.6923 60.5681 70.7842 60.6287L69.6826 62.298C69.877 62.4263 70.1008 62.5022 70.3322 62.5192L70.4786 60.5246ZM70.7842 60.6287C70.8761 60.6894 70.9518 60.7733 71.0029 60.8732L69.2224 61.7841C69.3292 61.9929 69.4881 62.1696 69.6826 62.298L70.7842 60.6287ZM70.9474 60.7781C69.2192 58.1573 66.8572 56.0068 64.0772 54.5211L63.1346 56.285C65.6223 57.6145 67.7338 59.5378 69.2778 61.8792L70.9474 60.7781ZM63.9603 54.468C64.0421 54.499 64.1173 54.5467 64.1809 54.6087L62.7845 56.0405C62.9184 56.1711 63.0775 56.2722 63.2516 56.3382L63.9603 54.468ZM64.1809 54.6087C64.2444 54.6707 64.295 54.7456 64.3287 54.8292L62.4744 55.5785C62.5448 55.7527 62.6506 55.9099 62.7845 56.0405L64.1809 54.6087ZM64.3287 54.8292C64.3625 54.9127 64.3786 55.0026 64.3756 55.0931L62.3767 55.0288C62.3706 55.217 62.404 55.4042 62.4744 55.5785L64.3287 54.8292ZM64.3756 55.0931C64.3727 55.1837 64.3509 55.2723 64.312 55.3533L62.5095 54.4867C62.4281 54.656 62.3827 54.8405 62.3767 55.0288L64.3756 55.0931ZM64.3299 55.3139C64.2635 55.4688 64.1406 55.5893 63.9897 55.6533L63.2086 53.8122C62.888 53.9482 62.63 54.2029 62.4915 54.5261L64.3299 55.3139ZM63.9897 55.6533C63.8392 55.7172 63.6702 55.7209 63.5172 55.6639L64.2152 53.7897C63.8893 53.6683 63.529 53.6763 63.2086 53.8122L63.9897 55.6533ZM63.4005 55.6117C66.0322 56.9967 68.2562 59.0309 69.8576 61.5161L71.5388 60.4327C69.7498 57.6565 67.2669 55.3864 64.3319 53.8418L63.4005 55.6117ZM70.0406 61.7277C69.9684 61.6647 69.91 61.5867 69.8697 61.4984L71.6894 60.6685C71.6112 60.4969 71.4973 60.3445 71.3559 60.2211L70.0406 61.7277ZM69.8697 61.4984C69.8294 61.41 69.8084 61.3137 69.8084 61.2159H71.8084C71.8084 61.0268 71.7677 60.8402 71.6894 60.6685L69.8697 61.4984ZM69.8084 61.2159C69.8084 61.1182 69.8294 61.0219 69.8697 60.9335L71.6894 61.7634C71.7677 61.5917 71.8084 61.405 71.8084 61.2159H69.8084ZM69.8697 60.9335C69.91 60.8452 69.9685 60.7671 70.0406 60.7041L71.3559 62.2108C71.4972 62.0874 71.6111 61.935 71.6894 61.7634L69.8697 60.9335ZM69.9618 60.7809C70.0654 60.6682 70.2003 60.5913 70.3473 60.559L70.777 62.5123C71.0288 62.4569 71.2588 62.3254 71.4346 62.134L69.9618 60.7809ZM70.3473 60.559C70.4943 60.5266 70.6478 60.54 70.7873 60.5977L70.0235 62.4461C70.2622 62.5447 70.5252 62.5677 70.777 62.5123L70.3473 60.559Z" fill="black" mask="url(#path-22-inside-5_402:2785)"/>
<mask id="path-24-inside-6_402:2785" fill="white">
<path d="M42.915 59.9764C38.8888 59.9796 34.8742 59.5477 30.9427 58.6882C27.2901 57.8718 23.7584 56.5947 20.4344 54.8881C14.2391 51.9225 9.42143 46.7274 6.96547 40.364C6.95028 40.3261 6.94335 40.2854 6.94513 40.2447C6.9469 40.204 6.95735 40.164 6.97577 40.1276C6.99419 40.0911 7.02018 40.0589 7.05205 40.033C7.08391 40.0072 7.12092 39.9883 7.16067 39.9776C7.19896 39.9625 7.24003 39.9557 7.28119 39.9574C7.32235 39.9592 7.36267 39.9695 7.39952 39.9878C7.43636 40.006 7.46891 40.0317 7.49502 40.0633C7.52114 40.0948 7.54024 40.1314 7.55107 40.1708C9.96908 46.3692 14.6801 51.4241 20.7272 54.3084C24.0023 56.0074 27.4928 57.2638 31.1054 58.0441C34.9793 58.9183 38.9417 59.3505 42.915 59.3323C47.5244 59.3721 52.1155 58.7539 56.5466 57.4966C60.4593 56.4054 64.1329 54.6035 67.3802 52.183C70.4942 49.8633 73.0042 46.8416 74.7017 43.369C76.3992 39.8964 77.2352 36.073 77.1403 32.2163C77.1511 28.0358 76.2057 23.9071 74.375 20.1398C72.5501 16.3704 69.9713 13.0069 66.7946 10.2531C63.4794 7.33594 59.6385 5.06345 55.473 3.5546C47.1919 0.527947 38.1313 0.301461 29.7064 2.91051C26.0493 4.05253 22.5925 5.74715 19.4583 7.93437C16.4729 10.042 13.8571 12.6204 11.7154 15.5668C9.60208 18.478 8.0573 21.7547 7.16067 25.228C7.13172 25.3043 7.07708 25.3684 7.00597 25.4095C6.93485 25.4505 6.8516 25.4661 6.77026 25.4535C6.72762 25.4466 6.68704 25.4305 6.65143 25.4063C6.61582 25.3821 6.58607 25.3503 6.5643 25.3134C6.54253 25.2765 6.52929 25.2352 6.52553 25.1926C6.52176 25.15 6.52757 25.1071 6.54253 25.067C7.48451 21.5925 9.06128 18.3181 11.1948 15.4057C13.3919 12.4152 16.0613 9.79454 19.1005 7.64453C22.2516 5.35588 25.7414 3.56345 29.4461 2.33084C33.3788 1.08394 37.4843 0.453704 41.6137 0.462992C46.3998 0.453543 51.1489 1.2934 55.6356 2.94272C59.8703 4.49481 63.784 6.79742 67.185 9.7378C70.4323 12.5566 73.0856 15.982 74.9931 19.8177C76.8471 23.6825 77.8137 27.9057 77.8235 32.1841C77.9248 36.1384 77.0714 40.0596 75.3343 43.6219C73.5972 47.1841 71.0265 50.2847 67.8357 52.666C64.5304 55.1313 60.7904 56.966 56.8068 58.0763C52.2913 59.3614 47.6134 60.0012 42.915 59.9764Z"/>
</mask>
<path d="M42.915 59.9764C38.8888 59.9796 34.8742 59.5477 30.9427 58.6882C27.2901 57.8718 23.7584 56.5947 20.4344 54.8881C14.2391 51.9225 9.42143 46.7274 6.96547 40.364C6.95028 40.3261 6.94335 40.2854 6.94513 40.2447C6.9469 40.204 6.95735 40.164 6.97577 40.1276C6.99419 40.0911 7.02018 40.0589 7.05205 40.033C7.08391 40.0072 7.12092 39.9883 7.16067 39.9776C7.19896 39.9625 7.24003 39.9557 7.28119 39.9574C7.32235 39.9592 7.36267 39.9695 7.39952 39.9878C7.43636 40.006 7.46891 40.0317 7.49502 40.0633C7.52114 40.0948 7.54024 40.1314 7.55107 40.1708C9.96908 46.3692 14.6801 51.4241 20.7272 54.3084C24.0023 56.0074 27.4928 57.2638 31.1054 58.0441C34.9793 58.9183 38.9417 59.3505 42.915 59.3323C47.5244 59.3721 52.1155 58.7539 56.5466 57.4966C60.4593 56.4054 64.1329 54.6035 67.3802 52.183C70.4942 49.8633 73.0042 46.8416 74.7017 43.369C76.3992 39.8964 77.2352 36.073 77.1403 32.2163C77.1511 28.0358 76.2057 23.9071 74.375 20.1398C72.5501 16.3704 69.9713 13.0069 66.7946 10.2531C63.4794 7.33594 59.6385 5.06345 55.473 3.5546C47.1919 0.527947 38.1313 0.301461 29.7064 2.91051C26.0493 4.05253 22.5925 5.74715 19.4583 7.93437C16.4729 10.042 13.8571 12.6204 11.7154 15.5668C9.60208 18.478 8.0573 21.7547 7.16067 25.228C7.13172 25.3043 7.07708 25.3684 7.00597 25.4095C6.93485 25.4505 6.8516 25.4661 6.77026 25.4535C6.72762 25.4466 6.68704 25.4305 6.65143 25.4063C6.61582 25.3821 6.58607 25.3503 6.5643 25.3134C6.54253 25.2765 6.52929 25.2352 6.52553 25.1926C6.52176 25.15 6.52757 25.1071 6.54253 25.067C7.48451 21.5925 9.06128 18.3181 11.1948 15.4057C13.3919 12.4152 16.0613 9.79454 19.1005 7.64453C22.2516 5.35588 25.7414 3.56345 29.4461 2.33084C33.3788 1.08394 37.4843 0.453704 41.6137 0.462992C46.3998 0.453543 51.1489 1.2934 55.6356 2.94272C59.8703 4.49481 63.784 6.79742 67.185 9.7378C70.4323 12.5566 73.0856 15.982 74.9931 19.8177C76.8471 23.6825 77.8137 27.9057 77.8235 32.1841C77.9248 36.1384 77.0714 40.0596 75.3343 43.6219C73.5972 47.1841 71.0265 50.2847 67.8357 52.666C64.5304 55.1313 60.7904 56.966 56.8068 58.0763C52.2913 59.3614 47.6134 60.0012 42.915 59.9764Z" fill="black"/>
<path d="M30.9427 58.6882L30.7245 59.6641L30.7291 59.6651L30.9427 58.6882ZM20.4344 54.8881L20.8911 53.9985L20.8787 53.9921L20.8661 53.9861L20.4344 54.8881ZM6.96547 40.364L7.89847 40.0039L7.89379 39.9922L6.96547 40.364ZM7.16067 39.9776L7.42114 40.943L7.4745 40.9286L7.52596 40.9084L7.16067 39.9776ZM7.55107 40.1708L6.58695 40.4362L6.60067 40.4861L6.61945 40.5342L7.55107 40.1708ZM20.7272 54.3084L21.1876 53.4208L21.1728 53.4131L21.1577 53.4058L20.7272 54.3084ZM31.1054 58.0441L31.3255 57.0686L31.3165 57.0667L31.1054 58.0441ZM42.915 59.3323L42.9237 58.3322L42.9104 58.3323L42.915 59.3323ZM56.5466 57.4966L56.2779 56.5334L56.2736 56.5346L56.5466 57.4966ZM67.3802 52.183L66.7829 51.381L66.7826 51.3812L67.3802 52.183ZM77.1403 32.2163L76.1403 32.2138L76.1403 32.2273L76.1406 32.2409L77.1403 32.2163ZM74.375 20.1398L73.4749 20.5755L73.4755 20.5768L74.375 20.1398ZM66.7946 10.2531L66.134 11.0038L66.1396 11.0087L66.7946 10.2531ZM55.473 3.5546L55.1297 4.49383L55.1324 4.49482L55.473 3.5546ZM29.7064 2.91051L29.4106 1.95527L29.4083 1.95597L29.7064 2.91051ZM19.4583 7.93437L18.8861 7.1143L18.8816 7.11743L19.4583 7.93437ZM11.7154 15.5668L10.9065 14.9788L10.9061 14.9793L11.7154 15.5668ZM7.16067 25.228L8.09563 25.5828L8.11516 25.5313L8.12892 25.478L7.16067 25.228ZM6.77026 25.4535L6.61149 26.4408L6.61704 26.4416L6.77026 25.4535ZM6.54253 25.067L7.47951 25.4164L7.49562 25.3732L7.50769 25.3287L6.54253 25.067ZM11.1948 15.4057L10.3889 14.8137L10.3881 14.8148L11.1948 15.4057ZM19.1005 7.64453L19.678 8.46097L19.6881 8.45364L19.1005 7.64453ZM29.4461 2.33084L29.1439 1.3776L29.1372 1.37974L29.1304 1.38198L29.4461 2.33084ZM41.6137 0.462992L41.6114 1.463L41.6157 1.46299L41.6137 0.462992ZM55.6356 2.94272L55.2906 3.88131L55.2915 3.88164L55.6356 2.94272ZM67.185 9.7378L67.8406 8.98264L67.8391 8.98132L67.185 9.7378ZM74.9931 19.8177L75.8947 19.3852L75.8917 19.3788L75.8885 19.3724L74.9931 19.8177ZM77.8235 32.1841L76.8235 32.1864L76.8235 32.1981L76.8238 32.2097L77.8235 32.1841ZM67.8357 52.666L68.4336 53.4676L68.4338 53.4674L67.8357 52.666ZM56.8068 58.0763L56.5383 57.113L56.5331 57.1145L56.8068 58.0763ZM42.9142 58.9764C38.96 58.9796 35.0173 58.5554 31.1562 57.7113L30.7291 59.6651C34.7311 60.54 38.8175 60.9797 42.9158 60.9764L42.9142 58.9764ZM31.1608 57.7123C27.5909 56.9144 24.1395 55.6662 20.8911 53.9985L19.9776 55.7777C23.3774 57.5231 26.9892 58.8292 30.7246 59.6641L31.1608 57.7123ZM20.8661 53.9861C14.8991 51.1298 10.2618 46.1275 7.89839 40.0039L6.03254 40.7241C8.58104 47.3272 13.5791 52.7152 20.0026 55.7901L20.8661 53.9861ZM7.89379 39.9922C7.93132 40.0859 7.9486 40.1869 7.94418 40.2882L5.94608 40.2012C5.93811 40.384 5.96925 40.5662 6.03714 40.7358L7.89379 39.9922ZM7.94418 40.2882C7.93976 40.3896 7.91378 40.4885 7.86836 40.5784L6.08318 39.6767C6.00091 39.8396 5.95405 40.0183 5.94608 40.2012L7.94418 40.2882ZM7.86836 40.5784C7.82295 40.6683 7.75928 40.747 7.68211 40.8096L6.42198 39.2565C6.28109 39.3708 6.16544 39.5139 6.08318 39.6767L7.86836 40.5784ZM7.68211 40.8096C7.60497 40.8722 7.51598 40.9174 7.42114 40.943L6.90019 39.0121C6.72586 39.0591 6.56284 39.1422 6.42198 39.2565L7.68211 40.8096ZM7.52596 40.9084C7.43431 40.9444 7.33641 40.9607 7.23853 40.9565L7.32386 38.9583C7.14366 38.9506 6.96362 38.9806 6.79537 39.0467L7.52596 40.9084ZM7.23853 40.9565C7.14064 40.9523 7.04437 40.9278 6.95594 40.884L7.8431 39.0915C7.68097 39.0113 7.50405 38.966 7.32386 38.9583L7.23853 40.9565ZM6.95594 40.884C6.86752 40.8402 6.78861 40.7781 6.7248 40.701L8.26525 39.4255C8.14921 39.2853 8.00521 39.1718 7.8431 39.0915L6.95594 40.884ZM6.7248 40.701C6.66098 40.624 6.61381 40.5338 6.58695 40.4362L8.5152 39.9053C8.46667 39.7291 8.3813 39.5656 8.26525 39.4255L6.7248 40.701ZM6.61945 40.5342C9.13058 46.9714 14.0219 52.218 20.2966 55.211L21.1577 53.4058C15.3384 50.6301 10.8076 45.7671 8.48269 39.8074L6.61945 40.5342ZM20.2667 55.1961C23.6207 56.936 27.1951 58.2226 30.8942 59.0216L31.3165 57.0667C27.7905 56.305 24.3838 55.0788 21.1876 53.4208L20.2667 55.1961ZM30.8852 59.0196C34.833 59.9104 38.8707 60.3508 42.9196 60.3323L42.9104 58.3323C39.0127 58.3501 35.1257 57.9261 31.3255 57.0686L30.8852 59.0196ZM42.9064 60.3322C47.6109 60.3729 52.2968 59.7419 56.8195 58.4587L56.2736 56.5346C51.9342 57.7658 47.4379 58.3713 42.9237 58.3323L42.9064 60.3322ZM56.8152 58.4599C60.8463 57.3356 64.6315 55.4792 67.9779 52.9847L66.7826 51.3812C63.6344 53.7279 60.0723 55.4751 56.2779 56.5334L56.8152 58.4599ZM67.9776 52.9849C71.2188 50.5705 73.8323 47.4247 75.6001 43.8082L73.8033 42.9299C72.1761 46.2586 69.7696 49.1561 66.7829 51.381L67.9776 52.9849ZM75.6001 43.8082C77.3679 40.1916 78.2389 36.2092 78.14 32.1917L76.1406 32.2409C76.2315 35.9368 75.4304 39.6012 73.8033 42.9299L75.6001 43.8082ZM78.1403 32.2189C78.1515 27.8858 77.1716 23.6067 75.2744 19.7027L73.4755 20.5768C75.2398 24.2075 76.1507 28.1858 76.1403 32.2138L78.1403 32.2189ZM75.275 19.704C73.3908 15.812 70.7284 12.3398 67.4497 9.49747L66.1396 11.0087C69.2141 13.674 71.7094 16.9288 73.4749 20.5755L75.275 19.704ZM67.4552 9.50233C64.0458 6.5023 60.0963 4.16568 55.8135 2.61438L55.1324 4.49482C59.1808 5.96122 62.913 8.16957 66.134 11.0038L67.4552 9.50233ZM55.8162 2.61536C47.3295 -0.486435 38.0444 -0.718498 29.4106 1.95527L30.0022 3.86575C38.2181 1.32142 47.0542 1.54233 55.1297 4.49383L55.8162 2.61536ZM29.4083 1.95597C25.6537 3.12844 22.1044 4.86834 18.8861 7.11432L20.0306 8.75442C23.0806 6.62595 26.4449 4.97662 30.0045 3.86505L29.4083 1.95597ZM18.8816 7.11743C15.807 9.28795 13.1128 11.9436 10.9065 14.9788L12.5242 16.1547C14.6014 13.2972 17.1387 10.796 20.0351 8.75131L18.8816 7.11743ZM10.9061 14.9793C8.71933 17.9918 7.1205 21.383 6.19241 24.9781L8.12892 25.478C8.99411 22.1265 10.4848 18.9642 12.5246 16.1542L10.9061 14.9793ZM6.2257 24.8733C6.27905 24.7327 6.37887 24.6168 6.50591 24.5435L7.50602 26.2755C7.7753 26.12 7.98438 25.876 8.09563 25.5828L6.2257 24.8733ZM6.50591 24.5435C6.63277 24.4702 6.7801 24.443 6.92349 24.4653L6.61704 26.4416C6.92311 26.4891 7.23693 26.4308 7.50602 26.2755L6.50591 24.5435ZM6.92904 24.4661C7.03058 24.4825 7.12783 24.5209 7.21372 24.5793L6.08915 26.2332C6.24626 26.34 6.42466 26.4107 6.61149 26.4408L6.92904 24.4661ZM7.21372 24.5793C7.29964 24.6378 7.3723 24.7149 7.42583 24.8057L5.70277 25.8211C5.79984 25.9858 5.932 26.1264 6.08915 26.2332L7.21372 24.5793ZM7.42583 24.8057C7.47938 24.8966 7.51228 24.9986 7.52165 25.1046L5.52941 25.2806C5.5463 25.4718 5.60569 25.6564 5.70277 25.8211L7.42583 24.8057ZM7.52165 25.1046C7.53101 25.2106 7.51653 25.3171 7.47951 25.4164L5.60555 24.7176C5.53862 24.8971 5.51252 25.0895 5.52941 25.2806L7.52165 25.1046ZM7.50769 25.3287C8.41743 21.9731 9.94036 18.8102 12.0015 15.9967L10.3881 14.8148C8.1822 17.8259 6.55159 21.2119 5.57737 24.8053L7.50769 25.3287ZM12.0007 15.9978C14.134 13.0941 16.7262 10.5491 19.678 8.4609L18.5229 6.82816C15.3964 9.03999 12.6498 11.7363 10.3889 14.8137L12.0007 15.9978ZM19.6881 8.45364C22.7561 6.22539 26.1542 4.48003 29.7618 3.27969L29.1304 1.38198C25.3287 2.64688 21.7471 4.48636 18.5128 6.83542L19.6881 8.45364ZM29.7484 3.28407C33.5824 2.06842 37.5852 1.45393 41.6114 1.46299L41.6159 -0.537006C37.3833 -0.546525 33.1751 0.0994534 29.1439 1.3776L29.7484 3.28407ZM41.6157 1.46299C46.2835 1.45377 50.9151 2.27289 55.2906 3.88131L55.9807 2.00412C51.3827 0.313906 46.5161 -0.546689 41.6117 -0.537006L41.6157 1.46299ZM55.2915 3.88164C59.4131 5.39228 63.2217 7.63319 66.531 10.4943L67.8391 8.98132C64.3463 5.96164 60.3275 3.59734 55.9798 2.0038L55.2915 3.88164ZM66.5295 10.493C69.6775 13.2256 72.2492 16.5458 74.0977 20.263L75.8885 19.3724C73.9221 15.4182 71.187 11.8876 67.8406 8.98264L66.5295 10.493ZM74.0915 20.2502C75.8811 23.981 76.814 28.0573 76.8235 32.1864L78.8235 32.1818C78.8133 27.7542 77.813 23.3841 75.8947 19.3852L74.0915 20.2502ZM76.8238 32.2097C76.921 36.0032 76.1024 39.7653 74.4355 43.1836L76.2332 44.0602C78.0405 40.3539 78.9286 36.2736 78.8232 32.1585L76.8238 32.2097ZM74.4355 43.1836C72.7686 46.6019 70.3013 49.5782 67.2376 51.8646L68.4338 53.4674C71.7517 50.9912 74.4258 47.7664 76.2332 44.0602L74.4355 43.1836ZM67.2378 51.8644C64.0317 54.2557 60.4035 56.0357 56.5383 57.113L57.0753 59.0396C61.1774 57.8962 65.0291 56.0068 68.4336 53.4676L67.2378 51.8644ZM56.5331 57.1145C52.1084 58.3738 47.5244 59.0008 42.9203 58.9764L42.9097 60.9764C47.7024 61.0017 52.4742 60.3491 57.0806 59.0381L56.5331 57.1145Z" fill="black" mask="url(#path-24-inside-6_402:2785)"/>
<mask id="path-26-inside-7_402:2785" fill="white">
<path d="M6.67273 40.6531C4.76451 40.434 3.01765 39.4875 1.80284 38.0144C0.588036 36.5413 0.000897318 34.6576 0.166023 32.7631C0.00977293 30.8739 0.600982 28.9984 1.81492 27.5324C3.02887 26.0664 4.77061 25.1244 6.67273 24.9053C8.04474 24.9213 9.36804 25.4111 10.4141 26.2901C10.4495 26.3232 10.4778 26.3631 10.4971 26.4074C10.5164 26.4517 10.5263 26.4994 10.5263 26.5477C10.5263 26.5959 10.5164 26.6437 10.4971 26.688C10.4778 26.7323 10.4495 26.7722 10.4141 26.8053C10.3835 26.8396 10.346 26.867 10.3039 26.8858C10.2619 26.9046 10.2162 26.9144 10.1701 26.9144C10.1239 26.9144 10.0783 26.9046 10.0362 26.8858C9.99416 26.867 9.95661 26.8396 9.92608 26.8053C9.01979 26.033 7.86846 25.5999 6.67273 25.5816C4.94262 25.7765 3.35812 26.6334 2.2578 27.9693C1.15748 29.3052 0.628593 31.0141 0.784159 32.7309C0.637517 34.4424 1.17049 36.1431 2.26994 37.4719C3.36939 38.8007 4.94875 39.6531 6.67273 39.848C7.86846 39.8297 9.01979 39.3966 9.92608 38.6243C9.95661 38.59 9.99416 38.5626 10.0362 38.5438C10.0783 38.525 10.1239 38.5152 10.1701 38.5152C10.2162 38.5152 10.2619 38.525 10.3039 38.5438C10.346 38.5626 10.3835 38.59 10.4141 38.6243C10.4495 38.6574 10.4778 38.6973 10.4971 38.7416C10.5164 38.7859 10.5263 38.8337 10.5263 38.8819C10.5263 38.9301 10.5164 38.9779 10.4971 39.0222C10.4778 39.0665 10.4495 39.1064 10.4141 39.1395C9.38642 40.0652 8.06119 40.6013 6.67273 40.6531Z"/>
</mask>
<path d="M6.67273 40.6531C4.76451 40.434 3.01765 39.4875 1.80284 38.0144C0.588036 36.5413 0.000897318 34.6576 0.166023 32.7631C0.00977293 30.8739 0.600982 28.9984 1.81492 27.5324C3.02887 26.0664 4.77061 25.1244 6.67273 24.9053C8.04474 24.9213 9.36804 25.4111 10.4141 26.2901C10.4495 26.3232 10.4778 26.3631 10.4971 26.4074C10.5164 26.4517 10.5263 26.4994 10.5263 26.5477C10.5263 26.5959 10.5164 26.6437 10.4971 26.688C10.4778 26.7323 10.4495 26.7722 10.4141 26.8053C10.3835 26.8396 10.346 26.867 10.3039 26.8858C10.2619 26.9046 10.2162 26.9144 10.1701 26.9144C10.1239 26.9144 10.0783 26.9046 10.0362 26.8858C9.99416 26.867 9.95661 26.8396 9.92608 26.8053C9.01979 26.033 7.86846 25.5999 6.67273 25.5816C4.94262 25.7765 3.35812 26.6334 2.2578 27.9693C1.15748 29.3052 0.628593 31.0141 0.784159 32.7309C0.637517 34.4424 1.17049 36.1431 2.26994 37.4719C3.36939 38.8007 4.94875 39.6531 6.67273 39.848C7.86846 39.8297 9.01979 39.3966 9.92608 38.6243C9.95661 38.59 9.99416 38.5626 10.0362 38.5438C10.0783 38.525 10.1239 38.5152 10.1701 38.5152C10.2162 38.5152 10.2619 38.525 10.3039 38.5438C10.346 38.5626 10.3835 38.59 10.4141 38.6243C10.4495 38.6574 10.4778 38.6973 10.4971 38.7416C10.5164 38.7859 10.5263 38.8337 10.5263 38.8819C10.5263 38.9301 10.5164 38.9779 10.4971 39.0222C10.4778 39.0665 10.4495 39.1064 10.4141 39.1395C9.38642 40.0652 8.06119 40.6013 6.67273 40.6531Z" fill="black"/>
<path d="M0.166023 32.7631L1.16225 32.8499L1.16962 32.7653L1.16262 32.6807L0.166023 32.7631ZM6.67273 24.9053L6.6844 23.9053L6.62113 23.9046L6.55827 23.9118L6.67273 24.9053ZM10.4141 26.2901L11.0967 25.5593L11.0775 25.5414L11.0574 25.5245L10.4141 26.2901ZM10.4141 26.8053L9.73143 26.0746L9.69793 26.1059L9.66743 26.1401L10.4141 26.8053ZM9.92608 26.8053L10.6727 26.1401L10.627 26.0888L10.5747 26.0442L9.92608 26.8053ZM6.67273 25.5816L6.68807 24.5817L6.62423 24.5807L6.56078 24.5878L6.67273 25.5816ZM0.784159 32.7309L1.78051 32.8163L1.78803 32.7284L1.78008 32.6407L0.784159 32.7309ZM6.67273 39.848L6.56037 40.8417L6.62402 40.8489L6.68807 40.8479L6.67273 39.848ZM9.92608 38.6243L10.5747 39.3854L10.627 39.3408L10.6727 39.2895L9.92608 38.6243ZM10.4141 38.6243L9.66743 39.2895L9.69793 39.3237L9.73143 39.355L10.4141 38.6243ZM10.4141 39.1395L11.0834 39.8826L11.0901 39.8765L11.0967 39.8703L10.4141 39.1395ZM6.78682 39.6597C5.13399 39.4699 3.6234 38.6502 2.57434 37.3781L1.03134 38.6506C2.4119 40.3247 4.39503 41.3981 6.55864 41.6466L6.78682 39.6597ZM2.57434 37.3781C1.52557 36.1064 1.01999 34.4821 1.16225 32.8499L-0.8302 32.6763C-1.01819 34.8331 -0.349496 36.9762 1.03134 38.6506L2.57434 37.3781ZM1.16262 32.6807C1.02801 31.053 1.5371 29.4358 2.58514 28.1702L1.04471 26.8946C-0.335139 28.561 -1.00846 30.6947 -0.830574 32.8455L1.16262 32.6807ZM2.58514 28.1702C3.63346 26.9042 5.13964 26.0885 6.78718 25.8987L6.55827 23.9118C4.40158 24.1603 2.42427 25.2286 1.04471 26.8946L2.58514 28.1702ZM6.66105 25.9052C7.80283 25.9185 8.90264 26.3262 9.77076 27.0557L11.0574 25.5245C9.83343 24.496 8.28666 23.924 6.6844 23.9053L6.66105 25.9052ZM9.73143 27.0208C9.66741 26.961 9.6158 26.8883 9.5803 26.8068L11.4138 26.008C11.3397 25.8379 11.2316 25.6853 11.0967 25.5593L9.73143 27.0208ZM9.5803 26.8068C9.5448 26.7253 9.52633 26.6371 9.52633 26.5477H11.5263C11.5263 26.3618 11.4879 26.1781 11.4138 26.008L9.5803 26.8068ZM9.52633 26.5477C9.52633 26.4583 9.5448 26.3701 9.5803 26.2886L11.4138 27.0874C11.4879 26.9173 11.5263 26.7336 11.5263 26.5477H9.52633ZM9.5803 26.2886C9.61581 26.2071 9.66743 26.1344 9.73143 26.0746L11.0967 27.5361C11.2316 27.4101 11.3397 27.2575 11.4138 27.0874L9.5803 26.2886ZM9.66743 26.1401C9.73136 26.0684 9.80938 26.0115 9.89597 25.9728L10.7119 27.7988C10.8826 27.7225 11.0357 27.6108 11.1607 27.4705L9.66743 26.1401ZM9.89597 25.9728C9.98251 25.9342 10.0759 25.9144 10.1701 25.9144V27.9144C10.3566 27.9144 10.5412 27.8751 10.7119 27.7988L9.89597 25.9728ZM10.1701 25.9144C10.2643 25.9144 10.3577 25.9342 10.4442 25.9728L9.62826 27.7988C9.79893 27.8751 9.98359 27.9144 10.1701 27.9144V25.9144ZM10.4442 25.9728C10.5308 26.0115 10.6088 26.0683 10.6727 26.1401L9.17943 27.4705C9.30443 27.6108 9.45756 27.7226 9.62826 27.7988L10.4442 25.9728ZM10.5747 26.0442C9.49065 25.1204 8.11513 24.6036 6.68807 24.5817L6.65739 26.5814C7.62179 26.5962 8.54893 26.9456 9.27746 27.5664L10.5747 26.0442ZM6.56078 24.5878C4.57428 24.8116 2.75248 25.7958 1.48592 27.3336L3.02968 28.6051C3.96376 27.471 5.31096 26.7413 6.78467 26.5753L6.56078 24.5878ZM1.48592 27.3336C0.219062 28.8717 -0.39118 30.8412 -0.211761 32.8211L1.78008 32.6407C1.64837 31.1871 2.09589 29.7388 3.02968 28.6051L1.48592 27.3336ZM-0.212191 32.6455C-0.381317 34.6194 0.233636 36.5794 1.49947 38.1094L3.04042 36.8344C2.10735 35.7067 1.65635 34.2653 1.78051 32.8163L-0.212191 32.6455ZM1.49947 38.1094C2.76502 39.639 4.5809 40.6179 6.56037 40.8417L6.78509 38.8544C5.3166 38.6883 3.97377 37.9625 3.04042 36.8344L1.49947 38.1094ZM6.68807 40.8479C8.11513 40.826 9.49065 40.3092 10.5747 39.3854L9.27746 37.8632C8.54893 38.484 7.62179 38.8334 6.65739 38.8481L6.68807 40.8479ZM10.6727 39.2895C10.6088 39.3613 10.5307 39.4181 10.4442 39.4568L9.62826 37.6308C9.45759 37.707 9.30446 37.8187 9.17943 37.9591L10.6727 39.2895ZM10.4442 39.4568C10.3577 39.4954 10.2643 39.5152 10.1701 39.5152V37.5152C9.98355 37.5152 9.79889 37.5545 9.62826 37.6308L10.4442 39.4568ZM10.1701 39.5152C10.0759 39.5152 9.98247 39.4954 9.89597 39.4568L10.7119 37.6308C10.5413 37.5545 10.3566 37.5152 10.1701 37.5152V39.5152ZM9.89597 39.4568C9.80941 39.4181 9.73138 39.3613 9.66743 39.2895L11.1607 37.9591C11.0357 37.8187 10.8826 37.707 10.7119 37.6308L9.89597 39.4568ZM9.73143 39.355C9.66741 39.2952 9.6158 39.2225 9.5803 39.141L11.4138 38.3422C11.3397 38.1721 11.2316 38.0196 11.0967 37.8935L9.73143 39.355ZM9.5803 39.141C9.5448 39.0596 9.52633 38.9713 9.52633 38.8819H11.5263C11.5263 38.696 11.4879 38.5123 11.4138 38.3422L9.5803 39.141ZM9.52633 38.8819C9.52633 38.7925 9.5448 38.7043 9.5803 38.6228L11.4138 39.4216C11.4879 39.2515 11.5263 39.0678 11.5263 38.8819H9.52633ZM9.5803 38.6228C9.61581 38.5413 9.66743 38.4686 9.73143 38.4088L11.0967 39.8703C11.2316 39.7443 11.3397 39.5917 11.4138 39.4216L9.5803 38.6228ZM9.74481 38.3965C8.89214 39.1646 7.79089 39.6107 6.63544 39.6538L6.71001 41.6524C8.33148 41.5919 9.88069 40.9658 11.0834 39.8826L9.74481 38.3965Z" fill="black" mask="url(#path-26-inside-7_402:2785)"/>
<mask id="path-28-inside-8_402:2785" fill="white">
<path d="M6.86746 36.6282C6.76392 36.6282 6.66461 36.5875 6.5914 36.5151C6.51818 36.4426 6.47705 36.3443 6.47705 36.2418C6.47705 36.1393 6.51818 36.041 6.5914 35.9685C6.66461 35.8961 6.76392 35.8553 6.86746 35.8553C7.9736 35.8553 8.88454 34.4384 8.88454 32.6349C8.88454 30.8315 7.9736 29.4145 6.86746 29.4145C6.76392 29.4145 6.66461 29.3738 6.5914 29.3013C6.51818 29.2288 6.47705 29.1305 6.47705 29.0281C6.47705 28.9256 6.51818 28.8273 6.5914 28.7548C6.66461 28.6823 6.76392 28.6416 6.86746 28.6416C8.39654 28.6416 9.66535 30.4128 9.66535 32.5705C9.66535 34.7282 8.39654 36.6282 6.86746 36.6282Z"/>
</mask>
<path d="M6.86746 36.6282C6.76392 36.6282 6.66461 36.5875 6.5914 36.5151C6.51818 36.4426 6.47705 36.3443 6.47705 36.2418C6.47705 36.1393 6.51818 36.041 6.5914 35.9685C6.66461 35.8961 6.76392 35.8553 6.86746 35.8553C7.9736 35.8553 8.88454 34.4384 8.88454 32.6349C8.88454 30.8315 7.9736 29.4145 6.86746 29.4145C6.76392 29.4145 6.66461 29.3738 6.5914 29.3013C6.51818 29.2288 6.47705 29.1305 6.47705 29.0281C6.47705 28.9256 6.51818 28.8273 6.5914 28.7548C6.66461 28.6823 6.76392 28.6416 6.86746 28.6416C8.39654 28.6416 9.66535 30.4128 9.66535 32.5705C9.66535 34.7282 8.39654 36.6282 6.86746 36.6282Z" fill="black"/>
<path d="M6.86746 36.6282V35.6282V36.6282ZM6.47705 36.2418H7.47705H6.47705ZM6.86746 35.8553V36.8553V35.8553ZM6.86746 29.4145V28.4145V29.4145ZM6.47705 29.0281H7.47705H6.47705ZM6.86746 28.6416V29.6416V28.6416ZM6.86746 35.6282C7.02585 35.6282 7.1798 35.6904 7.2949 35.8044L5.8879 37.2257C6.14942 37.4846 6.50198 37.6282 6.86746 37.6282V35.6282ZM7.2949 35.8044C7.41032 35.9186 7.47705 36.0758 7.47705 36.2418H5.47705C5.47705 36.6128 5.62604 36.9665 5.8879 37.2257L7.2949 35.8044ZM7.47705 36.2418C7.47705 36.4078 7.41032 36.565 7.2949 36.6792L5.8879 35.2578C5.62604 35.517 5.47705 35.8708 5.47705 36.2418H7.47705ZM7.2949 36.6792C7.1798 36.7932 7.02585 36.8553 6.86746 36.8553V34.8553C6.50198 34.8553 6.14942 34.999 5.8879 35.2578L7.2949 36.6792ZM6.86746 36.8553C7.88337 36.8553 8.66177 36.207 9.13636 35.4553C9.61886 34.6911 9.88454 33.6941 9.88454 32.6349H7.88454C7.88454 33.3792 7.69475 33.9924 7.44524 34.3875C7.18783 34.7952 6.95769 34.8553 6.86746 34.8553V36.8553ZM9.88454 32.6349C9.88454 31.5757 9.61886 30.5787 9.13636 29.8145C8.66177 29.0629 7.88337 28.4145 6.86746 28.4145V30.4145C6.95769 30.4145 7.18783 30.4746 7.44524 30.8823C7.69475 31.2775 7.88454 31.8907 7.88454 32.6349H9.88454ZM6.86746 28.4145C7.02587 28.4145 7.17982 28.4767 7.2949 28.5906L5.8879 30.012C6.14941 30.2709 6.50196 30.4145 6.86746 30.4145V28.4145ZM7.2949 28.5906C7.41032 28.7049 7.47705 28.862 7.47705 29.0281H5.47705C5.47705 29.3991 5.62605 29.7528 5.8879 30.012L7.2949 28.5906ZM7.47705 29.0281C7.47705 29.1941 7.41032 29.3512 7.2949 29.4655L5.8879 28.0441C5.62604 28.3033 5.47705 28.657 5.47705 29.0281H7.47705ZM7.2949 29.4655C7.1798 29.5794 7.02585 29.6416 6.86746 29.6416V27.6416C6.50198 27.6416 6.14942 27.7852 5.8879 28.0441L7.2949 29.4655ZM6.86746 29.6416C7.21955 29.6416 7.64641 29.846 8.02575 30.3777C8.40164 30.9046 8.66535 31.6792 8.66535 32.5705H10.6653C10.6653 31.3042 10.2947 30.1143 9.65387 29.2161C9.01653 28.3228 8.04445 27.6416 6.86746 27.6416V29.6416ZM8.66535 32.5705C8.66535 33.464 8.40023 34.2787 8.01388 34.8447C7.61942 35.4226 7.191 35.6282 6.86746 35.6282V37.6282C8.073 37.6282 9.04352 36.8838 9.66574 35.9723C10.2961 35.0488 10.6653 33.8347 10.6653 32.5705H8.66535Z" fill="black" mask="url(#path-28-inside-8_402:2785)"/>
</svg>
