<?xml version="1.0" encoding="utf-8"?>
<svg id="Legendary_350_web" image-rendering="auto" baseProfile="basic" version="1.1" preserveAspectRatio="xMidYMid meet" x="0px" y="0px" width="1300" height="1300" xmlns="http://www.w3.org/2000/svg" viewBox="0 0 1300 1300" xmlns:xlink="http://www.w3.org/1999/xlink">
  <defs>
    <filter id="filter38" filterUnits="objectBoundingBox" width="100%" height="100%" x="0%" y="0%">
      <feColorMatrix type="matrix" in="SourceGraphic" result="colorTrans" values="1 0 0 0 0 0 1 0 0 0 0 0 1 0 0 0 0 0 .54 0"/>
    </filter>
    <filter id="filter39" filterUnits="objectBoundingBox" width="100%" height="100%" x="0%" y="0%">
      <feColorMatrix type="matrix" in="SourceGraphic" result="colorTrans" values="1 0 0 0 0 0 1 0 0 0 0 0 1 0 0 0 0 0 .64 0"/>
    </filter>
    <g id="shine" overflow="visible">
      <path fill="#FFF" stroke="none" d="M48.7 40.25L80.55 0 40.3 30.75 0 0 31.05 40.25 0 80.55 40.3 51.65 80.55 80.55 48.7 40.25Z"/>
    </g>
    <g id="line" overflow="visible">
      <path id="Layer9_0_1_STROKES" stroke="#FFF" stroke-width="40" stroke-linejoin="miter" stroke-linecap="butt" stroke-miterlimit="10" fill="none" d="M530.1 .05L0 530.15"/>
    </g>
    <linearGradient id="Gradient_1" gradientUnits="userSpaceOnUse" x1="192.749" y1="716.8" x2="771.55" y2="128.400" spreadMethod="pad">
      <stop offset="0%" stop-color="#009ED9"/>
      <stop offset="20%" stop-color="#2D2D86"/>
      <stop offset="40%" stop-color="#E6137D"/>
      <stop offset="60%" stop-color="#E82829"/>
      <stop offset="80%" stop-color="#FCE626"/>
      <stop offset="100%" stop-color="#00934A"/>
    </linearGradient>
  </defs>
  <g id="Scene-1" overflow="visible">
    <g id="colour" transform="translate(200.5 196.6)">
      <path fill="url(#Gradient_1)" stroke="none" d="M512.7 1.3L.8 521.6 384.85 912 896.75 391.65 512.7 1.3Z"/>
    </g>
    <g display="none">
      <use xlink:href="#line" transform="translate(378.3 378.3)">
        <animate attributeName="opacity" repeatCount="indefinite" dur="2s" keyTimes="0;.533;.983;1" values=".31;.31;1;1"/>
      </use>
      <animate attributeName="display" repeatCount="indefinite" dur="2s" keyTimes="0;.533;1" values="none;inline;inline"/>
    </g>
    <g display="none">
      <use xlink:href="#line" transform="translate(378.3 378.3)" filter="url(#filter39)"/>
      <animate attributeName="display" repeatCount="indefinite" dur="2s" keyTimes="0;.5;.517;1" values="none;inline;none;none"/>
    </g>
    <g display="none">
      <use xlink:href="#line" transform="translate(378.3 378.3)" filter="url(#filter38)"/>
      <animate attributeName="display" repeatCount="indefinite" dur="2s" keyTimes="0;.467;.483;1" values="none;inline;none;none"/>
    </g>
    <g>
      <use xlink:href="#line" transform="translate(378.3 378.3)">
        <animate attributeName="opacity" repeatCount="indefinite" dur="2s" keyTimes="0;.433;1" values="1;.21;.21"/>
      </use>
      <animate attributeName="display" repeatCount="indefinite" dur="2s" keyTimes="0;.45;1" values="inline;none;none"/>
    </g>
    <g id="line-glow" transform="matrix(.707 .707 -.707 .707 887.65 293.7)">
      <path fill="#FFF" stroke="none" d="M146.05 0L0 0 0 854.2 146.05 854.2 146.05 0Z" fill-opacity=".36"/>
    </g>
    <g mask="url(#mask_)">
      <g id="beam" transform="matrix(.707 .707 -.707 .707 813.05 168.25)">
        <animateTransform attributeName="transform" additive="replace" type="translate" repeatCount="indefinite" dur="2s" keyTimes="0;.983;1" values="813.02,168.217;1399.219,-419.933;1399.219,-419.933"/>
        <animateTransform attributeName="transform" additive="sum" type="rotate" repeatCount="indefinite" dur="2s" keyTimes="0;1" values="45,0,0;45,0,0"/>
        <path fill="#FFF" stroke="none" d="M447.1 22.15Q453.35 10.2 453.35 .85 453.35 .45 453.35 0L.05 0Q0 .45 0 .85 0 10.2 6.25 22.15 10 29.25 19.85 43.45 29.85 57.85 33.65 65.15 40 77.35 40 87.15 40 96.95 33.65 109.15 29.85 116.45 19.85 130.85 10 145 6.25 152.1 0 164.05 0 173.4 0 182.8 6.25 194.75 10 201.85 19.85 216 29.85 230.4 33.65 237.7 40 249.9 40 259.7 40 269.5 33.65 281.7 29.85 289 19.85 303.4 9.95 317.65 6.25 324.7 0 336.6 0 346 0 355.35 6.25 367.3 10 374.4 19.85 388.55 29.85 403 33.65 410.25 40 422.5 40 432.25 40 442.05 33.65 454.3 29.85 461.55 19.85 476 10 490.15 6.25 497.25 0 509.2 0 518.55 0 527.9 6.25 539.85 10 546.95 19.85 561.15 29.85 575.55 33.65 582.85 40 595.05 40 604.85 40 614.65 33.65 626.85 29.85 634.15 19.85 648.55 10 662.7 6.25 669.8 0 681.75 0 691.1 0 700.5 6.25 712.45 10 719.55 19.85 733.7 29.85 748.1 33.65 755.4 40 767.6 40 777.4 40 787.2 33.65 799.4 29.85 806.7 19.85 821.1 10.15 835 6.4 842.15 .2 853.95 .05 863.2L.1 863.2Q0 864.5 0 865.75 0 875.1 6.25 887.05 10 894.15 19.85 908.35 29.85 922.75 33.65 930.05 40 942.25 40 952.05 40 961.85 33.65 974.05 29.85 981.35 19.85 995.75 10 1009.9 6.25 1017 2.1 1025 .7 1031.8 0 1035.2 0 1038.3 0 1047.7 6.25 1059.65 10 1066.75 19.85 1080.9 29.85 1095.3 33.65 1102.6 40 1114.8 40 1124.6 40 1134.4 33.65 1146.6 29.85 1153.9 19.85 1168.3 9.95 1182.55 6.25 1189.6 0 1201.5 0 1210.9 0 1220.25 6.25 1232.2 10 1239.3 19.85 1253.45 29.85 1267.9 33.65 1275.15 40 1287.4 40 1297.15 40 1306.95 33.65 1319.2 29.85 1326.45 19.85 1340.9 10 1355.05 6.25 1362.15 0 1374.1 0 1383.45 0 1392.8 6.25 1404.75 10 1411.85 19.85 1426.05 29.85 1440.45 33.65 1447.75 40 1459.95 40 1469.75 40 1479.55 33.65 1491.75 29.85 1499.05 19.85 1513.45 10 1527.6 6.25 1534.7 0 1546.65 0 1556 0 1565.4 6.25 1577.35 10 1584.45 19.85 1598.6 29.85 1613 33.65 1620.3 40 1632.5 40 1642.3 40 1652.1 33.65 1664.3 29.85 1671.6 19.85 1686 10.15 1699.9 6.4 1707.05 .2 1718.85 .05 1728.1L453.35 1728.1Q453.2 1718.85 447 1707.05 443.25 1699.9 433.55 1686 423.55 1671.7 419.7 1664.3 413.35 1652.1 413.35 1642.3 413.35 1632.5 419.7 1620.3 423.55 1612.9 433.55 1598.6 443.35 1584.55 447.1 1577.35 453.35 1565.4 453.35 1556 453.35 1546.65 447.1 1534.7 443.35 1527.5 433.55 1513.45 423.55 1499.15 419.7 1491.75 413.35 1479.55 413.35 1469.75 413.35 1459.95 419.7 1447.75 423.55 1440.35 433.55 1426.05 443.35 1411.9 447.1 1404.75 453.35 1392.8 453.35 1383.45 453.35 1374.1 447.1 1362.15 443.35 1354.95 433.55 1340.9 423.55 1326.5 419.7 1319.2 413.35 1306.95 413.35 1297.15 413.35 1287.4 419.7 1275.15 423.55 1267.85 433.55 1253.45 443.35 1239.4 447.1 1232.2 453.35 1220.25 453.35 1210.9 453.35 1201.5 447.1 1189.6 443.4 1182.5 433.55 1168.3 423.55 1154 419.7 1146.6 413.35 1134.4 413.35 1124.6 413.35 1114.8 419.7 1102.6 423.55 1095.2 433.55 1080.9 443.35 1066.85 447.1 1059.65 453.35 1047.7 453.35 1038.3 453.35 1035.2 452.65 1031.8 451.25 1025 447.1 1017 443.35 1009.8 433.55 995.75 423.55 981.45 419.7 974.05 413.35 961.85 413.35 952.05 413.35 942.25 419.7 930.05 423.55 922.65 433.55 908.35 443.35 894.2 447.1 887.05 453.35 875.1 453.35 865.75 453.35 864.5 453.25 863.2L453.35 863.2Q453.2 853.95 447 842.15 443.25 835 433.55 821.1 423.55 806.8 419.7 799.4 413.35 787.2 413.35 777.4 413.35 767.6 419.7 755.4 423.55 748 433.55 733.7 443.35 719.65 447.1 712.45 453.35 700.5 453.35 691.1 453.35 681.75 447.1 669.8 443.35 662.6 433.55 648.55 423.55 634.25 419.7 626.85 413.35 614.65 413.35 604.85 413.35 595.05 419.7 582.85 423.55 575.45 433.55 561.15 443.35 547 447.1 539.85 453.35 527.9 453.35 518.55 453.35 509.2 447.1 497.25 443.35 490.05 433.55 476 423.55 461.6 419.7 454.3 413.35 442.05 413.35 432.25 413.35 422.5 419.7 410.25 423.55 402.95 433.55 388.55 443.35 374.5 447.1 367.3 453.35 355.35 453.35 346 453.35 336.6 447.1 324.7 443.4 317.6 433.55 303.4 423.55 289.1 419.7 281.7 413.35 269.5 413.35 259.7 413.35 249.9 419.7 237.7 423.55 230.3 433.55 216 443.35 201.95 447.1 194.75 453.35 182.8 453.35 173.4 453.35 164.05 447.1 152.1 443.35 144.9 433.55 130.85 423.55 116.55 419.7 109.15 413.35 96.95 413.35 87.15 413.35 77.35 419.7 65.15 423.55 57.75 433.55 43.45 443.35 29.3 447.1 22.15Z" fill-opacity=".35"/>
      </g>
    </g>
    <mask id="mask_">
      <g>
        <g>
          <g id="Layer3_0_FILL">
            <path fill="#FFF" stroke="none" d="M1274.55 629.15L675.4 30 37 668.45 636.15 1267.6 1274.55 629.15Z" fill-opacity="1"/>
          </g>
        </g>
      </g>
    </mask>
    <g display="none">
      <path id="Layer2_0_1_STROKES" stroke="#000" stroke-width="14.95" stroke-linejoin="miter" stroke-linecap="butt" stroke-miterlimit="10" fill="none" d="M717.65 198.55L1101.45 582.35 582.35 1101.45 198.55 717.65 717.65 198.55Z"/>
      <animate attributeName="display" repeatCount="indefinite" dur="2s" keyTimes="0;.333;1" values="none;inline;inline"/>
    </g>
    <g>
      <path id="Layer1_0_1_STROKES" stroke="#000" stroke-width="14.95" stroke-linejoin="miter" stroke-linecap="butt" stroke-miterlimit="10" fill="none" d="M717.6 198.6L1101.4 582.4 582.3 1101.5 198.5 717.7 717.6 198.6Z"/>
      <animate attributeName="display" repeatCount="indefinite" dur="2s" keyTimes="0;.333;1" values="inline;none;none"/>
    </g>
    <g display="none">
      <use xlink:href="#shine" transform="matrix(.533 -.257 .257 .533 796.6 741.25)" opacity=".57"/>
      <use xlink:href="#shine" transform="matrix(.754 -.364 .364 .754 663.3 320.55)" opacity=".57"/>
      <use xlink:href="#shine" transform="matrix(.647 .045 -.045 .647 636.1 890.55)" opacity=".57"/>
      <use xlink:href="#shine" transform="matrix(.511 -.246 .246 .511 365.75 591.7)" opacity=".57"/>
      <use xlink:href="#shine" transform="matrix(.754 -.364 .364 .754 865.35 450.6)" opacity=".57"/>
      <use xlink:href="#shine" transform="matrix(.432 -.208 .208 .432 596.6 741.35)" opacity=".57"/>
      <use xlink:href="#shine" transform="matrix(.513 -.247 .247 .513 617.75 519.65)" opacity=".57"/>
      <use xlink:href="#shine" transform="matrix(.437 -.211 .211 .437 472.25 861.3)" opacity=".57"/>
      <animate attributeName="display" repeatCount="indefinite" dur="2s" keyTimes="0;.133;.15;.167;.183;.65;.667;.683;.7;1" values="none;inline;none;inline;none;inline;none;inline;none;none"/>
    </g>
    <g display="none">
      <use xlink:href="#shine" transform="matrix(.43 .348 -.348 .43 457 645.05)"/>
      <use xlink:href="#shine" transform="matrix(.503 0 0 .503 770.1 352.05)"/>
      <use xlink:href="#shine" transform="matrix(.525 -.173 .173 .525 870.25 538.2)"/>
      <use xlink:href="#shine" transform="matrix(.504 0 0 .504 862.15 638.1)"/>
      <use xlink:href="#shine" transform="matrix(.702 0 0 .702 696.1 778.15)"/>
      <use xlink:href="#shine" transform="matrix(.416 .282 -.282 .416 993.05 560.2)"/>
      <use xlink:href="#shine" transform="matrix(.487 .261 -.261 .487 305.15 680.2)"/>
      <use xlink:href="#shine" transform="matrix(.487 .261 -.261 .487 577.2 544.2)"/>
      <use xlink:href="#shine" transform="matrix(.525 -.173 .173 .525 368.1 772.3)"/>
      <use xlink:href="#shine" transform="matrix(.416 .282 -.282 .416 576.95 810.25)"/>
      <use xlink:href="#shine" transform="matrix(.525 -.173 .173 .525 490.15 936.3)"/>
      <use xlink:href="#shine" transform="matrix(.504 0 0 .504 774.1 578.1)"/>
      <use xlink:href="#shine" transform="matrix(.503 0 0 .503 694.1 682.1)"/>
      <use xlink:href="#shine" transform="matrix(.525 -.173 .173 .525 666.2 454.2)"/>
      <use xlink:href="#shine" transform="matrix(.504 0 0 .504 540.05 410.05)"/>
      <animate attributeName="display" repeatCount="indefinite" dur="2s" keyTimes="0;.017;.033;.05;.067;.55;.567;.583;.6;1" values="none;inline;none;inline;none;inline;none;inline;none;none"/>
    </g>
    <g id="ends" transform="translate(82.2 82.25)">
      <path fill="#99999A" stroke="none" d="M195.25 995.95Q178.3 1012.9 178.3 1036.85 178.3 1060.8 195.25 1077.75 212.2 1094.7 236.15 1094.7 260.1 1094.7 277.05 1077.75L195.25 995.95M40.9 899.45Q40.9 923.4 57.85 940.35 74.8 957.3 98.75 957.3 122.7 957.3 139.65 940.35L57.85 858.55Q40.9 875.5 40.9 899.45M41.45 759.1L41.45 759.15 0 800.55 335.05 1135.6 376.45 1094.2 376.5 1094.15 41.45 759.1Z"/>
      <path fill="#CECECD" stroke="none" d="M71.5 619.8Q57.75 619.8 45.1 624.95 31.95 630.25 21.85 640.35 11.75 650.45 6.45 663.55 1.3 676.25 1.3 690 1.3 719.05 21.9 739.6L41.45 759.15 41.45 759.1 376.5 1094.15 376.45 1094.2 395.95 1113.7Q416.55 1134.25 445.6 1134.25 474.65 1134.3 495.25 1113.7 515.8 1093.15 515.8 1064.1 515.8 1035 495.25 1014.45L121.15 640.35Q100.55 619.8 71.5 619.8M36.1 753.1L381.6 1098.6 36.1 753.1M716.3 6.6Q703.6 1.45 689.9 1.45 676.15 1.45 663.45 6.6 650.35 11.9 640.25 22 630.15 32.1 624.85 45.2 619.7 57.9 619.7 71.65 619.7 85.35 624.85 98.05 630.15 111.15 640.25 121.25L1014.35 495.35Q1034.9 515.9 1064 515.9 1093.05 515.9 1113.6 495.35 1134.15 474.8 1134.15 445.75 1134.15 416.65 1113.6 396.1L739.5 22Q729.4 11.9 716.3 6.6M957.2 98.85Q957.2 74.9 940.25 57.95 923.3 41 899.35 41 875.35 41 858.45 57.95L940.25 139.75Q957.2 122.85 957.2 98.85M1036.75 178.4Q1012.75 178.4 995.85 195.35L800.5 .05 759.05 41.5 1094.1 376.55 1135.55 335.1 1077.65 277.2Q1094.6 260.25 1094.6 236.3 1094.6 212.3 1077.65 195.35 1060.7 178.4 1036.75 178.4Z"/>
      <path id="Layer5_0_1_STROKES" stroke="#000" stroke-width="12" stroke-linejoin="miter" stroke-linecap="butt" stroke-miterlimit="10" fill="none" d="M995.85 195.35Q1012.75 178.4 1036.75 178.4 1060.7 178.4 1077.65 195.35 1094.6 212.3 1094.6 236.3 1094.6 260.25 1077.65 277.2L1135.55 335.1 1094.1 376.55 759.05 41.5 800.5 .05 995.85 195.35ZM858.45 57.95Q875.35 41 899.35 41 923.3 41 940.25 57.95 957.2 74.9 957.2 98.85 957.2 122.85 940.25 139.75L858.45 57.95ZM739.5 22L1113.6 396.1Q1134.15 416.65 1134.15 445.75 1134.15 474.8 1113.6 495.35 1093.05 515.9 1064 515.9 1034.9 515.9 1014.35 495.35L640.25 121.25Q630.15 111.15 624.85 98.05 619.7 85.35 619.7 71.65 619.7 57.9 624.85 45.2 630.15 32.1 640.25 22 650.35 11.9 663.45 6.6 676.15 1.45 689.9 1.45 703.6 1.45 716.3 6.6 729.4 11.9 739.5 22ZM41.45 759.15L21.9 739.6Q1.3 719.05 1.3 690 1.3 676.25 6.45 663.55 11.75 650.45 21.85 640.35 31.95 630.25 45.1 624.95 57.75 619.8 71.5 619.8 100.55 619.8 121.15 640.35L495.25 1014.45Q515.8 1035 515.8 1064.1 515.8 1093.15 495.25 1113.7 474.65 1134.3 445.6 1134.25 416.55 1134.25 395.95 1113.7L376.45 1094.2 335.05 1135.6 0 800.55 41.45 759.15 41.45 759.1M139.65 940.35Q122.7 957.3 98.75 957.3 74.8 957.3 57.85 940.35 40.9 923.4 40.9 899.45 40.9 875.5 57.85 858.55L139.65 940.35ZM277.05 1077.75Q260.1 1094.7 236.15 1094.7 212.2 1094.7 195.25 1077.75 178.3 1060.8 178.3 1036.85 178.3 1012.9 195.25 995.95L277.05 1077.75ZM36.1 753.1L381.6 1098.6"/>
    </g>
    <g id="sheen" transform="translate(161.25 131.7)">
      <path fill="#FFF" stroke="none" d="M2.75 620.45Q.1 622.9 0 626.5 -.15 630.1 2.3 632.75L183.85 814.3Q186.5 816.85 190 816.85 193.55 816.85 196.2 814.3 198.75 811.75 198.75 808.15 198.75 804.5 196.2 801.95L14.65 620.45Q12.15 618.1 8.7 618.1 5.25 618.1 2.75 620.45M229.7 485.9Q226.1 485.9 223.55 488.45L194.55 517.45Q192 520 192 523.65 192 527.25 194.55 529.8 197.1 532.35 200.75 532.3 204.4 532.3 206.85 529.75L235.85 500.75Q238.45 498.2 238.45 494.6 238.45 491 235.85 488.45 233.3 485.9 229.7 485.9M565.45 150.2Q561.85 150.2 559.3 152.75L265.75 446.3Q263.2 448.95 263.2 452.4 263.15 456 265.7 458.55 268.2 461.1 271.85 461.15 275.45 461.25 278.05 458.65L571.6 165.1Q574.15 162.55 574.15 158.95 574.15 155.35 571.6 152.75 569.05 150.2 565.45 150.2M818 190.25Q818 186.65 815.45 184.1L633.9 2.55Q631.35 0 627.75 0 624.15 0 621.6 2.55 619.05 5.15 619.05 8.75 619.05 12.35 621.6 14.9L803.15 196.4Q805.65 199 809.3 199 812.85 199 815.45 196.4 818 193.85 818 190.25Z" fill-opacity=".7"/>
    </g>
  </g>
</svg>