<svg id="LOGO_Horizontal" data-name="LOGO Horizontal" xmlns="http://www.w3.org/2000/svg" viewBox="0 0 1888.38 610.17">
  <defs>
    <style>
      .cls-1 {
        fill: #fff;
      }
    </style>
  </defs>
  <g>
    <ellipse class="cls-1" cx="307.1" cy="346.57" rx="57.91" ry="48.33"/>
    <path class="cls-1" d="M497.05,307.53c-14.62,0-26.47,16.4-26.47,36.63s11.85,36.63,26.47,36.63,26.48-16.39,26.48-36.63S511.68,307.53,497.05,307.53Z"/>
    <path class="cls-1" d="M447.38,436c-36.77,2.89-68.54-8.31-77.33-25.88,5,26.74,31,45.87,60.65,43.54a59.46,59.46,0,0,0,35.8-15.44,2.64,2.64,0,0,0-2.33-4.53A142.4,142.4,0,0,1,447.38,436Z"/>
    <path class="cls-1" d="M303.45,13.13c-161.58,0-292.57,131-292.57,292.57s131,292.57,292.57,292.57S596,467.28,596,305.7,465,13.13,303.45,13.13Zm-64.66,89.05c88.24-32.57,167.5-44.24,177-26.07,9.4,17.9-52.49,58.14-138.8,90.47a113.84,113.84,0,0,0-4.28-11.17c69.16-25.82,119.37-53.4,111.83-67.77C376.9,73,315.83,85.7,244.86,111.9s-125,56-117.35,70.61c6,11.52,46.5,5.13,98.14-10.91-2.42,4.19-5.24,9.07-8.51,14.7-63.5,17.92-113.42,21.92-120.86,7.74C86.74,175.88,150.55,134.75,238.79,102.18ZM462.6,461.33c-17.39,12.7-38.31,22.53-62.16,29.22S350.13,500.66,322,500.66a322,322,0,0,1-68-7.06,250.32,250.32,0,0,1-59.51-20.55c-36.44-18.31-62.16-44.4-74.55-75.58a33.57,33.57,0,0,1-5,.39c-21,0-38.09-19.49-38.09-43.54s17-43.54,38.09-43.54c.78,0,1.55,0,2.33.09.25-.89.53-1.76.8-2.64,11.63-41.65,43.16-77.4,86.19-100.3l-5,35.26,21.88-43.95c14-24.22,27.82-48.05,28.27-49.07.94-2.11,2.58-9.83,5.62-5.85,2.41,3.15,12.46,17.79,16.18,40.39a238.2,238.2,0,0,1,43.21-3.94h.42a239.42,239.42,0,0,1,55.83,6.51c39.44,9.14,73.88,27.81,99.19,52.78-11.86-17.15-21-27.47-30.6-35.25a211.23,211.23,0,0,0,14.86-23c2.69-4.81,4.7-10.29,8.5-14.45,3.6-3.94,7.53.81,9.11,4.22l.06.12a145.08,145.08,0,0,1,7.88,22.17A163.22,163.22,0,0,1,485,223.43c.43,5.14.29,24.45-.2,34.32a164,164,0,0,1,17.56,27.57,154.57,154.57,0,0,1,6.48,14.82c14.4,6.13,24.51,23.28,24.51,44,0,17.93-7.56,33.19-18.9,40.95C507.15,415.89,489.73,441.51,462.6,461.33Z"/>
  </g>
  <g>
    <path class="cls-1" d="M679.86,67.67q52,28.2,105.83,51.15.36,27.8.7,55.61-28-10.35-55.64-21.92.46,67,.91,133.93,24,6.53,48.24,12.45.35,28,.67,56.06-24.33-4.57-48.52-9.6.66,96.4,1.3,192.82-26.75-.15-53.49-.32Z"/>
    <path class="cls-1" d="M812.89,130.05q26.1,10.41,52.55,19.61,3,168.81,6.1,337.64,24.68,1.21,49.37,2.28.48,24.74,1,49.48-51.48-.18-102.93-.44Q815.93,334.34,812.89,130.05Z"/>
    <path class="cls-1" d="M939.9,472.46,935.19,238c-.85-43.22,27.36-62.88,71.2-52.69,43.86,10,73.86,40.26,74.46,79.21q1.77,107.08,3.53,214.17c.61,38.86-27.78,64.86-71,65.09S940.76,515.59,939.9,472.46Zm72.58,24.93c11.14.31,18.4-8.14,18.17-20.65q-2.1-110.22-4.18-220.43c-.24-12.52-7.93-22.49-19.18-24.71s-18.55,5-18.29,17.89q2.24,112.83,4.49,225.66C993.75,488,1001.35,497.09,1012.48,497.39Z"/>
    <path class="cls-1" d="M1098.81,206.45q27.84,4,55.8,6.74Q1168,334.36,1181,453.73q10.74-119,22-236.73,28,1.67,56.09,2.07c-16,106.65-31.42,213.22-46.39,320.63q-30.9,0-61.79-.06C1133.92,430.55,1116.54,319.79,1098.81,206.45Z"/>
    <path class="cls-1" d="M1301.14,219q37.41-.71,74.75-3.65c14.7,106.88,28.92,214.69,42.74,324.29l-54.38.07q-4.2-39.86-8.46-79.55-18.68.32-37.36.48-4.73,39.58-9.38,79.1h-54.38C1269.67,432.81,1285.16,326.19,1301.14,219Zm50.4,198.47q-6.64-61.17-13.46-122.06-7.53,61.46-14.89,122.6Q1337.37,417.78,1351.54,417.45Z"/>
    <path class="cls-1" d="M1459.38,248.63q-21,2.73-42.1,4.84.27-22.08.55-44.14c46.54-5.32,92.1-16.68,138.93-31.75-.3,15.75-.38,33.23-.69,49-13.87,2.8-28.24,8.71-42.18,11.08q-2.73,150.9-5.48,301.8-26.78.07-53.54.12C1456.37,441.65,1457.88,346.54,1459.38,248.63Z"/>
    <path class="cls-1" d="M1597.66,165.41c24.3-6.64,48.72-17.88,72.68-26,12.7,126.76,25.18,262.14,38.19,399.37q-27.16.13-54.34.24-3.63-48.36-7.25-96-18.51,1.53-37,2.9-5.45,47-10.88,93.3l-54.36.17C1562.18,418.54,1579.91,294.19,1597.66,165.41Zm45.73,226.46q-5.6-73-11.18-144.3-8.4,74.63-16.81,147.62Q1629.41,393.6,1643.39,391.87Z"/>
    <path class="cls-1" d="M1736.94,107.22q35.18-14.72,69.68-31.77c41.3-21.15,68.07,1.44,68.18,60.21v91c0,33.15-10.3,63.12-27.17,76.43,16.77,4.59,27.15,28.81,27.17,62V537.81l-53.49.34q.51-81.66,1-163.3c.13-21.28-6.64-32.77-18-30.39q-9.09,1.86-18.21,3.67-1,95.12-1.91,190.23l-53.51.29Zm68,175.92c11.26-3,18.15-17.89,18.28-39.16l.54-86.07c.1-17.15-6.91-25.76-17.61-21.13q-8.91,3.81-17.88,7.48l-1.44,143.67Q1795.85,285.58,1804.9,283.14Z"/>
  </g>
</svg>
