<svg id="Layer_1" data-name="Layer 1" xmlns="http://www.w3.org/2000/svg" viewBox="0 0 1000 304.11">
  <defs>
    <style>
      .cls-1 {
        fill: #444;
      }
    </style>
  </defs>
  <g>
    <path class="cls-1" d="M506.69,90.46a17,17,0,0,0,0-15.48,13.62,13.62,0,0,0-5.13-5.3,15,15,0,0,0-14.63,0,13.73,13.73,0,0,0-5.09,5.3,17,17,0,0,0,0,15.48,13.64,13.64,0,0,0,5.09,5.29,15,15,0,0,0,14.63,0A13.53,13.53,0,0,0,506.69,90.46Z"/>
    <path class="cls-1" d="M560,69.41a14.26,14.26,0,0,0-13.45,0,12.7,12.7,0,0,0-4.78,4.68,15.27,15.27,0,0,0-2.07,6.82h27.15a14.14,14.14,0,0,0-2-6.78A13.29,13.29,0,0,0,560,69.41Z"/>
    <path class="cls-1" d="M534.43,175.08q-8.16,0-13.32,4.76A16.06,16.06,0,0,0,516,192.2a16.36,16.36,0,0,0,5.16,12.53q5.16,4.83,13.32,4.82t13.21-4.82a16.36,16.36,0,0,0,5.16-12.53,16.06,16.06,0,0,0-5.16-12.36Q542.48,175.08,534.43,175.08Z"/>
    <path class="cls-1" d="M624.41,90.46a17,17,0,0,0,0-15.48,13.73,13.73,0,0,0-5.09-5.3,15,15,0,0,0-14.6,0,13.66,13.66,0,0,0-5.09,5.3,17,17,0,0,0,0,15.48,13.57,13.57,0,0,0,5.09,5.29,15,15,0,0,0,14.6,0A13.64,13.64,0,0,0,624.41,90.46Z"/>
    <path class="cls-1" d="M460.73,175.08a17.14,17.14,0,0,0-12.87,5.22q-5,5.22-5,13.72t5,13.72a18.58,18.58,0,0,0,25.8,0q5.1-5.22,5.1-13.72t-5.1-13.72A17.31,17.31,0,0,0,460.73,175.08Z"/>
    <path class="cls-1" d="M364.6,85.23a6.37,6.37,0,0,0-2.34,5.23,6.53,6.53,0,0,0,2.58,5.46c1.72,1.34,4.14,2,7.26,2a13.31,13.31,0,0,0,7.5-2A12.39,12.39,0,0,0,384.25,90V83.33H372.17Q366.94,83.33,364.6,85.23Z"/>
    <path class="cls-1" d="M439.62,85.23a6.35,6.35,0,0,0-2.35,5.23,6.53,6.53,0,0,0,2.58,5.46c1.72,1.34,4.14,2,7.27,2a13.31,13.31,0,0,0,7.5-2A12.39,12.39,0,0,0,459.27,90V83.33H447.18Q442,83.33,439.62,85.23Z"/>
    <path class="cls-1" d="M387.6,175.08a17.14,17.14,0,0,0-12.87,5.22q-5,5.22-5,13.72t5,13.72a18.58,18.58,0,0,0,25.8,0q5.1-5.22,5.1-13.72t-5.1-13.72A17.31,17.31,0,0,0,387.6,175.08Z"/>
    <polygon class="cls-1" points="297.9 56.72 285.47 84.14 310.39 84.14 297.9 56.72"/>
    <path class="cls-1" d="M907.44,0H94A93.26,93.26,0,0,0,.69,93.26V210.85A93.27,93.27,0,0,0,94,304.11H907.44a93.25,93.25,0,0,0,93.25-93.26V93.26A93.25,93.25,0,0,0,907.44,0Zm-177,50.06h3.39V72.4a12.93,12.93,0,0,1,5.43-5.67,17.25,17.25,0,0,1,8.49-2q6.64,0,10.52,3.87t3.87,11.13v20.71h-3.39V80q0-6-3-9.1t-8.46-3.12q-6.24,0-9.84,3.74t-3.6,10v18.88h-3.39ZM640.26,65h3.26v7.67A13.45,13.45,0,0,1,649,66.83a16.88,16.88,0,0,1,8.59-2.1q6.66,0,10.52,3.87T672,79.73v20.71h-3.39V80q0-6-3-9.1c-2-2.08-4.83-3.12-8.45-3.12q-6.26,0-9.85,3.74t-3.6,10v18.88h-3.39ZM522.47,50.06h3.4v50.38h-3.4ZM456.59,70.29q-2.68-2.58-7.84-2.58A18.8,18.8,0,0,0,442,68.94a16.92,16.92,0,0,0-5.46,3.25l-1.7-2.44a18.83,18.83,0,0,1,6.38-3.7A23.25,23.25,0,0,1,449,64.73q6.59,0,10.11,3.36T462.66,78v22.47H459.4V94.12A11.78,11.78,0,0,1,454.45,99a16.49,16.49,0,0,1-7.81,1.73q-5.91,0-9.33-2.79A9.62,9.62,0,0,1,437,83.43q3.15-2.75,10.08-2.75h12.15V77.83C459.27,74.53,458.37,72,456.59,70.29Zm-55.23-18.6a2.69,2.69,0,0,1,2-.81,2.74,2.74,0,0,1,2,.78,2.57,2.57,0,0,1,.81,1.93,2.78,2.78,0,0,1-2.78,2.79,2.74,2.74,0,0,1-2-.78,2.59,2.59,0,0,1-.81-1.94A2.69,2.69,0,0,1,401.36,51.69ZM405,65v35.44h-3.4V65Zm-23.46,5.29q-2.69-2.58-7.84-2.58A18.83,18.83,0,0,0,367,68.94a16.92,16.92,0,0,0-5.46,3.25l-1.7-2.44a18.92,18.92,0,0,1,6.38-3.7A23.29,23.29,0,0,1,374,64.73q6.58,0,10.12,3.36T387.65,78v22.47h-3.26V94.12a11.75,11.75,0,0,1-5,4.86,16.45,16.45,0,0,1-7.8,1.73q-5.91,0-9.34-2.79A9.62,9.62,0,0,1,362,83.43q3.15-2.75,10.08-2.75h12.15V77.83C384.25,74.53,383.36,72,381.57,70.29ZM323.9,65,338,96.7,352.28,65h3.46l-16,35.44h-3.47L320.3,65ZM296.2,52.91h3.46l21.86,47.53h-3.73l-6.11-13.38H284.11l-6,13.38h-3.73ZM154.82,98.25l41.93,24.2-30,29L62.94,51.16Zm-98-43L161.55,156.47,56.71,257.83ZM155,210.45,64.46,260.31l102.26-98.84,27.33,26.43Zm86.33-49.84-40.79,23.55-28.64-27.68,31.33-30.29,38.1,22a7.18,7.18,0,0,1,0,12.44Zm45.78,38.28a26.44,26.44,0,0,0,10.2,10,29.91,29.91,0,0,0,14.8,3.63,32,32,0,0,0,16.33-4.08V183.7h13.94v31.63a44.37,44.37,0,0,1-14.28,7.49,55.08,55.08,0,0,1-16.78,2.6,45.22,45.22,0,0,1-21.89-5.27,39.08,39.08,0,0,1-15.3-14.57,42.34,42.34,0,0,1,0-42,39,39,0,0,1,15.36-14.57,45.88,45.88,0,0,1,22-5.27,48.27,48.27,0,0,1,18.15,3.29,35.55,35.55,0,0,1,13.71,9.63l-9.29,9.08a29.83,29.83,0,0,0-21.89-9.08,31,31,0,0,0-14.91,3.52,25.67,25.67,0,0,0-10.2,9.86,28.37,28.37,0,0,0-3.68,14.52A27.87,27.87,0,0,0,287.09,198.89Zm128.69,11.17a29,29,0,0,1-11.51,11.06,36.81,36.81,0,0,1-33.22,0,28.91,28.91,0,0,1-11.51-11.06,33,33,0,0,1,0-32,29,29,0,0,1,11.51-11,36.73,36.73,0,0,1,33.22,0,29.1,29.1,0,0,1,11.51,11,33,33,0,0,1,0,32Zm7-109.62h-3.4V50.06h3.4Zm66.16,109.62a29,29,0,0,1-11.51,11.06,36.81,36.81,0,0,1-33.22,0,29,29,0,0,1-11.51-11.06,33,33,0,0,1,0-32,29.1,29.1,0,0,1,11.51-11,36.73,36.73,0,0,1,33.22,0,29.1,29.1,0,0,1,11.51,11,33,33,0,0,1,0,32ZM485.85,98.43a15.4,15.4,0,0,1-5.94-6.34v8.35h-3.26V50.06H480v23A15.29,15.29,0,0,1,486,66.93a16.58,16.58,0,0,1,8.49-2.2,17.89,17.89,0,0,1,9,2.27,16.26,16.26,0,0,1,6.28,6.38,20.27,20.27,0,0,1,0,18.64,16.59,16.59,0,0,1-6.28,6.38,17.62,17.62,0,0,1-9,2.31A16.47,16.47,0,0,1,485.85,98.43Zm80.9,116.68q0,32-32.66,32a60.7,60.7,0,0,1-16.55-2.21,35,35,0,0,1-12.93-6.41L511,227.81a30.52,30.52,0,0,0,10,5.27,39.37,39.37,0,0,0,12.3,2q10,0,14.62-4.53t4.65-13.84v-3.17a23.29,23.29,0,0,1-8.84,6,31.21,31.21,0,0,1-11.45,2,32.8,32.8,0,0,1-15.59-3.69,27.6,27.6,0,0,1-11-10.37,31,31,0,0,1,0-30.56,27.4,27.4,0,0,1,11-10.26,33.24,33.24,0,0,1,15.59-3.63,31.87,31.87,0,0,1,12,2.16,22.06,22.06,0,0,1,9,6.57v-8h13.5Zm3.38-131.58H539.65a14.85,14.85,0,0,0,2.1,7.37,13.54,13.54,0,0,0,5.33,5,16,16,0,0,0,7.57,1.76,16.19,16.19,0,0,0,6.42-1.25A12.48,12.48,0,0,0,566,92.7l2,2.24a15.14,15.14,0,0,1-5.81,4.27,20.16,20.16,0,0,1-17-.81A16.86,16.86,0,0,1,538.66,92a18.36,18.36,0,0,1-2.34-9.3,19.3,19.3,0,0,1,2.21-9.27A16.26,16.26,0,0,1,544.6,67,17.61,17.61,0,0,1,562,67a16.14,16.14,0,0,1,6,6.35,19.06,19.06,0,0,1,2.21,9.23Zm29.38,140.76H585.34V140.16h14.17ZM603,98.4A16.58,16.58,0,0,1,596.61,92a19.74,19.74,0,0,1,0-18.53A16.58,16.58,0,0,1,603,67a19,19,0,0,1,18.13,0,16.67,16.67,0,0,1,6.35,6.42,19.74,19.74,0,0,1,0,18.53,16.67,16.67,0,0,1-6.35,6.42,18.94,18.94,0,0,1-18.13,0ZM674.8,198.55H627.29a16.42,16.42,0,0,0,6.52,10.6,21.34,21.34,0,0,0,13.09,3.92,22.08,22.08,0,0,0,16.44-6.58l7.6,8.73a25.55,25.55,0,0,1-10.32,7.37A41,41,0,0,1,629,221.12a28.57,28.57,0,0,1-11.74-11.06,31.19,31.19,0,0,1-4.14-16,31.7,31.7,0,0,1,4-15.93A28.55,28.55,0,0,1,628.31,167a32.64,32.64,0,0,1,16.1-4A31.78,31.78,0,0,1,660.23,167a27.72,27.72,0,0,1,10.88,11A33.36,33.36,0,0,1,675,194.36C675,195.34,675,196.74,674.8,198.55Zm43-98.49a12.65,12.65,0,0,1-4,.65q-4.62,0-7.13-2.55a9.63,9.63,0,0,1-2.52-7.09V67.92h-6.51V65h6.51V57.26h3.4V65h11.27v2.92H707.47V90.73A7.48,7.48,0,0,0,709.13,96a6.38,6.38,0,0,0,4.92,1.8,7.89,7.89,0,0,0,5.5-2L721,98.2A8.61,8.61,0,0,1,717.75,100.06Zm65.89,88.12A26,26,0,0,1,771.91,198a44.13,44.13,0,0,1-18,3.4H736v22.9H721.28V144.92h32.65a44.13,44.13,0,0,1,18,3.4,26.15,26.15,0,0,1,11.73,9.75,29.82,29.82,0,0,1,0,30.11Zm6.93-87.47a19,19,0,0,1-9.44-2.31A16.86,16.86,0,0,1,774.64,92a18.36,18.36,0,0,1-2.34-9.3,19.3,19.3,0,0,1,2.21-9.27A16.28,16.28,0,0,1,780.59,67a17.59,17.59,0,0,1,17.34,0,16.14,16.14,0,0,1,6,6.35,19.06,19.06,0,0,1,2.21,9.23l-.07,1H775.63a14.85,14.85,0,0,0,2.1,7.37,13.54,13.54,0,0,0,5.33,5,16,16,0,0,0,7.57,1.76,16.19,16.19,0,0,0,6.42-1.25A12.48,12.48,0,0,0,802,92.7l2,2.24a15.07,15.07,0,0,1-5.81,4.27A19,19,0,0,1,790.57,100.71Zm25.84,123.58H802.24V140.16h14.17Zm69.27,0H872.3v-7.37a16.48,16.48,0,0,1-7.42,6.07,29.22,29.22,0,0,1-11.62,2.09,28.47,28.47,0,0,1-11.91-2.32,18.38,18.38,0,0,1-7.88-6.46,16.43,16.43,0,0,1-2.78-9.36,16,16,0,0,1,6.07-13.09q6.06-4.93,19.1-4.94h15.65V188c0-4.23-1.27-7.49-3.8-9.75s-6.29-3.4-11.28-3.4a32.74,32.74,0,0,0-10,1.58,24.89,24.89,0,0,0-8.34,4.42l-5.55-10.31A34.43,34.43,0,0,1,844,165a51.12,51.12,0,0,1,14.17-1.93q13.38,0,20.47,6.41t7.08,19.33ZM931,229.17q-4,9.86-9.64,13.89a23.1,23.1,0,0,1-13.72,4,28.27,28.27,0,0,1-9-1.47,19.84,19.84,0,0,1-7.25-4.09l5.67-10.43a15.21,15.21,0,0,0,4.81,3.06,14.7,14.7,0,0,0,5.62,1.14,9.65,9.65,0,0,0,6.18-1.93,17.15,17.15,0,0,0,4.47-6.46l1-2.38-26.41-60.78h14.74l19,44.79,19.17-44.79h13.6Z"/>
    <path class="cls-1" d="M767.88,161.48q-5-4.08-14.63-4.09H736v31.52h17.23q9.64,0,14.63-4.08t5-11.68Q772.87,165.56,767.88,161.48Z"/>
    <path class="cls-1" d="M800.82,74.1A13.29,13.29,0,0,0,796,69.41a13.42,13.42,0,0,0-6.72-1.7,13.63,13.63,0,0,0-6.73,1.67,12.7,12.7,0,0,0-4.78,4.68,15.27,15.27,0,0,0-2.07,6.82h27.15A14.14,14.14,0,0,0,800.82,74.1Z"/>
    <path class="cls-1" d="M844.64,206.38a7.22,7.22,0,0,0,3.06,6.12c2,1.51,4.88,2.27,8.5,2.27a18.34,18.34,0,0,0,9.47-2.44,13.27,13.27,0,0,0,5.84-7v-7H856.88Q844.64,198.33,844.64,206.38Z"/>
    <path class="cls-1" d="M656,178.48a16.89,16.89,0,0,0-11.56-4.08,16.77,16.77,0,0,0-17.24,14.74h34.36A16.77,16.77,0,0,0,656,178.48Z"/>
  </g>
</svg>
