<svg width="38" height="43" viewBox="0 0 38 43" fill="none" xmlns="http://www.w3.org/2000/svg">
<g clip-path="url(#clip0_1199_2485)">
<path d="M14.9103 9.78687C14.4383 9.7146 14.4189 9.70745 14.6412 9.67251C15.0663 9.60818 16.0717 9.69554 16.7651 9.85755C18.3814 10.2356 19.8548 11.2037 21.4259 12.9223L21.8429 13.379L22.4401 13.2853C24.956 12.8882 27.5147 13.2059 29.6556 14.1756C30.244 14.4424 31.1726 14.9745 31.2889 15.1111C31.3253 15.1548 31.3932 15.4352 31.4393 15.7346C31.6009 16.767 31.5201 17.5612 31.1968 18.1569C31.0214 18.4801 31.0117 18.5826 31.1289 18.8581C31.185 18.9723 31.2724 19.0688 31.3814 19.1366C31.4904 19.2044 31.6166 19.2408 31.7456 19.2417C32.2774 19.2417 32.8504 18.3959 33.1195 17.2197L33.2254 16.7527L33.4339 16.9854C34.5791 18.2561 35.4778 19.9986 35.6329 21.236L35.6725 21.5584L35.4761 21.2654C35.1448 20.761 34.8126 20.4172 34.3859 20.14C33.6181 19.6404 32.8051 19.4705 30.6545 19.3593C28.7149 19.2584 27.6117 19.0956 26.5215 18.7462C24.6627 18.1513 23.7308 17.3603 21.5269 14.5187C20.5482 13.2567 19.9437 12.5586 19.3448 11.9963C17.9741 10.7216 16.6309 10.049 14.9103 9.78687Z" fill="#D52D6F"/>
<path d="M31.7268 12.6038C31.7753 11.7588 31.8925 11.2005 32.1269 10.6914C32.1802 10.563 32.2462 10.4401 32.3241 10.3245C32.3378 10.3245 32.2974 10.4738 32.2344 10.6556C32.0638 11.1496 32.0363 11.8255 32.1535 12.6125C32.303 13.6108 32.3871 13.7546 33.4612 14.8363C33.9647 15.3422 34.5506 15.9799 34.7623 16.2539L35.1487 16.7519L34.7623 16.3953C34.2904 15.9609 33.205 15.1119 32.9649 14.9903C32.8033 14.9109 32.7799 14.9109 32.6813 15.0078C32.5827 15.1047 32.5706 15.231 32.5576 15.8663C32.5382 16.8559 32.4008 17.4913 32.0727 18.1266C31.8933 18.4705 31.865 18.3974 32.0275 18.0091C32.1479 17.72 32.1608 17.5921 32.16 16.6343C32.16 14.7092 31.9256 14.2462 30.5614 13.4528C30.2155 13.2527 29.6465 12.9628 29.2958 12.8095C28.945 12.6562 28.667 12.5228 28.6775 12.5125C28.7163 12.4751 30.0466 12.8564 30.5816 13.0589C31.3785 13.3599 31.5094 13.3988 31.6064 13.3623C31.6638 13.3353 31.6953 13.1494 31.7268 12.6038Z" fill="#D52D6F"/>
<path d="M15.8274 15.8982C14.8688 14.6012 14.2756 12.6126 14.4041 11.1259L14.4437 10.666L14.6619 10.7049C15.1674 10.8137 15.6547 10.992 16.1094 11.2347C17.017 11.7763 17.4098 12.4895 17.8066 14.3217C17.9238 14.8578 18.0773 15.4653 18.1485 15.6718C18.2624 16.0022 18.6924 16.7749 19.0423 17.2769C19.2937 17.639 19.1231 17.8098 18.5695 17.7605C17.7225 17.6843 16.5709 16.9028 15.8274 15.8982Z" fill="#D52D6F"/>
<path d="M30.5638 25.5499C26.0841 23.7773 24.5024 22.239 24.5024 19.6427C24.5024 19.2607 24.5162 18.9486 24.5323 18.9486C24.6671 19.0328 24.7957 19.1262 24.917 19.2282C25.8254 19.9429 26.8429 20.2503 29.6595 20.6537C31.3162 20.892 32.2457 21.0834 33.1088 21.3637C35.8437 22.2548 37.5352 24.064 37.9385 26.526C38.0557 27.2408 37.987 28.5846 37.7971 29.2914C37.6467 29.8473 37.1885 30.8575 37.0697 30.8957C37.0366 30.9068 37.0034 30.7797 36.9945 30.6074C36.9485 29.6821 36.4733 28.7807 35.674 28.1072C34.7672 27.3408 33.5476 26.7301 30.5638 25.5499Z" fill="#D52D6F"/>
<path d="M27.4191 26.2878C27.3662 25.9732 27.2939 25.6621 27.2025 25.3562L27.0886 25.0171L27.3011 25.2506C27.5945 25.5754 27.8265 25.99 28.0237 26.5419C28.174 26.9637 28.191 27.0891 28.1853 27.7737C28.1796 28.4583 28.1659 28.5878 28.0237 28.965C27.8306 29.5237 27.5067 30.0299 27.0781 30.443C26.2602 31.2618 25.2079 31.7137 23.6894 31.9027C23.4259 31.9353 22.6565 31.9901 21.9801 32.025C20.2764 32.1116 19.1514 32.2919 18.1468 32.6398C18.0022 32.6898 17.8721 32.7192 17.8591 32.7073C17.8187 32.6675 18.5057 32.2657 19.0714 31.9973C19.8707 31.6184 20.6659 31.4127 22.4488 31.1236C23.3289 30.9799 24.2381 30.806 24.4693 30.7353C26.657 30.0801 27.778 28.3845 27.4191 26.2878Z" fill="#D52D6F"/>
<path d="M29.4729 29.8704C28.8781 28.6124 28.7407 27.3989 29.0688 26.2664C29.1036 26.1457 29.1594 26.0464 29.1933 26.0464C29.3051 26.0861 29.4103 26.1421 29.5053 26.2124C29.78 26.3934 30.3296 26.6992 31.7956 27.4831C33.6246 28.4631 34.6671 29.2216 35.3759 30.088C35.9966 30.8473 36.3813 31.7122 36.5664 32.7661C36.6706 33.3633 36.6092 34.8008 36.4532 35.402C35.9618 37.2977 34.8191 38.7876 33.189 39.6565C33.0356 39.7439 32.8766 39.8214 32.7129 39.8884C32.6895 39.8884 32.7768 39.6716 32.9061 39.4055C33.454 38.2793 33.5171 37.1818 33.1025 35.9643C32.8487 35.2177 32.3307 34.306 31.2865 32.7668C30.0694 30.9775 29.772 30.501 29.4729 29.8704Z" fill="#D52D6F"/>
<path d="M12.6465 36.6536C14.3089 35.2749 16.3771 34.2948 18.2617 33.9938C19.0699 33.8644 20.4261 33.9144 21.1777 34.105C22.3835 34.4076 23.4616 35.0867 24.0225 35.8959C24.5704 36.6862 24.8056 37.3755 25.0497 38.9083C25.1467 39.5127 25.2517 40.1195 25.2832 40.2584C25.4675 41.0526 25.8247 41.688 26.2684 42.0057C26.9724 42.5116 28.1846 42.5433 29.3775 42.0851C29.5796 42.0057 29.7549 41.954 29.7679 41.966C29.8107 42.0088 29.2102 42.4036 28.7867 42.6116C28.287 42.8745 27.7274 43.0079 27.1607 42.9992C26.0688 42.9992 25.162 42.4536 24.4056 41.3401C24.256 41.1209 23.9206 40.4665 23.6612 39.882C22.8627 38.0911 22.4683 37.5455 21.5405 36.9482C20.7324 36.4288 19.6922 36.3359 18.9091 36.71C17.8803 37.2056 17.5926 38.4977 18.3296 39.3165C18.6736 39.6684 19.1251 39.9004 19.6155 39.9773C19.8103 40.0025 20.0085 39.9864 20.1965 39.9299C20.3845 39.8735 20.5579 39.778 20.7052 39.65C20.8524 39.5221 20.97 39.3645 21.05 39.1881C21.1299 39.0116 21.1705 38.8203 21.1688 38.6272C21.1688 38.0895 20.9578 37.7821 20.4285 37.5471C19.7011 37.2294 18.9269 37.6011 18.9301 38.2698C18.9301 38.5541 19.0578 38.7336 19.3488 38.8622C19.5354 38.9456 19.5395 38.952 19.3875 38.921C18.7232 38.786 18.568 37.999 19.1014 37.4764C19.7431 36.8498 21.0686 37.1261 21.526 37.9823C21.7175 38.3413 21.7394 39.0576 21.5729 39.4913C21.1995 40.4594 20.1117 40.9677 19.0077 40.6913C18.2561 40.5023 17.9506 40.2982 17.0446 39.3817C15.4703 37.7877 14.8625 37.4756 12.5891 37.1309L12.1543 37.0642L12.6465 36.6536Z" fill="#D52D6F"/>
<path fill-rule="evenodd" clip-rule="evenodd" d="M0.774287 0.953032C6.03233 7.22716 14.14 16.9878 14.5441 17.5342C14.8763 17.9861 14.751 18.3919 14.1821 18.7096C13.8653 18.8867 13.2122 19.0654 12.889 19.0654C12.4799 19.0513 12.0907 18.8889 11.7963 18.6095C11.5821 18.4102 10.7198 17.1442 8.7252 14.1088C7.20177 11.7858 5.92727 9.85832 5.89252 9.82576C5.8117 9.7519 5.8117 9.75428 8.57003 14.6012C10.3012 17.6454 10.8855 18.7215 10.8855 18.8653C10.8855 19.1583 10.8047 19.3124 10.4369 19.7151C9.82433 20.3861 9.54793 21.1446 9.35316 22.7028C9.13091 24.45 8.5078 25.6898 6.78152 27.8063C5.77048 29.0452 5.6048 29.2724 5.35022 29.7719C5.02695 30.4009 4.94047 30.7527 4.90411 31.5469C4.8529 32.2875 4.95405 33.0305 5.20152 33.7318C5.42943 34.4346 5.66784 34.8984 6.27802 35.8261C6.80415 36.6274 7.10722 37.2222 7.10722 37.4549C7.10722 37.6408 7.14359 37.6408 7.95904 37.4597C9.91 37.0269 11.4948 36.2684 12.3863 35.3321C12.9375 34.7539 13.0668 34.4354 13.0708 33.6436C13.0708 33.1258 13.0555 33.017 12.9132 32.7192C12.6813 32.2347 12.2586 31.8313 11.3284 31.2062C10.1096 30.3874 9.58915 29.7282 9.44529 28.8237C9.3273 28.0803 9.46388 27.5529 10.1387 26.1663C10.8362 24.7288 11.0091 24.1157 11.1263 22.6671C11.2023 21.7307 11.3065 21.3614 11.5805 21.0652C11.8658 20.7562 12.1228 20.6514 12.8292 20.5561C13.9808 20.402 14.7147 20.109 15.3176 19.5634C15.8405 19.0868 16.0595 18.6334 16.0926 17.9464L16.1185 17.4254L15.8259 17.091C14.7745 15.8759 0.0655092 0 -0.00318641 0C-0.0136928 0 0.334634 0.428864 0.774287 0.953032ZM7.7077 32.4968C7.82309 32.2959 7.85755 32.0597 7.80428 31.835C7.751 31.6103 7.61387 31.4134 7.41998 31.2833C7.04175 31.0363 6.4542 31.153 6.4542 31.4747C6.4542 31.5731 6.50916 31.6446 6.63362 31.7074C6.84375 31.8138 6.8591 31.9329 6.69423 32.1767C6.52937 32.4206 6.53987 32.6413 6.73222 32.7883C7.04095 33.0265 7.47898 32.8955 7.7077 32.4968Z" fill="#D52D6F"/>
<path fill-rule="evenodd" clip-rule="evenodd" d="M16.8515 20.8269C16.3108 20.9905 15.7855 21.5536 15.6222 22.1444C15.5236 22.5042 15.5794 23.1364 15.7281 23.3318C15.9705 23.6494 16.2009 23.7289 16.8296 23.7289C18.0613 23.7201 19.1313 23.2015 19.2542 22.5519C19.3568 22.0206 18.8865 21.2812 18.2391 20.9595C17.9061 20.7896 17.1957 20.7236 16.8515 20.8269ZM18.2908 21.9332C18.4808 21.6679 18.3983 21.382 18.075 21.1882C17.46 20.8189 16.5298 21.1239 16.5298 21.6949C16.5298 21.9793 17.0147 22.2898 17.4592 22.2898C17.755 22.2898 18.1607 22.1159 18.2908 21.9332Z" fill="#D52D6F"/>
</g>
<defs>
<clipPath id="clip0_1199_2485">
<rect width="38" height="43" fill="white"/>
</clipPath>
</defs>
</svg>
