<svg id="Layer_1" data-name="Layer 1" xmlns="http://www.w3.org/2000/svg" viewBox="0 0 1000 304.11">
  <defs>
    <style>
      .cls-1 {
        fill: #444;
      }
    </style>
  </defs>
  <g>
    <polygon class="cls-1" points="299.45 193.66 329.96 193.66 314.65 158.16 299.45 193.66"/>
    <path class="cls-1" d="M562.19,95.89A12.39,12.39,0,0,0,566.84,90V83.33H554.76q-5.24,0-7.57,1.9a6.35,6.35,0,0,0-2.35,5.23,6.53,6.53,0,0,0,2.58,5.46q2.58,2,7.27,2A13.31,13.31,0,0,0,562.19,95.89Z"/>
    <path class="cls-1" d="M480.09,173.94a18.63,18.63,0,0,0-9.4,2.38,17.19,17.19,0,0,0-6.61,6.78,22.58,22.58,0,0,0,0,20.42,17.15,17.15,0,0,0,6.61,6.79,18.63,18.63,0,0,0,9.4,2.38,17.52,17.52,0,0,0,13.17-5.34q5.16-5.32,5.16-14t-5.16-14A17.52,17.52,0,0,0,480.09,173.94Z"/>
    <path class="cls-1" d="M673.8,75a13.73,13.73,0,0,0-5.09-5.3,15,15,0,0,0-14.6,0A13.66,13.66,0,0,0,649,75a17,17,0,0,0,0,15.48,13.57,13.57,0,0,0,5.09,5.29,15,15,0,0,0,14.6,0,13.64,13.64,0,0,0,5.09-5.29,17,17,0,0,0,0-15.48Z"/>
    <path class="cls-1" d="M400.5,173.94a18.57,18.57,0,0,0-9.39,2.38,17.21,17.21,0,0,0-6.62,6.78,22.66,22.66,0,0,0,0,20.42,17.17,17.17,0,0,0,6.62,6.79,18.57,18.57,0,0,0,9.39,2.38,17.52,17.52,0,0,0,13.17-5.34q5.16-5.32,5.16-14t-5.16-14A17.52,17.52,0,0,0,400.5,173.94Z"/>
    <path class="cls-1" d="M360.83,69.68a15,15,0,0,0-14.6,0,13.73,13.73,0,0,0-5.09,5.3,17,17,0,0,0,0,15.48,13.64,13.64,0,0,0,5.09,5.29,15,15,0,0,0,14.6,0,13.57,13.57,0,0,0,5.09-5.29,17,17,0,0,0,0-15.48A13.66,13.66,0,0,0,360.83,69.68Z"/>
    <path class="cls-1" d="M523.83,69.68a15,15,0,0,0-14.59,0,13.76,13.76,0,0,0-5.1,5.3,17,17,0,0,0,0,15.48,13.66,13.66,0,0,0,5.1,5.29,15,15,0,0,0,14.59,0,13.57,13.57,0,0,0,5.09-5.29,17,17,0,0,0,0-15.48A13.66,13.66,0,0,0,523.83,69.68Z"/>
    <path class="cls-1" d="M590.84,95.75a15,15,0,0,0,14.59,0,13.66,13.66,0,0,0,5.1-5.29,17,17,0,0,0,0-15.48,13.76,13.76,0,0,0-5.1-5.3,15,15,0,0,0-14.59,0,13.66,13.66,0,0,0-5.09,5.3,17,17,0,0,0,0,15.48A13.57,13.57,0,0,0,590.84,95.75Z"/>
    <path class="cls-1" d="M850.21,74.1a13.21,13.21,0,0,0-4.82-4.69,13.37,13.37,0,0,0-6.72-1.7A13.56,13.56,0,0,0,832,69.38a12.65,12.65,0,0,0-4.79,4.68,15.27,15.27,0,0,0-2.07,6.83h27.15A14.15,14.15,0,0,0,850.21,74.1Z"/>
    <path class="cls-1" d="M907.44,0H94A93.25,93.25,0,0,0,.7,93.26V210.85A93.25,93.25,0,0,0,94,304.11H907.44a93.27,93.27,0,0,0,93.26-93.26V93.26A93.26,93.26,0,0,0,907.44,0ZM823.9,73.45A16.19,16.19,0,0,1,830,67a17.56,17.56,0,0,1,17.34,0,16.14,16.14,0,0,1,6,6.35,18.94,18.94,0,0,1,2.21,9.23l-.07,1H825a14.85,14.85,0,0,0,2.1,7.37,13.54,13.54,0,0,0,5.33,5,17.14,17.14,0,0,0,14,.51,12.48,12.48,0,0,0,4.92-3.7l2,2.24a15.23,15.23,0,0,1-5.8,4.28,20.23,20.23,0,0,1-17-.82A16.76,16.76,0,0,1,824,92a18.26,18.26,0,0,1-2.35-9.3A19.3,19.3,0,0,1,823.9,73.45ZM779.81,50.06h3.39V72.4a13,13,0,0,1,5.43-5.67,17.25,17.25,0,0,1,8.49-2q6.64,0,10.52,3.87t3.87,11.13v20.71h-3.39V80q0-6-3-9.1t-8.46-3.12q-6.24,0-9.84,3.74t-3.6,10v18.88h-3.39ZM689.65,65h3.26v7.67a13.5,13.5,0,0,1,5.46-5.84,16.9,16.9,0,0,1,8.59-2.1q6.66,0,10.53,3.87t3.87,11.13v20.71H718V80q0-6-3-9.1t-8.45-3.12q-6.25,0-9.85,3.74t-3.59,10v18.88h-3.4Zm-107,8.38A16.32,16.32,0,0,1,589,67a17.89,17.89,0,0,1,9-2.27A16.28,16.28,0,0,1,606.45,67a15.94,15.94,0,0,1,5.94,6.24V50.06h3.4v50.38h-3.33V92.09a15.21,15.21,0,0,1-5.91,6.38,16.66,16.66,0,0,1-8.62,2.24,17.62,17.62,0,0,1-9-2.31A16.59,16.59,0,0,1,582.69,92a20.27,20.27,0,0,1,0-18.64ZM485,50.06h3.39v50.38H485ZM377.5,65l11.81,31.64L401.39,65h2.92l12,31.57L428.28,65h3.12L418,100.44h-3.19L402.82,69.68l-12,30.76h-3.12L374.24,65ZM284.69,52.91H303.5A27.45,27.45,0,0,1,316.63,56a22.32,22.32,0,0,1,8.93,8.45,23.6,23.6,0,0,1,3.19,12.26,23.59,23.59,0,0,1-3.19,12.25,22.25,22.25,0,0,1-8.93,8.45,27.45,27.45,0,0,1-13.13,3.06H284.69Zm-143,15.65c7.1-8.33,19-14.43,28.92-14.84a1.6,1.6,0,0,1,1.63,1.4c1.15,10.49-2.66,22.19-10.17,31.31-7.15,8.64-17.61,14-27.31,14-.68,0-1.36,0-2-.08A1.59,1.59,0,0,1,131.27,99C129.72,87.23,135.62,75.56,141.67,68.56Zm69.75,125.7-.06.17a105.61,105.61,0,0,1-13.21,27C190.57,232.55,182,245.1,168,245.36c-6.54.12-11-1.8-15.26-3.66s-8.86-3.84-15.93-3.84c-7.42,0-12.16,2-16.73,4-4.08,1.73-8.29,3.53-14.13,3.76l-.71,0C92.83,245.61,83.76,234,74.81,221c-17.94-25.9-28.25-68.62-12-96.77,8.53-14.84,24-24.21,40.38-24.45h.5c7,0,13.69,2.64,19.56,5,4.39,1.74,8.18,3.24,11.1,3.24,2.6,0,6.37-1.48,10.73-3.21,6.33-2.49,14.2-5.59,22.41-5.59,1,0,2.1,0,3.11.15,7,.3,24.37,2.8,35.7,19.39a1.54,1.54,0,0,1,.24,1.2,1.52,1.52,0,0,1-.69,1l-.15.1c-3.29,2-19.71,13.28-19.5,34.5.23,26.13,21.83,35.71,24.3,36.72l.11.05A1.59,1.59,0,0,1,211.42,194.26Zm131.66,30L335,205.5h-40.6l-8,18.79H270.8l36.54-81.21h14.85l36.66,81.21ZM362.59,98.4a18.92,18.92,0,0,1-18.12,0A16.6,16.6,0,0,1,338.12,92a19.74,19.74,0,0,1,0-18.53A16.51,16.51,0,0,1,344.47,67a18.92,18.92,0,0,1,18.12,0,16.51,16.51,0,0,1,6.35,6.41,19.74,19.74,0,0,1,0,18.53A16.6,16.6,0,0,1,362.59,98.4ZM429.51,210a28.33,28.33,0,0,1-11.2,11.2,32.85,32.85,0,0,1-16.18,3.94q-12.54,0-19.84-8.35V246.8h-14.5V162.34h13.8v8.12a22.45,22.45,0,0,1,8.88-6.61,30,30,0,0,1,11.66-2.21,32.86,32.86,0,0,1,16.18,4,28.47,28.47,0,0,1,11.2,11.13,36,36,0,0,1,0,33.24Zm13.16-128.4v18.88h-3.39V65h3.26v7.67A13.5,13.5,0,0,1,448,66.83a16.85,16.85,0,0,1,8.59-2.1q6.65,0,10.52,3.87T471,79.73v20.71h-3.39V80q0-6-3-9.1t-8.46-3.12q-6.24,0-9.84,3.74T442.67,81.56ZM509.09,210a28.24,28.24,0,0,1-11.19,11.2,32.89,32.89,0,0,1-16.19,3.94q-12.52,0-19.83-8.35V246.8H447.37V162.34h13.81v8.12a22.42,22.42,0,0,1,8.87-6.61,30,30,0,0,1,11.66-2.21,32.9,32.9,0,0,1,16.19,4,28.38,28.38,0,0,1,11.19,11.13,36,36,0,0,1,0,33.24ZM532,92a16.67,16.67,0,0,1-6.35,6.42,18.94,18.94,0,0,1-18.13,0A16.67,16.67,0,0,1,501.12,92a19.74,19.74,0,0,1,0-18.53A16.58,16.58,0,0,1,507.47,67a18.94,18.94,0,0,1,18.13,0A16.58,16.58,0,0,1,532,73.45,19.81,19.81,0,0,1,532,92Zm9.5-1.39a9,9,0,0,1,3.16-7.16q3.15-2.75,10.08-2.75h12.15V77.83c0-3.3-.89-5.82-2.68-7.54s-4.4-2.58-7.84-2.58a18.8,18.8,0,0,0-6.76,1.23,16.92,16.92,0,0,0-5.46,3.25l-1.7-2.44a18.92,18.92,0,0,1,6.38-3.7,23.25,23.25,0,0,1,7.81-1.32q6.58,0,10.11,3.36T570.23,78v22.47H567V94.12A11.86,11.86,0,0,1,562,99a16.49,16.49,0,0,1-7.81,1.73c-3.93,0-7.05-.93-9.33-2.78A9,9,0,0,1,541.45,90.59ZM614.73,213.5a24.81,24.81,0,0,1-11.08,8.7q-7.42,3.26-18.1,3.25a61.92,61.92,0,0,1-18.16-2.67q-8.76-2.67-13.86-7.07L558.75,204A41.14,41.14,0,0,0,571,210.43a44.57,44.57,0,0,0,14.56,2.49q9,0,13.51-2.9t4.47-7.66a7.42,7.42,0,0,0-2.49-5.74,17.5,17.5,0,0,0-6.33-3.54q-3.83-1.28-10.44-2.9a121.54,121.54,0,0,1-15-4.41,24.69,24.69,0,0,1-9.86-6.9q-4.12-4.69-4.12-12.7a21.7,21.7,0,0,1,3.65-12.24,24.67,24.67,0,0,1,11-8.76q7.37-3.25,18-3.25a58.59,58.59,0,0,1,14.62,1.85A40.46,40.46,0,0,1,615,149.11l-4.76,11.72a47.17,47.17,0,0,0-11.14-4.76,41.78,41.78,0,0,0-11.25-1.62q-8.94,0-13.29,3a9.33,9.33,0,0,0-4.35,8,7.2,7.2,0,0,0,2.5,5.68,18,18,0,0,0,6.32,3.49q3.83,1.28,10.44,2.9a109.12,109.12,0,0,1,14.85,4.35,25.32,25.32,0,0,1,9.92,6.9q4.13,4.64,4.12,12.53A21.41,21.41,0,0,1,614.73,213.5ZM663,224.06a28.22,28.22,0,0,1-7.72,1q-10.2,0-15.77-5.33t-5.57-15.55V174.4H623.72V162.8h10.21V148.65h14.5V162.8H665v11.6H648.43v29.47q0,4.53,2.2,6.9a8.26,8.26,0,0,0,6.38,2.38,12.78,12.78,0,0,0,8.13-2.55l4.06,10.33A17.22,17.22,0,0,1,663,224.06Zm-1.58-123.35a17.91,17.91,0,0,1-9.06-2.31A16.6,16.6,0,0,1,646,92a19.74,19.74,0,0,1,0-18.53A16.51,16.51,0,0,1,652.35,67a18.92,18.92,0,0,1,18.12,0,16.58,16.58,0,0,1,6.35,6.41,19.74,19.74,0,0,1,0,18.53,16.67,16.67,0,0,1-6.35,6.42A17.91,17.91,0,0,1,661.41,100.71Zm74.32,109A29.53,29.53,0,0,1,724,221a37.62,37.62,0,0,1-34,0,29.53,29.53,0,0,1-11.77-11.31,33.78,33.78,0,0,1,0-32.77A29.75,29.75,0,0,1,690,165.7a37.62,37.62,0,0,1,34,0A29.75,29.75,0,0,1,735.73,177a33.78,33.78,0,0,1,0,32.77ZM747,67.92V65h6.52V57.26h3.39V65h11.27v2.92H756.86V90.73A7.48,7.48,0,0,0,758.52,96a6.38,6.38,0,0,0,4.93,1.8,7.91,7.91,0,0,0,5.5-2l1.42,2.38a8.56,8.56,0,0,1-3.22,1.86,12.71,12.71,0,0,1-4,.65q-4.62,0-7.13-2.55a9.62,9.62,0,0,1-2.51-7.09V67.92Zm42.79,107.53a18.65,18.65,0,0,0-3.37-.35q-8.46,0-13.22,4.93t-4.76,14.21v30h-14.5V162.34h13.8v9q6.27-9.75,22-9.75ZM859.47,198H810.85a16.84,16.84,0,0,0,6.68,10.85,21.84,21.84,0,0,0,13.4,4,22.61,22.61,0,0,0,16.82-6.73l7.77,8.93A26.07,26.07,0,0,1,845,222.55,41.86,41.86,0,0,1,812.59,221a29.13,29.13,0,0,1-12-11.31,31.86,31.86,0,0,1-4.24-16.42,32.4,32.4,0,0,1,4.12-16.3A29.31,29.31,0,0,1,811.9,165.7a33.39,33.39,0,0,1,16.47-4.06,32.6,32.6,0,0,1,16.19,4A28.46,28.46,0,0,1,855.7,176.9a34.19,34.19,0,0,1,4,16.76C859.7,194.67,859.62,196.1,859.47,198Z"/>
    <path class="cls-1" d="M840.21,177.42a17.79,17.79,0,0,0-29.47,10.91h35.15A17.09,17.09,0,0,0,840.21,177.42Z"/>
    <path class="cls-1" d="M706.9,173.94a17.55,17.55,0,0,0-13.17,5.34q-5.16,5.33-5.16,14t5.16,14a19,19,0,0,0,26.4,0q5.22-5.32,5.22-14t-5.22-14A17.72,17.72,0,0,0,706.9,173.94Z"/>
    <path class="cls-1" d="M322.57,87.4a21,21,0,0,0,2.72-10.72A21,21,0,0,0,322.57,66a18.7,18.7,0,0,0-7.74-7.3A24.82,24.82,0,0,0,303.23,56H288.15V97.31h15.08a24.82,24.82,0,0,0,11.6-2.61A18.63,18.63,0,0,0,322.57,87.4Z"/>
  </g>
</svg>
