<svg width="40" height="40" viewBox="0 0 40 40" fill="none" xmlns="http://www.w3.org/2000/svg">
<path d="M20 0C31.0469 0 40 8.95312 40 20C40 31.0469 31.0469 40 20 40C8.95312 40 0 31.0469 0 20C0 8.95312 8.95312 0 20 0Z" fill="#0052FF"/>
<path d="M20.0039 27.0312C18.1391 27.0312 16.3507 26.2905 15.0321 24.9718C13.7134 23.6532 12.9727 21.8648 12.9727 20C12.9727 18.1352 13.7134 16.3468 15.0321 15.0282C16.3507 13.7095 18.1391 12.9688 20.0039 12.9688C23.4844 12.9688 26.375 15.5078 26.9297 18.8281H34.0117C33.4141 11.6094 27.3711 5.9375 20 5.9375C12.2344 5.9375 5.9375 12.2344 5.9375 20C5.9375 27.7656 12.2344 34.0625 20 34.0625C27.3711 34.0625 33.4141 28.3906 34.0117 21.1719H26.9258C26.3672 24.4922 23.4844 27.0312 20.0039 27.0312Z" fill="white"/>
</svg>
