<svg width="40" height="47" viewBox="0 0 40 47" fill="none" xmlns="http://www.w3.org/2000/svg">
<g clip-path="url(#clip0_1209_2601)">
<path d="M0 34.9884V11.6783L20 0L40 11.6783V34.9884L20 46.6667L0 34.9884Z" fill="white"/>
<path d="M19.935 1.03159L0.772461 12.2247V34.5593L19.935 45.7482L39.0975 34.5593V12.2247L19.935 1.03159ZM19.935 1.03159L0.772461 12.2247V34.5593L19.935 45.7482L39.0975 34.5593V12.2247L19.935 1.03159Z" fill="white"/>
<path d="M27.4848 36.9681H24.7473L21.4801 33.9346V32.3745L24.8803 29.1202V23.9495L29.2959 21.0514L34.3291 24.8849L27.4848 36.9681ZM16.1789 28.8549L16.6646 23.9929L15.0305 19.6689H24.7892L23.1551 23.9929L23.5968 28.8549H16.182H16.1789ZM18.4296 33.9346L15.1624 37.0103H12.3851L5.49688 24.9304L10.5783 21.1402L15.0368 23.9939V29.1646L18.4296 32.4232V33.9346ZM12.337 10.7091H27.4409L29.2509 18.4713H10.5783L12.337 10.7091ZM19.935 1.03159L0.772461 12.2247V34.5593L19.935 45.7482L39.0975 34.5593V12.2247L19.935 1.03159Z" fill="#03316C"/>
</g>
<defs>
<clipPath id="clip0_1209_2601">
<rect width="40" height="46.6667" fill="white"/>
</clipPath>
</defs>
</svg>
