<svg width="37" height="34" viewBox="0 0 37 34" fill="none" xmlns="http://www.w3.org/2000/svg">
<g clip-path="url(#clip0_1205_2555)">
<path d="M35.0923 0.0715942L20.7114 10.6554L23.3708 4.41111L35.0923 0.0715942Z" fill="#E2761B" stroke="#E2761B" stroke-linecap="round" stroke-linejoin="round"/>
<path d="M1.89355 0.0715942L16.1588 10.7557L13.6295 4.41111L1.89355 0.0715942Z" fill="#E4761B" stroke="#E4761B" stroke-linecap="round" stroke-linejoin="round"/>
<path d="M29.918 24.6049L26.0879 30.4195L34.2828 32.6537L36.6387 24.7338L29.918 24.6049Z" fill="#E4761B" stroke="#E4761B" stroke-linecap="round" stroke-linejoin="round"/>
<path d="M0.375977 24.7338L2.71738 32.6537L10.9123 30.4195L7.08223 24.6049L0.375977 24.7338Z" fill="#E4761B" stroke="#E4761B" stroke-linecap="round" stroke-linejoin="round"/>
<path d="M10.4496 14.7801L8.16602 18.203L16.3031 18.5611L16.0141 9.89636L10.4496 14.7801Z" fill="#E4761B" stroke="#E4761B" stroke-linecap="round" stroke-linejoin="round"/>
<path d="M26.536 14.7801L20.8993 9.79608L20.7114 18.561L28.8341 18.203L26.536 14.7801Z" fill="#E4761B" stroke="#E4761B" stroke-linecap="round" stroke-linejoin="round"/>
<path d="M10.9121 30.4195L15.7973 28.0564L11.577 24.7911L10.9121 30.4195Z" fill="#E4761B" stroke="#E4761B" stroke-linecap="round" stroke-linejoin="round"/>
<path d="M21.1885 28.0564L26.0881 30.4195L25.4088 24.7911L21.1885 28.0564Z" fill="#E4761B" stroke="#E4761B" stroke-linecap="round" stroke-linejoin="round"/>
<path d="M26.0881 30.4196L21.1885 28.0565L21.5787 31.2216L21.5354 32.5535L26.0881 30.4196Z" fill="#D7C1B3" stroke="#D7C1B3" stroke-linecap="round" stroke-linejoin="round"/>
<path d="M10.9121 30.4196L15.4648 32.5535L15.4359 31.2216L15.7973 28.0565L10.9121 30.4196Z" fill="#D7C1B3" stroke="#D7C1B3" stroke-linecap="round" stroke-linejoin="round"/>
<path d="M15.5372 22.7001L11.4614 21.5114L14.3376 20.2081L15.5372 22.7001Z" fill="#233447" stroke="#233447" stroke-linecap="round" stroke-linejoin="round"/>
<path d="M21.4482 22.7001L22.6479 20.2081L25.5385 21.5114L21.4482 22.7001Z" fill="#233447" stroke="#233447" stroke-linecap="round" stroke-linejoin="round"/>
<path d="M10.9121 30.4195L11.6059 24.6049L7.08203 24.7338L10.9121 30.4195Z" fill="#CD6116" stroke="#CD6116" stroke-linecap="round" stroke-linejoin="round"/>
<path d="M25.394 24.6049L26.0878 30.4195L29.9179 24.7338L25.394 24.6049Z" fill="#CD6116" stroke="#CD6116" stroke-linecap="round" stroke-linejoin="round"/>
<path d="M28.8341 18.203L20.7114 18.561L21.463 22.7001L22.6626 20.2081L25.5532 21.5113L28.8341 18.203Z" fill="#CD6116" stroke="#CD6116" stroke-linecap="round" stroke-linejoin="round"/>
<path d="M11.4613 21.5113L14.352 20.2081L15.5371 22.7001L16.3031 18.561L8.16602 18.203L11.4613 21.5113Z" fill="#CD6116" stroke="#CD6116" stroke-linecap="round" stroke-linejoin="round"/>
<path d="M8.16602 18.203L11.577 24.791L11.4613 21.5113L8.16602 18.203Z" fill="#E4751F" stroke="#E4751F" stroke-linecap="round" stroke-linejoin="round"/>
<path d="M25.5532 21.5113L25.4087 24.791L28.8341 18.203L25.5532 21.5113Z" fill="#E4751F" stroke="#E4751F" stroke-linecap="round" stroke-linejoin="round"/>
<path d="M16.3031 18.561L15.5371 22.7L16.491 27.5838L16.7078 21.1533L16.3031 18.561Z" fill="#E4751F" stroke="#E4751F" stroke-linecap="round" stroke-linejoin="round"/>
<path d="M20.7115 18.561L20.3213 21.139L20.4947 27.5838L21.4631 22.7L20.7115 18.561Z" fill="#E4751F" stroke="#E4751F" stroke-linecap="round" stroke-linejoin="round"/>
<path d="M21.463 22.7001L20.4946 27.5838L21.1884 28.0564L25.4087 24.7911L25.5532 21.5114L21.463 22.7001Z" fill="#F6851B" stroke="#F6851B" stroke-linecap="round" stroke-linejoin="round"/>
<path d="M11.4614 21.5114L11.5771 24.7911L15.7974 28.0564L16.4911 27.5838L15.5372 22.7001L11.4614 21.5114Z" fill="#F6851B" stroke="#F6851B" stroke-linecap="round" stroke-linejoin="round"/>
<path d="M21.5352 32.5535L21.5785 31.2216L21.2172 30.9065H15.7684L15.4359 31.2216L15.4648 32.5535L10.9121 30.4196L12.502 31.7085L15.725 33.9284H21.2605L24.498 31.7085L26.0879 30.4196L21.5352 32.5535Z" fill="#C0AD9E" stroke="#C0AD9E" stroke-linecap="round" stroke-linejoin="round"/>
<path d="M21.1884 28.0564L20.4946 27.5838H16.4911L15.7974 28.0564L15.436 31.2215L15.7685 30.9065H21.2173L21.5786 31.2215L21.1884 28.0564Z" fill="#161616" stroke="#161616" stroke-linecap="round" stroke-linejoin="round"/>
<path d="M35.6994 11.3429L36.9279 5.49956L35.0924 0.0715942L21.1885 10.2974L26.5361 14.7801L34.0951 16.9713L35.7717 15.0379L35.049 14.5223L36.2053 13.4768L35.3092 12.7894L36.4654 11.9157L35.6994 11.3429Z" fill="#763D16" stroke="#763D16" stroke-linecap="round" stroke-linejoin="round"/>
<path d="M0.0722656 5.49956L1.30078 11.3429L0.520312 11.9157L1.67656 12.7894L0.794922 13.4768L1.95117 14.5223L1.22852 15.0379L2.89062 16.9713L10.4496 14.7801L15.7973 10.2974L1.89336 0.0715942L0.0722656 5.49956Z" fill="#763D16" stroke="#763D16" stroke-linecap="round" stroke-linejoin="round"/>
<path d="M34.095 16.9713L26.536 14.7801L28.8341 18.203L25.4087 24.791L29.9181 24.7338H36.6388L34.095 16.9713Z" fill="#F6851B" stroke="#F6851B" stroke-linecap="round" stroke-linejoin="round"/>
<path d="M10.4498 14.7801L2.89082 16.9713L0.375977 24.7338H7.08223L11.5771 24.791L8.16621 18.203L10.4498 14.7801Z" fill="#F6851B" stroke="#F6851B" stroke-linecap="round" stroke-linejoin="round"/>
<path d="M20.7114 18.5611L21.1884 10.2974L23.3853 4.41113H13.6294L15.7974 10.2974L16.3032 18.5611L16.4767 21.1677L16.4911 27.5838H20.4946L20.5235 21.1677L20.7114 18.5611Z" fill="#F6851B" stroke="#F6851B" stroke-linecap="round" stroke-linejoin="round"/>
</g>
<defs>
<clipPath id="clip0_1205_2555">
<rect width="37" height="34" fill="white"/>
</clipPath>
</defs>
</svg>
