<svg width="46" height="36" viewBox="0 0 46 36" fill="none" xmlns="http://www.w3.org/2000/svg">
<path d="M21.5205 0.0495267C25.5415 -0.219004 29.5616 0.584224 33.1646 2.37604C38.5053 4.99454 42.6215 9.5579 44.655 15.1147C45.5418 17.5485 45.9969 20.1164 46.0001 22.7045V32.2775C46.0128 32.6732 45.9871 33.0691 45.9232 33.4598C45.7318 34.295 45.2182 35.0223 44.4925 35.4858C43.7668 35.9493 42.887 36.112 42.0418 35.9389C41.314 35.788 40.6592 35.3965 40.1845 34.8285C39.7098 34.2604 39.4434 33.5493 39.4286 32.8115V23.8868C39.4671 23.0477 39.4671 22.1324 39.0059 21.4077C38.6201 20.736 38.0068 20.2218 37.2751 19.9565C36.5434 19.6911 35.7405 19.6918 35.0093 19.9584C34.3957 20.1896 33.8644 20.595 33.4816 21.1241C33.0989 21.6532 32.8817 22.2824 32.8572 22.9333V31.9724C32.9034 32.5364 32.8514 33.104 32.7035 33.6505C32.5216 34.2631 32.1621 34.8089 31.6698 35.2201C31.1775 35.6313 30.5741 35.8895 29.9349 35.9627C29.2957 36.0359 28.649 35.9208 28.0752 35.6317C27.5015 35.3426 27.0262 34.8924 26.7085 34.3371C26.2089 33.5743 26.2474 32.6208 26.2858 31.7436V22.7426C26.2578 22.1146 26.0479 21.5079 25.6813 20.9953C25.3146 20.4827 24.8068 20.0858 24.2187 19.8524C23.6306 19.6189 22.9872 19.5587 22.3655 19.679C21.7438 19.7993 21.1702 20.0949 20.7135 20.5305C20.3944 20.8371 20.1414 21.2047 19.9696 21.6111C19.7979 22.0176 19.711 22.4544 19.7144 22.8952V31.6291C19.7144 32.3538 19.7912 33.1166 19.5222 33.8031C19.3055 34.43 18.8959 34.9734 18.3511 35.3567C17.8064 35.7399 17.154 35.9436 16.4863 35.9389C15.8011 35.9585 15.1273 35.7625 14.5612 35.3789C13.9952 34.9952 13.566 34.4436 13.3351 33.8031C13.1554 33.1581 13.0904 32.487 13.1429 31.8198V22.7807C13.1268 22.0662 12.8746 21.3767 12.4251 20.8183C11.9755 20.2599 11.3536 19.8635 10.6549 19.6902C9.95627 19.5168 9.21958 19.5761 8.55817 19.8588C7.89675 20.1416 7.34726 20.6322 6.99422 21.2552C6.71998 21.7592 6.57481 22.3224 6.5715 22.8952V32.697C6.57872 33.3027 6.41585 33.8983 6.10114 34.4173C5.78643 34.9362 5.33231 35.3579 4.7897 35.635C4.24708 35.9122 3.63741 36.034 3.02901 35.9866C2.4206 35.9392 1.83752 35.7246 1.3451 35.3668C0.926626 35.0744 0.585712 34.6857 0.351487 34.2341C0.117261 33.7825 -0.0033121 33.2813 6.9204e-05 32.7733V22.857C0.0103806 19.432 0.796242 16.0531 2.29955 12.9702C3.80286 9.8872 5.98516 7.17899 8.68511 5.04581C12.3156 2.06182 16.814 0.310802 21.5205 0.0495267Z" fill="#5741D9"/>
</svg>
