<svg width="240" height="100" viewBox="0 0 240 100" fill="none" xmlns="http://www.w3.org/2000/svg">
<path d="M137.68 49.8802H131.23V73.9302H122.23V49.8802H117.58V42.1702H122.23V39.1702C122.23 31.4002 127.08 27.4102 134.45 27.4102C135.591 27.4197 136.728 27.5539 137.84 27.8102V36.8102C136.87 36.421 135.835 36.2175 134.79 36.2102C134.318 36.1727 133.843 36.2379 133.398 36.4014C132.954 36.5649 132.55 36.8228 132.214 37.1573C131.879 37.4918 131.62 37.895 131.455 38.3391C131.291 38.7833 131.224 39.2578 131.26 39.7302V42.1202H137.71L137.68 49.8802ZM151.23 73.9302H142.13V28.0902H151.23V73.9302Z" fill="#231F20"/>
<path d="M171.43 40.18C174.842 40.1741 178.18 41.1809 181.019 43.073C183.859 44.9651 186.073 47.6573 187.382 50.8087C188.691 53.9601 189.034 57.429 188.37 60.776C187.706 64.123 186.063 67.1977 183.651 69.6105C181.238 72.0234 178.163 73.6659 174.816 74.3302C171.469 74.9944 168 74.6505 164.849 73.3419C161.697 72.0334 159.005 69.819 157.113 66.9793C155.221 64.1396 154.214 60.8023 154.22 57.39C154.192 55.1222 154.618 52.8716 155.473 50.7708C156.328 48.6701 157.594 46.7616 159.198 45.1579C160.802 43.5542 162.71 42.2875 164.811 41.4326C166.912 40.5777 169.162 40.1518 171.43 40.18ZM171.43 65.83C176.08 65.83 179.43 61.97 179.43 57.39C179.48 56.3087 179.31 55.2285 178.931 54.2148C178.551 53.2011 177.97 52.2749 177.222 51.4924C176.474 50.7099 175.575 50.0873 174.579 49.6624C173.584 49.2374 172.513 49.0189 171.43 49.02C169.251 49.0952 167.186 50.0136 165.672 51.5817C164.157 53.1497 163.31 55.2448 163.31 57.425C163.31 59.6053 164.157 61.7003 165.672 63.2684C167.186 64.8364 169.251 65.7549 171.43 65.83Z" fill="#231F20"/>
<path d="M198.14 40.8496L203.99 62.8496L209.84 45.3696L208.24 40.8596H217.24L224.95 62.8596L230.66 40.8596H240L230.17 73.9396H220.73L214.15 55.7996L208 73.9296H198.5L188.73 40.8496H198.14Z" fill="#231F20"/>
<path d="M50 100C77.6142 100 100 77.6142 100 50C100 22.3858 77.6142 0 50 0C22.3858 0 0 22.3858 0 50C0 77.6142 22.3858 100 50 100Z" fill="#00EF8B"/>
<path d="M71.9398 42.1797H57.8198V56.2997H71.9398V42.1797Z" fill="white"/>
<path d="M43.71 61.5897C43.71 62.6379 43.3992 63.6626 42.8168 64.5342C42.2344 65.4058 41.4067 66.0851 40.4382 66.4863C39.4698 66.8874 38.4041 66.9924 37.376 66.7878C36.3479 66.5833 35.4036 66.0786 34.6623 65.3374C33.9211 64.5961 33.4163 63.6518 33.2118 62.6237C33.0073 61.5956 33.1123 60.5299 33.5134 59.5615C33.9146 58.593 34.5939 57.7653 35.4655 57.1829C36.3371 56.6005 37.3618 56.2897 38.41 56.2897H43.71V42.1797H38.41C34.5711 42.1797 30.8183 43.3181 27.6264 45.4509C24.4344 47.5837 21.9466 50.6151 20.4775 54.1618C19.0084 57.7085 18.624 61.6112 19.373 65.3764C20.1219 69.1416 21.9705 72.6001 24.6851 75.3146C27.3996 78.0292 30.8581 79.8778 34.6233 80.6267C38.3885 81.3757 42.2912 80.9913 45.8379 79.5222C49.3846 78.0531 52.416 75.5653 54.5488 72.3733C56.6816 69.1813 57.82 65.4286 57.82 61.5897V56.2897H43.71V61.5897Z" fill="white"/>
<path d="M63.12 35.12H79V21H63.12C57.9737 21.0053 53.0398 23.052 49.4009 26.6909C45.7619 30.3298 43.7153 35.2638 43.71 40.41V42.18H57.82V40.41C57.8226 39.0061 58.3822 37.6606 59.3758 36.6688C60.3695 35.677 61.716 35.12 63.12 35.12Z" fill="white"/>
<path d="M43.71 56.2897H57.82V42.1797H43.71V56.2897Z" fill="#16FF99"/>
</svg>
