<svg width="29" height="40" viewBox="0 0 29 40" fill="none" xmlns="http://www.w3.org/2000/svg">
<g clip-path="url(#clip0_1200_2544)">
<path d="M14.6415 25.7979H27.0256C28.9152 25.7979 29.1868 26.1412 28.8699 27.9481C27.7215 34.4272 22.1263 39.7691 16.2199 39.9887C7.97139 40.2926 2.07635 36.2172 0.305573 28.9501C-0.373319 26.1975 -0.079133 25.826 2.77787 25.826H14.6585L14.6415 25.7979Z" fill="#AED7F7"/>
<path d="M0.294422 0.022412C6.66469 -0.360363 12.209 4.1485 12.7012 10.408C13.035 14.6016 12.8426 18.8516 12.8935 23.0565C12.8935 24.0978 12.3617 24.4919 11.3717 24.4862H1.43722C0.526377 24.4862 0.0681248 24.1823 0.0737822 23.1747C0.107727 15.598 0.107727 8.02692 0.124699 0.450219C0.15844 0.299663 0.21571 0.155306 0.294422 0.022412Z" fill="#172A70"/>
<path d="M15.1505 15.1084V13.3746C15.1505 10.4869 15.1505 10.4701 18.1094 11.0836C20.8481 11.6869 23.3432 13.0906 25.2745 15.1145C27.2059 17.1385 28.4854 19.6905 28.949 22.443C29.147 23.7039 28.7906 24.5427 27.3989 24.5539C25.3693 24.6375 23.3365 24.5999 21.3115 24.4413C17.4871 24.0304 15.2015 21.3623 15.1505 17.5345C15.1392 16.7239 15.1505 15.919 15.1505 15.1084Z" fill="#3485C4"/>
</g>
<defs>
<clipPath id="clip0_1200_2544">
<rect width="29" height="40" fill="white"/>
</clipPath>
</defs>
</svg>
