<?xml version="1.0" encoding="utf-8"?>
<!-- Generator: Adobe Illustrator 25.3.1, SVG Export Plug-In . SVG Version: 6.00 Build 0)  -->
<svg version="1.1" id="Layer_1" xmlns="http://www.w3.org/2000/svg" xmlns:xlink="http://www.w3.org/1999/xlink" x="0px" y="0px"
	 viewBox="0 0 332.2 331.6" style="enable-background:new 0 0 332.2 331.6;" xml:space="preserve">
<style type="text/css">
	.st0{fill:none;}
	.st1{fill:#FFFFFF;}
</style>
<g>
	<path class="st1" d="M60.6,36.4c-6.6-0.9-13.2-2-19.8-2.8c-6.5-0.8-11.3-5.5-11-11.1c0.3-5.8,4.9-10.1,11.6-9.4
		c12.5,1.3,24.8,3.3,37.3,5.1c4.7,0.7,9.4,1.9,14.1,2.2c11.3,0.8,13.3,7.2,11.5,17.5c-2.3,13.3-4.1,26.7-6.2,40
		c-0.4,2.4-0.7,4.9-1,7.3c-1,6.9-5.5,10.6-12.4,9.8c-5.1-0.5-9-6-8.3-12.2c0.8-7.2,2-14.4,3-21.6c0.5-3.7,0.9-7.3,1.4-11
		c-0.4-0.3-0.9-0.6-1.3-0.8C73,55.3,66,60.8,59.8,67.1c-10.2,10.5-18.3,22.7-24.4,36c-10.4,22.6-16.3,46.1-14.5,71.1
		c1.4,19.3,6.3,37.8,14.9,55c8.5,17.1,19.9,32.1,34.6,44.8c17.1,14.8,36.3,25.2,57.9,31.4c20.5,5.9,41.4,6.8,62.5,2.9
		c2.3-0.4,4.6-0.3,6.9-0.7c5.8-1,10.5,4.1,10.9,9.1c0.4,5.1-4.3,10.7-9.6,11.6c-17.8,3.1-35.7,4.2-53.5,1.7
		c-31.2-4.3-59.6-15.8-84.2-35.8c-19.3-15.8-34.6-34.8-45.1-57.2c-8-17-13.4-35-15.2-54c-2.2-22.8-0.4-45.1,6.7-67
		c7.4-22.8,18.7-43.3,35-61C48.4,48.9,54.4,42.9,60.6,36.4z"/>
	<path class="st1" d="M274.7,292.7c7,1,14.3,2,21.7,3.1c6.6,1,10.3,4.8,10.5,10.6c0.1,5.6-3.2,10.2-8.9,10.6
		c-4.5,0.3-9.1-0.8-13.7-1.6c-14-2.2-27.9-4.5-41.9-6.7c-7.4-1.2-10.8-5.4-9.7-12.6c2.7-18.1,5.5-36.1,8.2-54.1
		c0.9-5.7,5.8-8.7,12.4-7.5c5.7,1.1,9.3,6.8,8.2,12.8c-1.9,10.2-3.5,20.4-5.5,31.8c13.9-10.4,24.1-22.2,32.6-35.5
		c10-15.7,17-32.7,20.5-51.1c5.4-28.5,2.5-56.2-8.8-82.9c-14.2-33.8-38.3-58.4-71-74.5c-15.9-7.8-33-12.2-50.9-13.7
		c-14.2-1.2-28.1-0.1-41.9,2.8c-5,1.1-10.4-2.8-11.4-7.9c-1.2-6.4,2.5-12.4,8.7-13.4c16.1-2.5,32.1-3.6,48.5-2.1
		c22.1,2.1,42.8,8.5,62.2,18.6c27.8,14.5,49.4,35.6,65.3,62.6c12.1,20.7,19.1,42.9,21.7,66.7c4.4,41.2-6.1,78.7-29.3,112.6
		C294.2,272.6,283.9,282.1,274.7,292.7z"/>
</g>
</svg>
