<svg id="Layer_1" data-name="Layer 1" xmlns="http://www.w3.org/2000/svg" viewBox="0 0 4888.08 1075.8"><defs><style>.cls-1{fill:#fff;}.cls-2{fill:#7d00ff;}.cls-3{fill:none;}</style></defs><g id="MP_LOGO" data-name="MP LOGO"><path class="cls-1" d="M4412.44,968.4,4236,563.37h118.33l120.36,290.08,139.29-290.08h116.3l-274.53,557.85H4338.06Zm-428.7-83.85c10.15-2.7,20.29-6.08,29.75-11.49a127.75,127.75,0,0,0,25-17.58,110.72,110.72,0,0,0,19.61-23.67c5.41-9.46,10.15-19.61,12.85-29.75a133,133,0,0,0,0-70.32c-2.7-10.15-7.44-20.29-12.85-29.75a110.72,110.72,0,0,0-19.61-23.67,127.75,127.75,0,0,0-25-17.58,156.24,156.24,0,0,0-29.75-10.82,110.56,110.56,0,0,0-33.13-3.38,183.43,183.43,0,0,0-33.13,3.38c-10.15,2-20.29,6.09-29.75,10.82A115.41,115.41,0,0,0,3843.1,702c-5.41,9.46-10.15,19.6-12.85,29.75a133,133,0,0,0,0,70.32c2.7,10.14,7.44,20.29,12.85,29.75a110.72,110.72,0,0,0,19.61,23.67,128,128,0,0,0,25,17.58,142.65,142.65,0,0,0,29.75,11.49,108.09,108.09,0,0,0,33.13,3.38c10.82.68,21.64-.67,33.13-3.38m-119.68,90.61a204.68,204.68,0,0,1-52.07-21,194.15,194.15,0,0,1-75.73-75.73,205.05,205.05,0,0,1-21-52.07,252.78,252.78,0,0,1,0-119,205.05,205.05,0,0,1,21-52.07c17.58-31.78,43.95-57.48,75.73-75.73a233,233,0,0,1,52.07-21,251.3,251.3,0,0,1,59.5-7.44,260,260,0,0,1,32.46,2,202,202,0,0,1,29.08,6.08c8.79,2.71,17.58,5.41,25.69,9.47a150,150,0,0,1,23,12.17,102.3,102.3,0,0,1,18.93,14.88c5.41,5.41,10.82,10.81,14.88,16.9V564.05h112.24V971.1H4067.59V922.42c-14.88,18.93-34.49,33.81-56.8,44a140.63,140.63,0,0,1-40.57,12.17c-15.55,2.71-31.78,4.74-47.33,4.06-19.61,0-39.22-2-58.83-7.44M3457,666.82c16.23,0,32.46-1.35,48-5.4,12.17-3.39,23.67-8.79,33.13-16.91a67.2,67.2,0,0,0,19.61-27.72c4.06-12.17,6.76-25,6.09-37.87a119.84,119.84,0,0,0-6.09-37.86c-4.06-10.82-10.82-19.61-19.61-27-9.46-7.44-21-13.52-33.13-16.23a163.79,163.79,0,0,0-48-5.41H3346.78V666.82ZM3230.48,396.35h238a309.71,309.71,0,0,1,96.69,13.53c25,7.44,48,21,67.62,37.86a157.09,157.09,0,0,1,39.89,58.15c8.79,23.67,13.53,48.69,12.85,73.71,0,25-4.06,50-12.85,73a157.09,157.09,0,0,1-39.89,58.15,176.38,176.38,0,0,1-67.62,37.86,312.53,312.53,0,0,1-96.69,13.53h-121V971.1h-116.3Zm-498.34,167h111.57v48.68a106.85,106.85,0,0,1,24.34-25,136.67,136.67,0,0,1,31.78-18.94,189.25,189.25,0,0,1,39.22-12.17,251.33,251.33,0,0,1,45.3-4.06,182.84,182.84,0,0,1,69,11.5,150.08,150.08,0,0,1,52.75,33.81A145.58,145.58,0,0,1,3138.52,652c8.12,23.67,11.5,48,11.5,73V971.1H3038.45V754.05c0-15.55-2-31.78-6.76-46.65a98.66,98.66,0,0,0-18.94-33.81,77.75,77.75,0,0,0-30.43-20.29,132.31,132.31,0,0,0-82.49,0,77.9,77.9,0,0,0-30.43,20.29,98.63,98.63,0,0,0-18.93,33.81c-4.73,14.87-6.76,31.1-6.76,46.65V971.1H2732.82ZM2457.61,883.2c10.82-2.7,21-6.08,30.43-11.49a95.32,95.32,0,0,0,25-18.26A130.81,130.81,0,0,0,2532,829.11c5.41-9.47,9.47-18.94,11.5-29.08a142.89,142.89,0,0,0,0-67.62A108.85,108.85,0,0,0,2513.06,679a107.69,107.69,0,0,0-25-18.26c-9.47-5.41-20.29-8.79-30.43-11.5a154.65,154.65,0,0,0-70.32,0c-10.82,2.71-21,6.09-30.43,11.5a95.09,95.09,0,0,0-25,18.26,121.31,121.31,0,0,0-30.43,121.71,137.59,137.59,0,0,0,11.5,29.07c4.73,8.79,11.49,16.91,18.93,24.35a95.28,95.28,0,0,0,25,18.25,148.87,148.87,0,0,0,30.43,11.5,151.79,151.79,0,0,0,35.16,4,122.58,122.58,0,0,0,35.16-4.73m-100.75,92a248.54,248.54,0,0,1-58.15-21,230.53,230.53,0,0,1-48-32.46c-14.2-12.84-26.37-27-35.84-43.27a210.79,210.79,0,0,1-23-52.07,222.18,222.18,0,0,1,0-119,210.79,210.79,0,0,1,23-52.07,206,206,0,0,1,83.85-75.73,248.54,248.54,0,0,1,58.15-21,289.31,289.31,0,0,1,131.86,0,243.4,243.4,0,0,1,57.47,21,210,210,0,0,1,48,33.13A203.3,203.3,0,0,1,2630.71,656c10.15,16.22,18.26,33.8,23,52.06a222.22,222.22,0,0,1,0,119,196,196,0,0,1-59.5,95.34,214,214,0,0,1-48,32.46,255.82,255.82,0,0,1-57.47,21,299.38,299.38,0,0,1-131.86-.68m-434.1-92c10.81-2.7,21-6.08,30.42-11.49a95.32,95.32,0,0,0,25-18.26,130.39,130.39,0,0,0,18.93-24.34c5.41-9.47,9.47-18.94,11.5-29.08a142.89,142.89,0,0,0,0-67.62,110.51,110.51,0,0,0-55.45-71.67c-9.46-5.41-20.28-8.79-30.42-11.5a154.69,154.69,0,0,0-70.33,0c-10.82,2.71-21,6.09-30.43,11.5A107.43,107.43,0,0,0,1797,679c-7.44,6.76-13.53,15.55-18.94,24.34a152.75,152.75,0,0,0-11.49,29.07c-2.71,10.82-4.74,22.32-4.06,33.81a140,140,0,0,0,4.06,33.81,137.12,137.12,0,0,0,11.49,29.08c4.74,8.79,11.5,16.9,18.94,24.34a95.27,95.27,0,0,0,25,18.26,148.85,148.85,0,0,0,30.43,11.49,151.31,151.31,0,0,0,35.16,4.06,155.69,155.69,0,0,0,35.17-4.06m-101.43,92a248.22,248.22,0,0,1-58.15-21,230.27,230.27,0,0,1-48-32.46c-14.2-12.84-26.37-27-35.84-43.27a210.79,210.79,0,0,1-23-52.07,222.18,222.18,0,0,1,0-119,210.79,210.79,0,0,1,23-52.07,222.05,222.05,0,0,1,35.84-43.28,216.89,216.89,0,0,1,48-33.13,248.67,248.67,0,0,1,58.15-21,309.51,309.51,0,0,1,131.85,0,243.75,243.75,0,0,1,57.48,21,210,210,0,0,1,48,33.13,203.3,203.3,0,0,1,36.51,43.28c10.14,16.23,18.26,33.81,23,52.07a222.18,222.18,0,0,1,0,119,196,196,0,0,1-59.5,95.34,214,214,0,0,1-48,32.46,254.75,254.75,0,0,1-57.48,21,289.53,289.53,0,0,1-131.85,0m-879-578.81H1060L1260.1,702.66l201.5-306.31h117V971.1h-116.3V576.89L1295.94,831.14h-71L1058.6,576.89V971.1H942.3Z" transform="translate(64.53 -154.96)"/></g><path id="MP_EM_LOGO" data-name="MP EM LOGO" class="cls-2" d="M674.53,499.13a117,117,0,1,0-117-117h0a117,117,0,0,0,117,117h0m-359.72,528.1a286,286,0,1,1,286-286h0a285.7,285.7,0,0,1-286,286h0" transform="translate(64.53 -154.96)"/><rect class="cls-3" width="4888.08" height="1075.8"/></svg>