<svg width="131" height="55" viewBox="0 0 131 55" fill="none" xmlns="http://www.w3.org/2000/svg">
<g clip-path="url(#clip0_503_399)">
<path d="M75.15 27.4342H71.6293V40.6617H66.7168V27.4342H64.1787V23.1937H66.7168V21.5437C66.7168 17.2702 69.3641 15.0757 73.3869 15.0757C74.0097 15.0809 74.6303 15.1547 75.2373 15.2957V20.2457C74.7078 20.0316 74.1429 19.9197 73.5725 19.9157C73.3149 19.8951 73.0556 19.9309 72.8127 20.0208C72.5704 20.1108 72.3498 20.2526 72.1664 20.4366C71.9836 20.6206 71.8422 20.8423 71.7522 21.0866C71.6626 21.3309 71.6261 21.5919 71.6457 21.8517V23.1662H75.1663L75.15 27.4342ZM82.546 40.6617H77.5789V15.4497H82.546V40.6617Z" fill="white"/>
<path d="M93.5722 22.0989C95.4346 22.0956 97.2566 22.6494 98.8062 23.69C100.356 24.7307 101.565 26.2114 102.279 27.9447C102.994 29.6779 103.181 31.5858 102.819 33.4267C102.456 35.2675 101.559 36.9586 100.243 38.2856C98.9258 39.6127 97.2473 40.5161 95.4204 40.8815C93.5935 41.2468 91.7 41.0576 89.9801 40.3379C88.2596 39.6182 86.7903 38.4003 85.7575 36.8385C84.7248 35.2766 84.1752 33.4411 84.1784 31.5644C84.1632 30.3171 84.3957 29.0792 84.8624 27.9238C85.3291 26.7684 86.0201 25.7187 86.8956 24.8367C87.7711 23.9547 88.8126 23.258 89.9594 22.7878C91.1062 22.3176 92.3343 22.0834 93.5722 22.0989ZM93.5722 36.2064C96.1104 36.2064 97.9389 34.0834 97.9389 31.5644C97.9662 30.9697 97.8734 30.3755 97.6665 29.818C97.4591 29.2605 97.142 28.7511 96.7337 28.3207C96.3254 27.8903 95.8347 27.5479 95.2911 27.3142C94.748 27.0804 94.1634 26.9603 93.5722 26.9609C92.3829 27.0022 91.2557 27.5073 90.4293 28.3698C89.6024 29.2322 89.1401 30.3845 89.1401 31.5836C89.1401 32.7828 89.6024 33.935 90.4293 34.7975C91.2557 35.6599 92.3829 36.1651 93.5722 36.2064Z" fill="white"/>
<path d="M108.152 22.4673L111.345 34.5673L114.538 24.9533L113.665 22.4728H118.577L122.786 34.5728L125.902 22.4728H131L125.635 40.6668H120.482L116.891 30.6898L113.534 40.6613H108.348L103.016 22.4673H108.152Z" fill="white"/>
<path d="M27.2917 55C42.3644 55 54.5833 42.6878 54.5833 27.5C54.5833 12.3122 42.3644 0 27.2917 0C12.2189 0 0 12.3122 0 27.5C0 42.6878 12.2189 55 27.2917 55Z" fill="#00EF8B"/>
<path d="M39.2667 23.1987H31.5596V30.9647H39.2667V23.1987Z" fill="white"/>
<path d="M23.8577 33.8742C23.8577 34.4507 23.688 35.0143 23.3701 35.4937C23.0522 35.9731 22.6004 36.3467 22.0718 36.5674C21.5432 36.788 20.9615 36.8457 20.4004 36.7332C19.8392 36.6207 19.3238 36.3431 18.9191 35.9355C18.5146 35.5278 18.239 35.0084 18.1274 34.4429C18.0158 33.8775 18.0731 33.2913 18.292 32.7587C18.511 32.226 18.8818 31.7708 19.3575 31.4505C19.8333 31.1302 20.3926 30.9592 20.9647 30.9592H23.8577V23.1987H20.9647C18.8693 23.1987 16.8209 23.8249 15.0787 24.9979C13.3364 26.1709 11.9785 27.8382 11.1766 29.7889C10.3747 31.7396 10.1649 33.8861 10.5737 35.9569C10.9825 38.0278 11.9915 39.9299 13.4732 41.4229C14.9549 42.916 16.8427 43.9327 18.8978 44.3446C20.953 44.7565 23.0832 44.5451 25.0191 43.7371C26.955 42.9291 28.6097 41.5608 29.7738 39.8052C30.938 38.0496 31.5594 35.9856 31.5594 33.8742V30.9592H23.8577V33.8742Z" fill="white"/>
<path d="M34.453 19.3158H43.1209V11.5498H34.453C31.644 11.5527 28.9509 12.6784 26.9647 14.6798C24.9784 16.6812 23.8613 19.3949 23.8584 22.2253V23.1988H31.5601V22.2253C31.5615 21.4532 31.867 20.7131 32.4093 20.1676C32.9517 19.6222 33.6867 19.3158 34.453 19.3158Z" fill="white"/>
<path d="M23.8584 30.9592H31.5601V23.1987H23.8584V30.9592Z" fill="#16FF99"/>
</g>
<defs>
<clipPath id="clip0_503_399">
<rect width="131" height="55" fill="white"/>
</clipPath>
</defs>
</svg>
