<svg id="Layer_1" data-name="Layer 1" xmlns="http://www.w3.org/2000/svg" viewBox="0 0 131.1 46.33"><defs><style>.cls-1{fill:#fff;}</style></defs><rect class="cls-1" y="36.23" width="9.76" height="9.06"/><path class="cls-1" d="M166.29,177q-7.64,0-9.63,3-1.91,2-1.91,7.33v3.08h-5v7.1h5.12v24.8H164v-24.8h7.94v-7.1H164v-3.75a2.64,2.64,0,0,1,.7-1.78,3.11,3.11,0,0,1,2.51-.76c1.21,0,4.92.08,5.43.14v-7.06c-.81-.06-4.3-.1-4.77-.13S166.87,177,166.29,177Z" transform="translate(-134.84 -177)"/><rect class="cls-1" x="43.86" y="12.14" width="9.31" height="33.16"/><rect class="cls-1" x="43.86" y="0.18" width="9.31" height="8"/><path class="cls-1" d="M223.31,191a13.08,13.08,0,0,0-8.53-2.69,11.33,11.33,0,0,0-6.88,2,15,15,0,0,0-3.2,3.68V189.2h-8.48v33.09H205V204.35a12.59,12.59,0,0,1,.86-5c1.11-2.5,3.15-3.75,6.14-3.75,2.42,0,4.07.86,4.93,2.56a9.11,9.11,0,0,1,.71,4v20.17h9V200Q226.62,193.73,223.31,191Z" transform="translate(-134.84 -177)"/><path class="cls-1" d="M257.22,177.52v15.81a10.41,10.41,0,0,0-3.77-3.66,10.53,10.53,0,0,0-5.3-1.32,12.56,12.56,0,0,0-10.36,4.86q-3.89,4.88-3.88,13.36,0,7.35,3.94,12.06a12.17,12.17,0,0,0,9.69,4.7,11.72,11.72,0,0,0,5.85-1.34,12.07,12.07,0,0,0,4.19-4.29v4.59h8.36V177.52Zm-1.66,35.77A6.33,6.33,0,0,1,250,216a6,6,0,0,1-5.42-2.77,13.11,13.11,0,0,1-1.81-7.33,13.5,13.5,0,0,1,1.76-7.14,6,6,0,0,1,5.53-2.87,6.57,6.57,0,0,1,4.35,1.58q3,2.63,3,8.7A12.17,12.17,0,0,1,255.56,213.29Z" transform="translate(-134.84 -177)"/></svg>