<svg width="168" height="35" viewBox="0 0 168 35" fill="none" xmlns="http://www.w3.org/2000/svg">
<g clip-path="url(#clip0_503_409)">
<path d="M53.7454 17.5469C56.2087 18.7886 57.263 20.9272 56.6078 23.7654C56.0658 26.1355 53.972 27.6778 51.1589 27.7074C47.2175 27.7074 43.2762 27.7074 39.3348 27.7074C38.9949 27.7074 38.6598 27.6483 38.2559 27.6138V7.80031H42.8377C45.7198 7.80031 48.6118 7.7264 51.4889 7.84958C55.0903 8.00234 57.2975 11.2397 56.0166 14.5805C55.5879 15.6646 54.5583 16.5171 53.7454 17.5469ZM44.4832 23.11C46.0991 23.11 47.6609 23.2529 49.1734 23.0312C49.7055 22.9573 50.41 22.0211 50.4691 21.4199C50.5184 20.9272 49.8139 19.8875 49.3508 19.8283C47.7312 19.7051 46.1057 19.6804 44.4832 19.7544V23.11ZM44.4832 12.3878V15.7681C45.9119 15.7681 47.2816 15.9258 48.5822 15.6892C49.1241 15.5907 49.74 14.7037 49.9075 14.0582C49.9679 13.8619 49.9796 13.6538 49.9417 13.4519C49.9038 13.2501 49.8173 13.0604 49.6898 12.8994C49.5623 12.7384 49.3975 12.6108 49.2097 12.5277C49.0219 12.4446 48.8167 12.4084 48.6118 12.4223C47.2766 12.3435 45.9316 12.3878 44.493 12.3878H44.4832Z" fill="white"/>
<path d="M89.9814 7.11035C91.2869 7.24098 92.5845 7.44166 93.8685 7.71151C98.0069 8.7857 100.17 11.6929 100.589 16.581C101.16 23.1986 97.3024 27.5299 90.6859 27.6826C89.6733 27.7313 88.6584 27.6984 87.6511 27.5841C81.0099 26.6479 78.783 21.9717 79.2757 16.1572C79.8028 10.1457 83.4486 7.22368 89.9814 7.11035ZM93.77 17.7685C93.77 17.2758 93.7946 16.7535 93.77 16.2509C93.637 13.8807 92.1343 12.4222 89.7892 12.368C87.3259 12.3138 85.6656 13.6738 85.4784 16.0587C85.3798 17.2162 85.3798 18.38 85.4784 19.5375C85.6952 21.8386 87.3111 23.1592 89.7252 23.1247C91.9964 23.0952 93.5582 21.6465 93.7404 19.434C93.8242 18.8821 93.7848 18.3204 93.7848 17.7685H93.77Z" fill="white"/>
<path d="M167.97 17.4136C168.32 24.1889 163.817 27.579 158.063 27.6727C157.101 27.714 156.137 27.681 155.181 27.5741C151.653 27.0814 148.732 25.6031 147.51 22.011C146.13 17.9852 146.091 13.9447 148.889 10.4708C152.545 5.93255 162.305 6.07545 165.99 10.589C167.517 12.5174 168.228 14.9672 167.97 17.4136ZM161.98 17.8817H161.876C161.876 17.5762 161.876 17.2707 161.876 16.9701C161.842 14.0136 160.344 12.3728 157.639 12.3777C155.013 12.3777 153.501 13.9791 153.466 16.8716C153.419 17.9816 153.492 19.0934 153.683 20.1878C154.077 22.0504 155.481 23.0802 157.393 23.1443C159.605 23.2083 161.014 22.3411 161.59 20.4292C161.784 19.5911 161.914 18.7395 161.98 17.8817Z" fill="white"/>
<path d="M12.7503 22.563C16.3419 22.563 19.9384 22.563 23.5348 22.563C25.1804 22.563 25.4168 22.8636 25.1409 24.4453C24.1556 30.1168 19.2683 34.793 14.1249 34.9803C6.94176 35.2464 1.80815 31.6789 0.266099 25.3175C-0.325103 22.9079 -0.0689154 22.5827 2.41906 22.5827H12.7651L12.7503 22.563Z" fill="#AED7F7"/>
<path d="M123.438 15.704C121.754 15.704 120.039 15.7434 118.334 15.6645C118.054 15.6645 117.664 15.1718 117.561 14.8121C116.97 12.8411 115.777 11.8556 114.019 11.9295C113.168 11.9223 112.345 12.2356 111.714 12.8071C111.084 13.3785 110.691 14.1664 110.614 15.0141C110.401 16.6691 110.419 18.3458 110.668 19.9958C110.999 22.0555 112.344 22.9868 114.29 22.9523C116.236 22.9178 117.349 21.9914 117.812 19.9022C117.86 19.7348 117.918 19.5703 117.985 19.4094H123.404C123.659 20.7882 123.46 22.2124 122.839 23.4692C122.217 24.7259 121.206 25.7477 119.955 26.3818C116.039 28.3282 111.949 28.3528 108.131 26.2685C102.446 23.1445 102.446 11.7767 108.131 8.64285C111.89 6.57331 115.93 6.57824 119.803 8.51474C121.101 9.16301 122.155 10.2124 122.81 11.5074C123.465 12.8024 123.686 14.2739 123.438 15.704Z" fill="white"/>
<path d="M0.256639 -0.000187043C5.80409 -0.335257 10.6322 3.61167 11.0609 9.09104C11.3515 12.762 11.184 16.4823 11.2284 20.1631C11.2284 21.0747 10.7653 21.4196 9.90309 21.4147C7.01605 21.4147 4.1323 21.4147 1.25183 21.4147C0.458633 21.4147 0.0595715 21.1486 0.0644982 20.2666C0.0940583 13.6342 0.0940584 7.00671 0.108838 0.3743C0.140376 0.243179 0.190126 0.117126 0.256639 -0.000187043Z" fill="#172A70"/>
<path d="M145.49 7.88379V12.8704H139.204V27.5938H132.912V12.9394H126.542V7.88379H145.49Z" fill="white"/>
<path d="M60.7559 7.88379H66.9536V22.5283H76.9252V27.5938H60.7559V7.88379Z" fill="white"/>
<path d="M13.1938 13.2055V11.6879C13.1938 9.16007 13.1938 9.14529 15.7705 9.68239C18.1557 10.2099 20.3289 11.4384 22.0109 13.2102C23.6929 14.9821 24.807 17.2163 25.21 19.6261C25.3825 20.7298 25.0721 21.464 23.8601 21.4739C22.0927 21.5471 20.3225 21.5142 18.559 21.3753C15.2286 21.0156 13.2382 18.68 13.1938 15.3293C13.184 14.6197 13.1938 13.9151 13.1938 13.2055Z" fill="#3485C4"/>
</g>
<defs>
<clipPath id="clip0_503_409">
<rect width="168" height="35" fill="white"/>
</clipPath>
</defs>
</svg>
