<svg width="157" height="18" viewBox="0 0 157 18" fill="none" xmlns="http://www.w3.org/2000/svg">
<g clip-path="url(#clip0_503_429)">
<path d="M0.682604 15.7188C0.520073 15.7454 0.4334 15.7188 0.422565 15.6816L0 13.5173C0 13.4642 0.0704211 13.4269 0.227535 13.395L9.24801 11.7094C9.41054 11.6774 9.49725 11.6881 9.50809 11.7413L9.92523 13.9055C9.92523 13.9587 9.86023 14.0012 9.70312 14.0278L0.682604 15.7188Z" fill="white"/>
<path d="M22.0664 18C22.0524 18.0031 22.0378 18.0032 22.0237 18.0001C22.0097 17.9971 21.9965 17.991 21.9851 17.9824C21.9737 17.9737 21.9644 17.9627 21.9578 17.9501C21.9513 17.9376 21.9476 17.9237 21.9472 17.9096L20.1106 4.14768C20.1071 4.13703 20.1063 4.1257 20.1082 4.11467C20.1101 4.10363 20.1147 4.09323 20.1216 4.08433C20.1286 4.07544 20.1376 4.06833 20.148 4.06362C20.1583 4.05891 20.1697 4.05673 20.1811 4.05727L24.0981 3.52552C24.6412 3.42628 25.1995 3.43984 25.737 3.56532C26.2745 3.69079 26.7792 3.9254 27.2187 4.25403C27.6518 4.61711 28.0077 5.06041 28.2661 5.5586C28.5246 6.05678 28.6804 6.60008 28.7248 7.15742C28.865 8.00872 28.7849 8.88097 28.4918 9.69391C28.238 10.3922 27.8007 11.0123 27.2241 11.4913C26.6763 11.9406 26.0089 12.2266 25.3008 12.3155L23.7459 12.5229L24.4394 17.5692C24.4426 17.5823 24.4428 17.5959 24.44 17.6091C24.4372 17.6223 24.4314 17.6346 24.4231 17.6453C24.4148 17.656 24.4042 17.6648 24.392 17.6709C24.3798 17.6771 24.3664 17.6805 24.3527 17.6809L22.0664 18ZM23.4154 10.114L24.9703 9.91193C25.1936 9.87579 25.4049 9.78797 25.5867 9.65573C25.7686 9.5235 25.9157 9.35066 26.0159 9.15152C26.2856 8.64132 26.3715 8.05662 26.2597 7.49243C26.2163 7.02685 26.0027 6.59241 25.6584 6.26939C25.4904 6.12202 25.2903 6.01427 25.0734 5.95436C24.8565 5.89446 24.6285 5.88399 24.4069 5.92375L22.8574 6.14709L23.4154 10.114Z" fill="white"/>
<path d="M38.0107 16.2985C37.2987 16.373 36.5797 16.2495 35.9357 15.9422C35.2898 15.6435 34.7308 15.19 34.3104 14.6235C33.8765 14.049 33.6122 13.3682 33.5465 12.656L32.9073 6.27486C32.8246 5.56817 32.9407 4.85276 33.2432 4.20632C33.5345 3.57357 33.9858 3.02443 34.5542 2.61105C35.1223 2.19172 35.7971 1.93414 36.5046 1.86658C37.2115 1.78773 37.9268 1.90566 38.5687 2.20691C39.2012 2.50536 39.7484 2.95297 40.1616 3.50971C40.5898 4.08234 40.8502 4.75907 40.9146 5.46658L41.5973 11.8477C41.6771 12.556 41.5611 13.2724 41.2614 13.9215C40.9691 14.5507 40.5223 15.0988 39.9611 15.5168C39.3983 15.9514 38.7226 16.2223 38.0107 16.2985ZM37.7561 13.863C37.9611 13.8422 38.1589 13.7776 38.3358 13.6738C38.5127 13.57 38.6643 13.4295 38.78 13.2622C39.046 12.9353 39.1705 12.519 39.1268 12.1029L38.4496 5.72183C38.4111 5.31322 38.2177 4.93368 37.9078 4.65831C37.7565 4.52243 37.5767 4.42062 37.3812 4.36C37.1856 4.29938 36.9789 4.28141 36.7755 4.30735C36.5741 4.32075 36.3777 4.37491 36.1987 4.46642C36.0197 4.55794 35.8619 4.68483 35.7353 4.83911C35.6028 5.00442 35.5049 5.19383 35.4472 5.39643C35.3896 5.59903 35.3733 5.81082 35.3994 6.01961L36.0604 12.4007C36.0922 12.8187 36.2861 13.2089 36.6021 13.4908C36.7543 13.6335 36.9365 13.7417 37.1359 13.8078C37.3352 13.8739 37.5469 13.8964 37.7561 13.8737V13.863Z" fill="white"/>
<path d="M48.0443 15.2027C48.0174 15.2028 47.9913 15.1931 47.9713 15.1754C47.9512 15.1577 47.9386 15.1333 47.9359 15.107L44.5715 1.41424C44.5715 1.36106 44.5716 1.33447 44.6257 1.32915L46.9283 1.18026C46.9518 1.17682 46.9758 1.18195 46.9957 1.19468C47.0157 1.20741 47.0302 1.22687 47.0366 1.24938L48.9707 10.2893L49.7076 1.08986C49.7076 1.03137 49.7563 1.00477 49.8267 0.999457L51.6742 0.877155C51.6982 0.875093 51.7223 0.881426 51.7421 0.895038C51.762 0.908651 51.7762 0.928675 51.7825 0.951601L53.7383 9.99148L54.4534 0.792072C54.4561 0.768572 54.4676 0.746878 54.4856 0.731169C54.5036 0.715459 54.5269 0.706851 54.551 0.706997L56.8318 0.558105C56.8968 0.558105 56.9239 0.558105 56.9185 0.632551L55.4124 14.6444C55.3887 14.6867 55.3553 14.7231 55.3149 14.7507L52.8336 14.9156C52.7902 14.9156 52.7523 14.8837 52.7198 14.8198L51.1812 7.62516L50.6394 14.9368C50.6394 15.006 50.596 15.0379 50.5419 15.0432L48.0443 15.2027Z" fill="white"/>
<path d="M62.1303 14.4052C62.0761 14.4052 62.0436 14.3733 62.0436 14.3042L61.5994 0.430596C61.5994 0.37742 61.5994 0.35083 61.6752 0.345512L68.2848 0.132812C68.339 0.132812 68.3661 0.164719 68.3661 0.233848L68.4419 2.49382C68.4419 2.54699 68.4419 2.57358 68.3661 2.57889L64.1457 2.71183L64.2541 5.86516L68.469 5.7269C68.4803 5.72526 68.4919 5.72615 68.5028 5.7295C68.5137 5.73284 68.5237 5.73856 68.532 5.74623C68.5404 5.7539 68.5468 5.76333 68.5509 5.77379C68.555 5.78425 68.5567 5.79549 68.5557 5.80667L68.6532 8.0879C68.6549 8.099 68.654 8.11032 68.6506 8.12102C68.6472 8.13172 68.6413 8.14153 68.6335 8.14971C68.6257 8.15789 68.6161 8.16423 68.6055 8.16827C68.5948 8.1723 68.5833 8.17391 68.572 8.17299L64.3353 8.30593L64.4545 11.8421L68.6912 11.7039C68.7453 11.7039 68.7724 11.7358 68.7778 11.8049L68.8537 14.1074C68.8537 14.1606 68.8537 14.1872 68.7724 14.1872L62.1303 14.4052Z" fill="white"/>
<path d="M73.7677 14.0918C73.7135 14.0918 73.6864 14.0598 73.681 13.996L73.616 0.111836C73.616 0.0586606 73.6431 0.0320759 73.7027 0.0320759L77.858 0.00017178C78.5787 -0.0064276 79.2879 0.177234 79.9114 0.53193C80.527 0.871605 81.0436 1.36041 81.4121 1.95172C81.7142 2.45672 81.9025 3.01946 81.9642 3.60197C82.0259 4.18447 81.9596 4.77319 81.7697 5.32838C81.6371 5.68792 81.4548 6.02789 81.2279 6.33872C81.0734 6.56671 80.8915 6.7756 80.6861 6.96088C81.421 7.72961 81.8264 8.74635 81.8184 9.80046L81.8726 13.9429C81.8744 13.9565 81.8729 13.9704 81.8684 13.9835C81.8638 13.9965 81.8563 14.0084 81.8463 14.0181C81.8364 14.0279 81.8243 14.0353 81.811 14.0397C81.7977 14.0442 81.7836 14.0456 81.7697 14.0439H79.4454C79.3858 14.0439 79.3588 14.0439 79.3588 13.9801L79.3263 9.80046C79.3265 9.5655 79.2787 9.33288 79.1856 9.11639C79.0926 8.8999 78.9562 8.70397 78.7845 8.5402C78.6192 8.3668 78.4183 8.22975 78.1951 8.13809C77.9719 8.04643 77.7315 8.00224 77.4896 8.00844H76.1352V13.9482C76.1352 14.0173 76.1352 14.0492 76.0539 14.0492L73.7677 14.0918ZM76.1298 5.61022H77.9014C78.3256 5.60286 78.73 5.43301 79.0283 5.13695C79.1834 4.99239 79.3069 4.81836 79.3912 4.62547C79.4756 4.43258 79.5191 4.22486 79.5191 4.01494C79.5191 3.80502 79.4756 3.5973 79.3912 3.40441C79.3069 3.21152 79.1834 3.0375 79.0283 2.89294C78.8795 2.7444 78.7013 2.62723 78.5047 2.54859C78.3082 2.46996 78.0973 2.43153 77.8851 2.43562H76.1136L76.1298 5.61022Z" fill="white"/>
<path d="M86.6618 14.1078C86.6076 14.1078 86.5806 14.0759 86.5806 14.0067L86.9652 0.127848C86.9652 0.0746722 86.9923 0.0480846 87.0465 0.0534022L93.6561 0.218254C93.7103 0.218254 93.7373 0.250153 93.7319 0.319281L93.6778 2.58457C93.6778 2.63775 93.6453 2.66434 93.5911 2.65902L89.3707 2.55799L89.2894 5.70599L93.5098 5.81234C93.5212 5.81142 93.5326 5.81303 93.5433 5.81706C93.554 5.82109 93.5636 5.82744 93.5714 5.83562C93.5792 5.8438 93.585 5.85361 93.5884 5.86431C93.5919 5.87501 93.5928 5.88633 93.5911 5.89742L93.5532 8.17866C93.5541 8.18984 93.5524 8.20108 93.5483 8.21154C93.5442 8.222 93.5378 8.23143 93.5294 8.23909C93.5211 8.24676 93.5111 8.25249 93.5002 8.25583C93.4893 8.25918 93.4778 8.26007 93.4665 8.25843L89.2244 8.15208L89.1323 11.6883L93.3744 11.7946C93.4285 11.7946 93.4556 11.8265 93.4556 11.8957L93.396 14.1982C93.397 14.2093 93.3953 14.2206 93.3912 14.231C93.3871 14.2415 93.3807 14.2509 93.3723 14.2586C93.364 14.2663 93.354 14.272 93.3431 14.2753C93.3322 14.2787 93.3207 14.2796 93.3094 14.2779L86.6618 14.1078Z" fill="white"/>
<path d="M98.3154 14.464C98.245 14.464 98.2124 14.4214 98.2179 14.3576L99.0359 0.500002C99.035 0.488827 99.0366 0.477588 99.0407 0.467124C99.0448 0.456661 99.0513 0.447238 99.0597 0.439569C99.068 0.4319 99.078 0.426178 99.0889 0.42283C99.0998 0.419482 99.1113 0.418594 99.1226 0.420234L102.969 0.611667C103.695 0.630985 104.401 0.850259 105.006 1.24446C105.6 1.63471 106.084 2.16493 106.415 2.78655C106.748 3.42085 106.9 4.13214 106.854 4.84446L106.529 10.6353C106.501 11.3933 106.261 12.1291 105.835 12.7623C105.425 13.3687 104.866 13.8643 104.21 14.2034C103.528 14.5482 102.765 14.708 101.999 14.666L98.3154 14.464ZM100.856 12.1136L102.135 12.1827C102.374 12.1992 102.613 12.1671 102.839 12.0884C103.065 12.0097 103.271 11.8861 103.446 11.7254C103.624 11.5715 103.769 11.3838 103.871 11.1736C103.974 10.9635 104.032 10.7351 104.042 10.5024L104.367 4.69025C104.381 4.48178 104.351 4.27267 104.28 4.07597C104.208 3.87927 104.096 3.69919 103.95 3.54697C103.813 3.3851 103.643 3.25386 103.451 3.16213C103.258 3.07039 103.048 3.02029 102.834 3.01521L101.393 2.95672L100.856 12.1136Z" fill="white"/>
<path d="M117.012 15.724C116.958 15.724 116.936 15.6815 116.941 15.6123L118.421 1.78663C118.42 1.77535 118.423 1.76416 118.427 1.75391C118.432 1.74365 118.439 1.7346 118.448 1.72743C118.457 1.72026 118.467 1.71516 118.479 1.71252C118.49 1.70988 118.501 1.70976 118.513 1.71218L122.446 2.111C123.182 2.17206 123.887 2.4356 124.478 2.87141C125.042 3.28646 125.489 3.83539 125.778 4.46669C126.069 5.0993 126.182 5.79737 126.103 6.48737C126.059 7.05483 125.873 7.60286 125.561 8.08264C125.275 8.51704 124.907 8.89417 124.478 9.19401C124.83 9.62045 125.095 10.1098 125.258 10.6351C125.415 11.1682 125.465 11.7264 125.404 12.2782C125.333 13.0272 125.058 13.7436 124.608 14.3521C124.168 14.9483 123.581 15.4242 122.901 15.7346C122.209 16.0533 121.439 16.1767 120.68 16.0909L117.012 15.724ZM119.667 13.5119L120.934 13.6395C121.172 13.6653 121.413 13.6428 121.641 13.5732C121.869 13.5037 122.081 13.3887 122.262 13.2354C122.449 13.0882 122.604 12.9054 122.718 12.698C122.831 12.4906 122.901 12.2628 122.923 12.0283C122.968 11.559 122.823 11.0912 122.518 10.7267C122.214 10.3621 121.775 10.1304 121.297 10.082L120.046 9.95443L119.667 13.5119ZM120.311 7.52429L121.866 7.67851C122.084 7.70857 122.305 7.69025 122.514 7.62489C122.723 7.55953 122.915 7.44882 123.074 7.30096C123.38 7.03605 123.574 6.66778 123.616 6.26934C123.639 6.06246 123.619 5.85324 123.557 5.6541C123.496 5.45496 123.394 5.26997 123.259 5.11012C123.13 4.94364 122.967 4.80556 122.78 4.7048C122.593 4.60404 122.387 4.54285 122.175 4.52518L120.615 4.36565L120.311 7.52429Z" fill="white"/>
<path d="M130.691 17.2183C130.654 17.2183 130.637 17.1864 130.643 17.1279L131.428 11.4434L129.803 2.9938C129.803 2.94062 129.803 2.91404 129.879 2.92467L132.143 3.21714C132.208 3.21714 132.246 3.25968 132.252 3.31286L133.037 8.89631L135.297 3.70636C135.304 3.68375 135.32 3.6647 135.341 3.6529C135.362 3.64111 135.387 3.63741 135.41 3.64254L137.697 3.93501C137.751 3.93501 137.767 3.97223 137.745 4.02541L133.91 11.6827L133.157 17.4523C133.156 17.4637 133.153 17.4749 133.148 17.485C133.142 17.495 133.135 17.5038 133.125 17.5104C133.116 17.5171 133.105 17.5216 133.093 17.5235C133.082 17.5254 133.07 17.5247 133.059 17.5214L130.691 17.2183Z" fill="white"/>
<path d="M147.308 13.7354C147.145 13.7035 147.069 13.6663 147.08 13.6131L147.492 11.4435C147.492 11.3957 147.584 11.3797 147.746 11.4116L156.778 13.0601C156.937 13.092 157.013 13.1345 157.005 13.1877L156.594 15.3519C156.594 15.4051 156.507 15.4158 156.334 15.3839L147.308 13.7354Z" fill="white"/>
</g>
<defs>
<clipPath id="clip0_503_429">
<rect width="157" height="18" fill="white"/>
</clipPath>
</defs>
</svg>
