<?xml version="1.0" standalone="no"?>
<!DOCTYPE svg PUBLIC "-//W3C//DTD SVG 20010904//EN"
 "http://www.w3.org/TR/2001/REC-SVG-20010904/DTD/svg10.dtd">
<svg version="1.0" xmlns="http://www.w3.org/2000/svg"
 width="200.000000pt" height="200.000000pt" viewBox="0 0 200.000000 200.000000"
 preserveAspectRatio="xMidYMid meet">
<metadata>
Created by potrace 1.14, written by Peter Selinger 2001-2017
</metadata>
<g transform="translate(0.000000,200.000000) scale(0.100000,-0.100000)"
fill="#000000" stroke="none">
<path d="M909 1976 c-2 -2 -29 -6 -60 -9 -31 -4 -68 -11 -82 -16 -15 -6 -27
-9 -27 -6 0 7 -125 -42 -183 -71 -231 -118 -411 -324 -491 -564 -118 -354 -27
-735 240 -1003 123 -125 278 -211 459 -257 69 -18 120 -23 220 -24 150 -1 195
5 308 41 308 97 544 327 642 629 65 198 62 429 -7 629 -107 310 -411 576 -721
631 -17 2 -34 7 -39 10 -11 7 -252 16 -259 10z"/>
</g>
</svg>
